%TF.GenerationSoftware,KiCad,Pcbnew,(6.0.1)*%
%TF.CreationDate,2022-04-27T12:01:47-05:00*%
%TF.ProjectId,RemotePet,52656d6f-7465-4506-9574-2e6b69636164,rev?*%
%TF.SameCoordinates,Original*%
%TF.FileFunction,Soldermask,Bot*%
%TF.FilePolarity,Negative*%
%FSLAX46Y46*%
G04 Gerber Fmt 4.6, Leading zero omitted, Abs format (unit mm)*
G04 Created by KiCad (PCBNEW (6.0.1)) date 2022-04-27 12:01:47*
%MOMM*%
%LPD*%
G01*
G04 APERTURE LIST*
%ADD10R,1.524000X1.524000*%
%ADD11C,1.524000*%
%ADD12R,1.700000X1.700000*%
%ADD13O,1.700000X1.700000*%
%ADD14R,3.000000X3.000000*%
%ADD15C,3.000000*%
%ADD16R,1.900000X1.900000*%
%ADD17C,1.900000*%
%ADD18C,3.500000*%
G04 APERTURE END LIST*
D10*
%TO.C,U1*%
X122325000Y-70065000D03*
D11*
X122325000Y-72605000D03*
X122325000Y-75145000D03*
X122325000Y-77685000D03*
X122325000Y-80225000D03*
X122325000Y-82765000D03*
X122325000Y-85305000D03*
X122325000Y-87845000D03*
X122325000Y-90385000D03*
X122325000Y-92925000D03*
X122325000Y-95465000D03*
X122325000Y-98005000D03*
X122325000Y-100545000D03*
X122325000Y-103085000D03*
X122325000Y-105625000D03*
X147725000Y-105625000D03*
X147725000Y-103085000D03*
X147725000Y-100545000D03*
X147725000Y-98005000D03*
X147725000Y-95465000D03*
X147725000Y-92925000D03*
X147725000Y-90385000D03*
X147725000Y-87845000D03*
X147725000Y-85305000D03*
X147725000Y-82765000D03*
X147725000Y-80225000D03*
X147725000Y-77685000D03*
X147725000Y-75145000D03*
X147725000Y-72605000D03*
X147725000Y-70065000D03*
%TD*%
D12*
%TO.C,conn_alimentacion1*%
X105660000Y-108400000D03*
D13*
X108200000Y-108400000D03*
%TD*%
D12*
%TO.C,ServoWater1*%
X160400000Y-90400000D03*
D13*
X160400000Y-92940000D03*
X160400000Y-95480000D03*
%TD*%
D14*
%TO.C,Screw1*%
X116480000Y-60200000D03*
D15*
X111400000Y-60200000D03*
X106320000Y-60200000D03*
%TD*%
D12*
%TO.C,ServoWater2*%
X155425000Y-90275000D03*
D13*
X155425000Y-92815000D03*
X155425000Y-95355000D03*
%TD*%
D16*
%TO.C,S1*%
X105600000Y-102600000D03*
D17*
X108100000Y-102600000D03*
X110600000Y-102600000D03*
%TD*%
D12*
%TO.C,WaterS1*%
X138275000Y-126775000D03*
D13*
X140815000Y-126775000D03*
X143355000Y-126775000D03*
%TD*%
D12*
%TO.C,U2*%
X104050000Y-68015000D03*
D13*
X106590000Y-68015000D03*
X109130000Y-68015000D03*
X111670000Y-68015000D03*
X114210000Y-68015000D03*
X116750000Y-68015000D03*
D12*
X106560000Y-88805000D03*
D13*
X109100000Y-88805000D03*
X111640000Y-88805000D03*
X114180000Y-88805000D03*
%TD*%
D12*
%TO.C,WaterS2*%
X138275000Y-121400000D03*
D13*
X140815000Y-121400000D03*
X143355000Y-121400000D03*
%TD*%
D12*
%TO.C,ServoFood2*%
X154825000Y-101475000D03*
D13*
X154825000Y-104015000D03*
X154825000Y-106555000D03*
%TD*%
D12*
%TO.C,Esp32Cam1*%
X129550000Y-58775000D03*
D13*
X132090000Y-58775000D03*
%TD*%
D12*
%TO.C,ServoFood1*%
X160400000Y-101625000D03*
D13*
X160400000Y-104165000D03*
X160400000Y-106705000D03*
%TD*%
D12*
%TO.C,Infrarroj6*%
X161000000Y-61120000D03*
D13*
X161000000Y-63660000D03*
X161000000Y-66200000D03*
X161000000Y-68740000D03*
%TD*%
D12*
%TO.C,Esp32*%
X140660000Y-58975000D03*
D13*
X143200000Y-58975000D03*
%TD*%
D12*
%TO.C,DispOled1*%
X154825000Y-61120000D03*
D13*
X154825000Y-63660000D03*
X154825000Y-66200000D03*
X154825000Y-68740000D03*
%TD*%
D12*
%TO.C,MotionS1*%
X154200000Y-82200000D03*
D13*
X154200000Y-79660000D03*
X154200000Y-77120000D03*
%TD*%
D10*
%TO.C,USB1*%
X109300000Y-116800000D03*
D11*
X111800000Y-116800000D03*
X113800000Y-116800000D03*
X116300000Y-116800000D03*
D18*
X119370000Y-119510000D03*
X106230000Y-119510000D03*
%TD*%
D12*
%TO.C,SensorSharp2*%
X126720000Y-121400000D03*
D13*
X129260000Y-121400000D03*
X131800000Y-121400000D03*
%TD*%
D12*
%TO.C,SensorSharp1*%
X126875000Y-126775000D03*
D13*
X129415000Y-126775000D03*
X131955000Y-126775000D03*
%TD*%
D12*
%TO.C,U6*%
X160600000Y-74100000D03*
D13*
X160600000Y-76640000D03*
X160600000Y-79180000D03*
X160600000Y-81720000D03*
X160600000Y-84260000D03*
%TD*%
M02*
