%TF.GenerationSoftware,KiCad,Pcbnew,(6.0.1)*%
%TF.CreationDate,2022-04-27T12:01:47-05:00*%
%TF.ProjectId,RemotePet,52656d6f-7465-4506-9574-2e6b69636164,rev?*%
%TF.SameCoordinates,Original*%
%TF.FileFunction,Legend,Top*%
%TF.FilePolarity,Positive*%
%FSLAX46Y46*%
G04 Gerber Fmt 4.6, Leading zero omitted, Abs format (unit mm)*
G04 Created by KiCad (PCBNEW (6.0.1)) date 2022-04-27 12:01:47*
%MOMM*%
%LPD*%
G01*
G04 APERTURE LIST*
%ADD10C,0.150000*%
%ADD11C,0.300000*%
%ADD12C,0.120000*%
%ADD13C,0.800000*%
%ADD14C,1.000000*%
%ADD15C,0.100000*%
G04 APERTURE END LIST*
D10*
%TO.C,U1*%
X134263095Y-79987380D02*
X134263095Y-80796904D01*
X134310714Y-80892142D01*
X134358333Y-80939761D01*
X134453571Y-80987380D01*
X134644047Y-80987380D01*
X134739285Y-80939761D01*
X134786904Y-80892142D01*
X134834523Y-80796904D01*
X134834523Y-79987380D01*
X135834523Y-80987380D02*
X135263095Y-80987380D01*
X135548809Y-80987380D02*
X135548809Y-79987380D01*
X135453571Y-80130238D01*
X135358333Y-80225476D01*
X135263095Y-80273095D01*
X125143095Y-109673571D02*
X125476428Y-109673571D01*
X125619285Y-110197380D02*
X125143095Y-110197380D01*
X125143095Y-109197380D01*
X125619285Y-109197380D01*
X126047857Y-109530714D02*
X126047857Y-110197380D01*
X126047857Y-109625952D02*
X126095476Y-109578333D01*
X126190714Y-109530714D01*
X126333571Y-109530714D01*
X126428809Y-109578333D01*
X126476428Y-109673571D01*
X126476428Y-110197380D01*
X127381190Y-110197380D02*
X127381190Y-109673571D01*
X127333571Y-109578333D01*
X127238333Y-109530714D01*
X127047857Y-109530714D01*
X126952619Y-109578333D01*
X127381190Y-110149761D02*
X127285952Y-110197380D01*
X127047857Y-110197380D01*
X126952619Y-110149761D01*
X126905000Y-110054523D01*
X126905000Y-109959285D01*
X126952619Y-109864047D01*
X127047857Y-109816428D01*
X127285952Y-109816428D01*
X127381190Y-109768809D01*
X127857380Y-110197380D02*
X127857380Y-109197380D01*
X127857380Y-109578333D02*
X127952619Y-109530714D01*
X128143095Y-109530714D01*
X128238333Y-109578333D01*
X128285952Y-109625952D01*
X128333571Y-109721190D01*
X128333571Y-110006904D01*
X128285952Y-110102142D01*
X128238333Y-110149761D01*
X128143095Y-110197380D01*
X127952619Y-110197380D01*
X127857380Y-110149761D01*
X128905000Y-110197380D02*
X128809761Y-110149761D01*
X128762142Y-110054523D01*
X128762142Y-109197380D01*
X129666904Y-110149761D02*
X129571666Y-110197380D01*
X129381190Y-110197380D01*
X129285952Y-110149761D01*
X129238333Y-110054523D01*
X129238333Y-109673571D01*
X129285952Y-109578333D01*
X129381190Y-109530714D01*
X129571666Y-109530714D01*
X129666904Y-109578333D01*
X129714523Y-109673571D01*
X129714523Y-109768809D01*
X129238333Y-109864047D01*
X133763095Y-113007380D02*
X133763095Y-113816904D01*
X133810714Y-113912142D01*
X133858333Y-113959761D01*
X133953571Y-114007380D01*
X134144047Y-114007380D01*
X134239285Y-113959761D01*
X134286904Y-113912142D01*
X134334523Y-113816904D01*
X134334523Y-113007380D01*
X134763095Y-113959761D02*
X134905952Y-114007380D01*
X135144047Y-114007380D01*
X135239285Y-113959761D01*
X135286904Y-113912142D01*
X135334523Y-113816904D01*
X135334523Y-113721666D01*
X135286904Y-113626428D01*
X135239285Y-113578809D01*
X135144047Y-113531190D01*
X134953571Y-113483571D01*
X134858333Y-113435952D01*
X134810714Y-113388333D01*
X134763095Y-113293095D01*
X134763095Y-113197857D01*
X134810714Y-113102619D01*
X134858333Y-113055000D01*
X134953571Y-113007380D01*
X135191666Y-113007380D01*
X135334523Y-113055000D01*
X136096428Y-113483571D02*
X136239285Y-113531190D01*
X136286904Y-113578809D01*
X136334523Y-113674047D01*
X136334523Y-113816904D01*
X136286904Y-113912142D01*
X136239285Y-113959761D01*
X136144047Y-114007380D01*
X135763095Y-114007380D01*
X135763095Y-113007380D01*
X136096428Y-113007380D01*
X136191666Y-113055000D01*
X136239285Y-113102619D01*
X136286904Y-113197857D01*
X136286904Y-113293095D01*
X136239285Y-113388333D01*
X136191666Y-113435952D01*
X136096428Y-113483571D01*
X135763095Y-113483571D01*
X141525952Y-109673571D02*
X141668809Y-109721190D01*
X141716428Y-109768809D01*
X141764047Y-109864047D01*
X141764047Y-110006904D01*
X141716428Y-110102142D01*
X141668809Y-110149761D01*
X141573571Y-110197380D01*
X141192619Y-110197380D01*
X141192619Y-109197380D01*
X141525952Y-109197380D01*
X141621190Y-109245000D01*
X141668809Y-109292619D01*
X141716428Y-109387857D01*
X141716428Y-109483095D01*
X141668809Y-109578333D01*
X141621190Y-109625952D01*
X141525952Y-109673571D01*
X141192619Y-109673571D01*
X142335476Y-110197380D02*
X142240238Y-110149761D01*
X142192619Y-110102142D01*
X142145000Y-110006904D01*
X142145000Y-109721190D01*
X142192619Y-109625952D01*
X142240238Y-109578333D01*
X142335476Y-109530714D01*
X142478333Y-109530714D01*
X142573571Y-109578333D01*
X142621190Y-109625952D01*
X142668809Y-109721190D01*
X142668809Y-110006904D01*
X142621190Y-110102142D01*
X142573571Y-110149761D01*
X142478333Y-110197380D01*
X142335476Y-110197380D01*
X143240238Y-110197380D02*
X143145000Y-110149761D01*
X143097380Y-110102142D01*
X143049761Y-110006904D01*
X143049761Y-109721190D01*
X143097380Y-109625952D01*
X143145000Y-109578333D01*
X143240238Y-109530714D01*
X143383095Y-109530714D01*
X143478333Y-109578333D01*
X143525952Y-109625952D01*
X143573571Y-109721190D01*
X143573571Y-110006904D01*
X143525952Y-110102142D01*
X143478333Y-110149761D01*
X143383095Y-110197380D01*
X143240238Y-110197380D01*
X143859285Y-109530714D02*
X144240238Y-109530714D01*
X144002142Y-109197380D02*
X144002142Y-110054523D01*
X144049761Y-110149761D01*
X144145000Y-110197380D01*
X144240238Y-110197380D01*
D11*
%TO.C,REMOTE PET*%
X149430571Y-116889428D02*
X148922571Y-116163714D01*
X148559714Y-116889428D02*
X148559714Y-115365428D01*
X149140285Y-115365428D01*
X149285428Y-115438000D01*
X149358000Y-115510571D01*
X149430571Y-115655714D01*
X149430571Y-115873428D01*
X149358000Y-116018571D01*
X149285428Y-116091142D01*
X149140285Y-116163714D01*
X148559714Y-116163714D01*
X150083714Y-116091142D02*
X150591714Y-116091142D01*
X150809428Y-116889428D02*
X150083714Y-116889428D01*
X150083714Y-115365428D01*
X150809428Y-115365428D01*
X151462571Y-116889428D02*
X151462571Y-115365428D01*
X151970571Y-116454000D01*
X152478571Y-115365428D01*
X152478571Y-116889428D01*
X153494571Y-115365428D02*
X153784857Y-115365428D01*
X153930000Y-115438000D01*
X154075142Y-115583142D01*
X154147714Y-115873428D01*
X154147714Y-116381428D01*
X154075142Y-116671714D01*
X153930000Y-116816857D01*
X153784857Y-116889428D01*
X153494571Y-116889428D01*
X153349428Y-116816857D01*
X153204285Y-116671714D01*
X153131714Y-116381428D01*
X153131714Y-115873428D01*
X153204285Y-115583142D01*
X153349428Y-115438000D01*
X153494571Y-115365428D01*
X154583142Y-115365428D02*
X155454000Y-115365428D01*
X155018571Y-116889428D02*
X155018571Y-115365428D01*
X155962000Y-116091142D02*
X156470000Y-116091142D01*
X156687714Y-116889428D02*
X155962000Y-116889428D01*
X155962000Y-115365428D01*
X156687714Y-115365428D01*
X158502000Y-116889428D02*
X158502000Y-115365428D01*
X159082571Y-115365428D01*
X159227714Y-115438000D01*
X159300285Y-115510571D01*
X159372857Y-115655714D01*
X159372857Y-115873428D01*
X159300285Y-116018571D01*
X159227714Y-116091142D01*
X159082571Y-116163714D01*
X158502000Y-116163714D01*
X160026000Y-116091142D02*
X160534000Y-116091142D01*
X160751714Y-116889428D02*
X160026000Y-116889428D01*
X160026000Y-115365428D01*
X160751714Y-115365428D01*
X161187142Y-115365428D02*
X162058000Y-115365428D01*
X161622571Y-116889428D02*
X161622571Y-115365428D01*
D10*
%TO.C,conn_alimentacion1*%
X103124285Y-111029761D02*
X103029047Y-111077380D01*
X102838571Y-111077380D01*
X102743333Y-111029761D01*
X102695714Y-110982142D01*
X102648095Y-110886904D01*
X102648095Y-110601190D01*
X102695714Y-110505952D01*
X102743333Y-110458333D01*
X102838571Y-110410714D01*
X103029047Y-110410714D01*
X103124285Y-110458333D01*
X103695714Y-111077380D02*
X103600476Y-111029761D01*
X103552857Y-110982142D01*
X103505238Y-110886904D01*
X103505238Y-110601190D01*
X103552857Y-110505952D01*
X103600476Y-110458333D01*
X103695714Y-110410714D01*
X103838571Y-110410714D01*
X103933809Y-110458333D01*
X103981428Y-110505952D01*
X104029047Y-110601190D01*
X104029047Y-110886904D01*
X103981428Y-110982142D01*
X103933809Y-111029761D01*
X103838571Y-111077380D01*
X103695714Y-111077380D01*
X104457619Y-110410714D02*
X104457619Y-111077380D01*
X104457619Y-110505952D02*
X104505238Y-110458333D01*
X104600476Y-110410714D01*
X104743333Y-110410714D01*
X104838571Y-110458333D01*
X104886190Y-110553571D01*
X104886190Y-111077380D01*
X105362380Y-110410714D02*
X105362380Y-111077380D01*
X105362380Y-110505952D02*
X105410000Y-110458333D01*
X105505238Y-110410714D01*
X105648095Y-110410714D01*
X105743333Y-110458333D01*
X105790952Y-110553571D01*
X105790952Y-111077380D01*
X106029047Y-111172619D02*
X106790952Y-111172619D01*
X107457619Y-111077380D02*
X107457619Y-110553571D01*
X107410000Y-110458333D01*
X107314761Y-110410714D01*
X107124285Y-110410714D01*
X107029047Y-110458333D01*
X107457619Y-111029761D02*
X107362380Y-111077380D01*
X107124285Y-111077380D01*
X107029047Y-111029761D01*
X106981428Y-110934523D01*
X106981428Y-110839285D01*
X107029047Y-110744047D01*
X107124285Y-110696428D01*
X107362380Y-110696428D01*
X107457619Y-110648809D01*
X108076666Y-111077380D02*
X107981428Y-111029761D01*
X107933809Y-110934523D01*
X107933809Y-110077380D01*
X108457619Y-111077380D02*
X108457619Y-110410714D01*
X108457619Y-110077380D02*
X108410000Y-110125000D01*
X108457619Y-110172619D01*
X108505238Y-110125000D01*
X108457619Y-110077380D01*
X108457619Y-110172619D01*
X108933809Y-111077380D02*
X108933809Y-110410714D01*
X108933809Y-110505952D02*
X108981428Y-110458333D01*
X109076666Y-110410714D01*
X109219523Y-110410714D01*
X109314761Y-110458333D01*
X109362380Y-110553571D01*
X109362380Y-111077380D01*
X109362380Y-110553571D02*
X109410000Y-110458333D01*
X109505238Y-110410714D01*
X109648095Y-110410714D01*
X109743333Y-110458333D01*
X109790952Y-110553571D01*
X109790952Y-111077380D01*
X110648095Y-111029761D02*
X110552857Y-111077380D01*
X110362380Y-111077380D01*
X110267142Y-111029761D01*
X110219523Y-110934523D01*
X110219523Y-110553571D01*
X110267142Y-110458333D01*
X110362380Y-110410714D01*
X110552857Y-110410714D01*
X110648095Y-110458333D01*
X110695714Y-110553571D01*
X110695714Y-110648809D01*
X110219523Y-110744047D01*
X111124285Y-110410714D02*
X111124285Y-111077380D01*
X111124285Y-110505952D02*
X111171904Y-110458333D01*
X111267142Y-110410714D01*
X111410000Y-110410714D01*
X111505238Y-110458333D01*
X111552857Y-110553571D01*
X111552857Y-111077380D01*
X111886190Y-110410714D02*
X112267142Y-110410714D01*
X112029047Y-110077380D02*
X112029047Y-110934523D01*
X112076666Y-111029761D01*
X112171904Y-111077380D01*
X112267142Y-111077380D01*
X113029047Y-111077380D02*
X113029047Y-110553571D01*
X112981428Y-110458333D01*
X112886190Y-110410714D01*
X112695714Y-110410714D01*
X112600476Y-110458333D01*
X113029047Y-111029761D02*
X112933809Y-111077380D01*
X112695714Y-111077380D01*
X112600476Y-111029761D01*
X112552857Y-110934523D01*
X112552857Y-110839285D01*
X112600476Y-110744047D01*
X112695714Y-110696428D01*
X112933809Y-110696428D01*
X113029047Y-110648809D01*
X113933809Y-111029761D02*
X113838571Y-111077380D01*
X113648095Y-111077380D01*
X113552857Y-111029761D01*
X113505238Y-110982142D01*
X113457619Y-110886904D01*
X113457619Y-110601190D01*
X113505238Y-110505952D01*
X113552857Y-110458333D01*
X113648095Y-110410714D01*
X113838571Y-110410714D01*
X113933809Y-110458333D01*
X114362380Y-111077380D02*
X114362380Y-110410714D01*
X114362380Y-110077380D02*
X114314761Y-110125000D01*
X114362380Y-110172619D01*
X114410000Y-110125000D01*
X114362380Y-110077380D01*
X114362380Y-110172619D01*
X114981428Y-111077380D02*
X114886190Y-111029761D01*
X114838571Y-110982142D01*
X114790952Y-110886904D01*
X114790952Y-110601190D01*
X114838571Y-110505952D01*
X114886190Y-110458333D01*
X114981428Y-110410714D01*
X115124285Y-110410714D01*
X115219523Y-110458333D01*
X115267142Y-110505952D01*
X115314761Y-110601190D01*
X115314761Y-110886904D01*
X115267142Y-110982142D01*
X115219523Y-111029761D01*
X115124285Y-111077380D01*
X114981428Y-111077380D01*
X115743333Y-110410714D02*
X115743333Y-111077380D01*
X115743333Y-110505952D02*
X115790952Y-110458333D01*
X115886190Y-110410714D01*
X116029047Y-110410714D01*
X116124285Y-110458333D01*
X116171904Y-110553571D01*
X116171904Y-111077380D01*
X117171904Y-111077380D02*
X116600476Y-111077380D01*
X116886190Y-111077380D02*
X116886190Y-110077380D01*
X116790952Y-110220238D01*
X116695714Y-110315476D01*
X116600476Y-110363095D01*
%TO.C,ServoWater1*%
X158404761Y-96780952D02*
X158452380Y-96638095D01*
X158452380Y-96400000D01*
X158404761Y-96304761D01*
X158357142Y-96257142D01*
X158261904Y-96209523D01*
X158166666Y-96209523D01*
X158071428Y-96257142D01*
X158023809Y-96304761D01*
X157976190Y-96400000D01*
X157928571Y-96590476D01*
X157880952Y-96685714D01*
X157833333Y-96733333D01*
X157738095Y-96780952D01*
X157642857Y-96780952D01*
X157547619Y-96733333D01*
X157500000Y-96685714D01*
X157452380Y-96590476D01*
X157452380Y-96352380D01*
X157500000Y-96209523D01*
X158404761Y-95400000D02*
X158452380Y-95495238D01*
X158452380Y-95685714D01*
X158404761Y-95780952D01*
X158309523Y-95828571D01*
X157928571Y-95828571D01*
X157833333Y-95780952D01*
X157785714Y-95685714D01*
X157785714Y-95495238D01*
X157833333Y-95400000D01*
X157928571Y-95352380D01*
X158023809Y-95352380D01*
X158119047Y-95828571D01*
X158452380Y-94923809D02*
X157785714Y-94923809D01*
X157976190Y-94923809D02*
X157880952Y-94876190D01*
X157833333Y-94828571D01*
X157785714Y-94733333D01*
X157785714Y-94638095D01*
X157785714Y-94400000D02*
X158452380Y-94161904D01*
X157785714Y-93923809D01*
X158452380Y-93400000D02*
X158404761Y-93495238D01*
X158357142Y-93542857D01*
X158261904Y-93590476D01*
X157976190Y-93590476D01*
X157880952Y-93542857D01*
X157833333Y-93495238D01*
X157785714Y-93400000D01*
X157785714Y-93257142D01*
X157833333Y-93161904D01*
X157880952Y-93114285D01*
X157976190Y-93066666D01*
X158261904Y-93066666D01*
X158357142Y-93114285D01*
X158404761Y-93161904D01*
X158452380Y-93257142D01*
X158452380Y-93400000D01*
X157452380Y-92733333D02*
X158452380Y-92495238D01*
X157738095Y-92304761D01*
X158452380Y-92114285D01*
X157452380Y-91876190D01*
X158452380Y-91066666D02*
X157928571Y-91066666D01*
X157833333Y-91114285D01*
X157785714Y-91209523D01*
X157785714Y-91400000D01*
X157833333Y-91495238D01*
X158404761Y-91066666D02*
X158452380Y-91161904D01*
X158452380Y-91400000D01*
X158404761Y-91495238D01*
X158309523Y-91542857D01*
X158214285Y-91542857D01*
X158119047Y-91495238D01*
X158071428Y-91400000D01*
X158071428Y-91161904D01*
X158023809Y-91066666D01*
X157785714Y-90733333D02*
X157785714Y-90352380D01*
X157452380Y-90590476D02*
X158309523Y-90590476D01*
X158404761Y-90542857D01*
X158452380Y-90447619D01*
X158452380Y-90352380D01*
X158404761Y-89638095D02*
X158452380Y-89733333D01*
X158452380Y-89923809D01*
X158404761Y-90019047D01*
X158309523Y-90066666D01*
X157928571Y-90066666D01*
X157833333Y-90019047D01*
X157785714Y-89923809D01*
X157785714Y-89733333D01*
X157833333Y-89638095D01*
X157928571Y-89590476D01*
X158023809Y-89590476D01*
X158119047Y-90066666D01*
X158452380Y-89161904D02*
X157785714Y-89161904D01*
X157976190Y-89161904D02*
X157880952Y-89114285D01*
X157833333Y-89066666D01*
X157785714Y-88971428D01*
X157785714Y-88876190D01*
X158452380Y-88019047D02*
X158452380Y-88590476D01*
X158452380Y-88304761D02*
X157452380Y-88304761D01*
X157595238Y-88400000D01*
X157690476Y-88495238D01*
X157738095Y-88590476D01*
%TO.C,Screw1*%
X108977619Y-65254761D02*
X109120476Y-65302380D01*
X109358571Y-65302380D01*
X109453809Y-65254761D01*
X109501428Y-65207142D01*
X109549047Y-65111904D01*
X109549047Y-65016666D01*
X109501428Y-64921428D01*
X109453809Y-64873809D01*
X109358571Y-64826190D01*
X109168095Y-64778571D01*
X109072857Y-64730952D01*
X109025238Y-64683333D01*
X108977619Y-64588095D01*
X108977619Y-64492857D01*
X109025238Y-64397619D01*
X109072857Y-64350000D01*
X109168095Y-64302380D01*
X109406190Y-64302380D01*
X109549047Y-64350000D01*
X110406190Y-65254761D02*
X110310952Y-65302380D01*
X110120476Y-65302380D01*
X110025238Y-65254761D01*
X109977619Y-65207142D01*
X109930000Y-65111904D01*
X109930000Y-64826190D01*
X109977619Y-64730952D01*
X110025238Y-64683333D01*
X110120476Y-64635714D01*
X110310952Y-64635714D01*
X110406190Y-64683333D01*
X110834761Y-65302380D02*
X110834761Y-64635714D01*
X110834761Y-64826190D02*
X110882380Y-64730952D01*
X110930000Y-64683333D01*
X111025238Y-64635714D01*
X111120476Y-64635714D01*
X111834761Y-65254761D02*
X111739523Y-65302380D01*
X111549047Y-65302380D01*
X111453809Y-65254761D01*
X111406190Y-65159523D01*
X111406190Y-64778571D01*
X111453809Y-64683333D01*
X111549047Y-64635714D01*
X111739523Y-64635714D01*
X111834761Y-64683333D01*
X111882380Y-64778571D01*
X111882380Y-64873809D01*
X111406190Y-64969047D01*
X112215714Y-64635714D02*
X112406190Y-65302380D01*
X112596666Y-64826190D01*
X112787142Y-65302380D01*
X112977619Y-64635714D01*
X113882380Y-65302380D02*
X113310952Y-65302380D01*
X113596666Y-65302380D02*
X113596666Y-64302380D01*
X113501428Y-64445238D01*
X113406190Y-64540476D01*
X113310952Y-64588095D01*
%TO.C,R1*%
X105602380Y-75566666D02*
X105126190Y-75900000D01*
X105602380Y-76138095D02*
X104602380Y-76138095D01*
X104602380Y-75757142D01*
X104650000Y-75661904D01*
X104697619Y-75614285D01*
X104792857Y-75566666D01*
X104935714Y-75566666D01*
X105030952Y-75614285D01*
X105078571Y-75661904D01*
X105126190Y-75757142D01*
X105126190Y-76138095D01*
X105602380Y-74614285D02*
X105602380Y-75185714D01*
X105602380Y-74900000D02*
X104602380Y-74900000D01*
X104745238Y-74995238D01*
X104840476Y-75090476D01*
X104888095Y-75185714D01*
%TO.C,ServoWater2*%
X152804761Y-96780952D02*
X152852380Y-96638095D01*
X152852380Y-96400000D01*
X152804761Y-96304761D01*
X152757142Y-96257142D01*
X152661904Y-96209523D01*
X152566666Y-96209523D01*
X152471428Y-96257142D01*
X152423809Y-96304761D01*
X152376190Y-96400000D01*
X152328571Y-96590476D01*
X152280952Y-96685714D01*
X152233333Y-96733333D01*
X152138095Y-96780952D01*
X152042857Y-96780952D01*
X151947619Y-96733333D01*
X151900000Y-96685714D01*
X151852380Y-96590476D01*
X151852380Y-96352380D01*
X151900000Y-96209523D01*
X152804761Y-95400000D02*
X152852380Y-95495238D01*
X152852380Y-95685714D01*
X152804761Y-95780952D01*
X152709523Y-95828571D01*
X152328571Y-95828571D01*
X152233333Y-95780952D01*
X152185714Y-95685714D01*
X152185714Y-95495238D01*
X152233333Y-95400000D01*
X152328571Y-95352380D01*
X152423809Y-95352380D01*
X152519047Y-95828571D01*
X152852380Y-94923809D02*
X152185714Y-94923809D01*
X152376190Y-94923809D02*
X152280952Y-94876190D01*
X152233333Y-94828571D01*
X152185714Y-94733333D01*
X152185714Y-94638095D01*
X152185714Y-94400000D02*
X152852380Y-94161904D01*
X152185714Y-93923809D01*
X152852380Y-93400000D02*
X152804761Y-93495238D01*
X152757142Y-93542857D01*
X152661904Y-93590476D01*
X152376190Y-93590476D01*
X152280952Y-93542857D01*
X152233333Y-93495238D01*
X152185714Y-93400000D01*
X152185714Y-93257142D01*
X152233333Y-93161904D01*
X152280952Y-93114285D01*
X152376190Y-93066666D01*
X152661904Y-93066666D01*
X152757142Y-93114285D01*
X152804761Y-93161904D01*
X152852380Y-93257142D01*
X152852380Y-93400000D01*
X151852380Y-92733333D02*
X152852380Y-92495238D01*
X152138095Y-92304761D01*
X152852380Y-92114285D01*
X151852380Y-91876190D01*
X152852380Y-91066666D02*
X152328571Y-91066666D01*
X152233333Y-91114285D01*
X152185714Y-91209523D01*
X152185714Y-91400000D01*
X152233333Y-91495238D01*
X152804761Y-91066666D02*
X152852380Y-91161904D01*
X152852380Y-91400000D01*
X152804761Y-91495238D01*
X152709523Y-91542857D01*
X152614285Y-91542857D01*
X152519047Y-91495238D01*
X152471428Y-91400000D01*
X152471428Y-91161904D01*
X152423809Y-91066666D01*
X152185714Y-90733333D02*
X152185714Y-90352380D01*
X151852380Y-90590476D02*
X152709523Y-90590476D01*
X152804761Y-90542857D01*
X152852380Y-90447619D01*
X152852380Y-90352380D01*
X152804761Y-89638095D02*
X152852380Y-89733333D01*
X152852380Y-89923809D01*
X152804761Y-90019047D01*
X152709523Y-90066666D01*
X152328571Y-90066666D01*
X152233333Y-90019047D01*
X152185714Y-89923809D01*
X152185714Y-89733333D01*
X152233333Y-89638095D01*
X152328571Y-89590476D01*
X152423809Y-89590476D01*
X152519047Y-90066666D01*
X152852380Y-89161904D02*
X152185714Y-89161904D01*
X152376190Y-89161904D02*
X152280952Y-89114285D01*
X152233333Y-89066666D01*
X152185714Y-88971428D01*
X152185714Y-88876190D01*
X151947619Y-88590476D02*
X151900000Y-88542857D01*
X151852380Y-88447619D01*
X151852380Y-88209523D01*
X151900000Y-88114285D01*
X151947619Y-88066666D01*
X152042857Y-88019047D01*
X152138095Y-88019047D01*
X152280952Y-88066666D01*
X152852380Y-88638095D01*
X152852380Y-88019047D01*
%TO.C,D3*%
X103661904Y-91972380D02*
X103661904Y-90972380D01*
X103900000Y-90972380D01*
X104042857Y-91020000D01*
X104138095Y-91115238D01*
X104185714Y-91210476D01*
X104233333Y-91400952D01*
X104233333Y-91543809D01*
X104185714Y-91734285D01*
X104138095Y-91829523D01*
X104042857Y-91924761D01*
X103900000Y-91972380D01*
X103661904Y-91972380D01*
X104566666Y-90972380D02*
X105185714Y-90972380D01*
X104852380Y-91353333D01*
X104995238Y-91353333D01*
X105090476Y-91400952D01*
X105138095Y-91448571D01*
X105185714Y-91543809D01*
X105185714Y-91781904D01*
X105138095Y-91877142D01*
X105090476Y-91924761D01*
X104995238Y-91972380D01*
X104709523Y-91972380D01*
X104614285Y-91924761D01*
X104566666Y-91877142D01*
%TO.C,S1*%
X107328095Y-99984761D02*
X107470952Y-100032380D01*
X107709047Y-100032380D01*
X107804285Y-99984761D01*
X107851904Y-99937142D01*
X107899523Y-99841904D01*
X107899523Y-99746666D01*
X107851904Y-99651428D01*
X107804285Y-99603809D01*
X107709047Y-99556190D01*
X107518571Y-99508571D01*
X107423333Y-99460952D01*
X107375714Y-99413333D01*
X107328095Y-99318095D01*
X107328095Y-99222857D01*
X107375714Y-99127619D01*
X107423333Y-99080000D01*
X107518571Y-99032380D01*
X107756666Y-99032380D01*
X107899523Y-99080000D01*
X108851904Y-100032380D02*
X108280476Y-100032380D01*
X108566190Y-100032380D02*
X108566190Y-99032380D01*
X108470952Y-99175238D01*
X108375714Y-99270476D01*
X108280476Y-99318095D01*
%TO.C,WaterS1*%
X138342857Y-123852380D02*
X138580952Y-124852380D01*
X138771428Y-124138095D01*
X138961904Y-124852380D01*
X139200000Y-123852380D01*
X140009523Y-124852380D02*
X140009523Y-124328571D01*
X139961904Y-124233333D01*
X139866666Y-124185714D01*
X139676190Y-124185714D01*
X139580952Y-124233333D01*
X140009523Y-124804761D02*
X139914285Y-124852380D01*
X139676190Y-124852380D01*
X139580952Y-124804761D01*
X139533333Y-124709523D01*
X139533333Y-124614285D01*
X139580952Y-124519047D01*
X139676190Y-124471428D01*
X139914285Y-124471428D01*
X140009523Y-124423809D01*
X140342857Y-124185714D02*
X140723809Y-124185714D01*
X140485714Y-123852380D02*
X140485714Y-124709523D01*
X140533333Y-124804761D01*
X140628571Y-124852380D01*
X140723809Y-124852380D01*
X141438095Y-124804761D02*
X141342857Y-124852380D01*
X141152380Y-124852380D01*
X141057142Y-124804761D01*
X141009523Y-124709523D01*
X141009523Y-124328571D01*
X141057142Y-124233333D01*
X141152380Y-124185714D01*
X141342857Y-124185714D01*
X141438095Y-124233333D01*
X141485714Y-124328571D01*
X141485714Y-124423809D01*
X141009523Y-124519047D01*
X141914285Y-124852380D02*
X141914285Y-124185714D01*
X141914285Y-124376190D02*
X141961904Y-124280952D01*
X142009523Y-124233333D01*
X142104761Y-124185714D01*
X142200000Y-124185714D01*
X142485714Y-124804761D02*
X142628571Y-124852380D01*
X142866666Y-124852380D01*
X142961904Y-124804761D01*
X143009523Y-124757142D01*
X143057142Y-124661904D01*
X143057142Y-124566666D01*
X143009523Y-124471428D01*
X142961904Y-124423809D01*
X142866666Y-124376190D01*
X142676190Y-124328571D01*
X142580952Y-124280952D01*
X142533333Y-124233333D01*
X142485714Y-124138095D01*
X142485714Y-124042857D01*
X142533333Y-123947619D01*
X142580952Y-123900000D01*
X142676190Y-123852380D01*
X142914285Y-123852380D01*
X143057142Y-123900000D01*
X144009523Y-124852380D02*
X143438095Y-124852380D01*
X143723809Y-124852380D02*
X143723809Y-123852380D01*
X143628571Y-123995238D01*
X143533333Y-124090476D01*
X143438095Y-124138095D01*
%TO.C,U2*%
X114877619Y-72383095D02*
X114068095Y-72383095D01*
X113972857Y-72430714D01*
X113925238Y-72478333D01*
X113877619Y-72573571D01*
X113877619Y-72764047D01*
X113925238Y-72859285D01*
X113972857Y-72906904D01*
X114068095Y-72954523D01*
X114877619Y-72954523D01*
X114782380Y-73383095D02*
X114830000Y-73430714D01*
X114877619Y-73525952D01*
X114877619Y-73764047D01*
X114830000Y-73859285D01*
X114782380Y-73906904D01*
X114687142Y-73954523D01*
X114591904Y-73954523D01*
X114449047Y-73906904D01*
X113877619Y-73335476D01*
X113877619Y-73954523D01*
%TO.C,WaterS2*%
X137617857Y-117452380D02*
X137855952Y-118452380D01*
X138046428Y-117738095D01*
X138236904Y-118452380D01*
X138475000Y-117452380D01*
X139284523Y-118452380D02*
X139284523Y-117928571D01*
X139236904Y-117833333D01*
X139141666Y-117785714D01*
X138951190Y-117785714D01*
X138855952Y-117833333D01*
X139284523Y-118404761D02*
X139189285Y-118452380D01*
X138951190Y-118452380D01*
X138855952Y-118404761D01*
X138808333Y-118309523D01*
X138808333Y-118214285D01*
X138855952Y-118119047D01*
X138951190Y-118071428D01*
X139189285Y-118071428D01*
X139284523Y-118023809D01*
X139617857Y-117785714D02*
X139998809Y-117785714D01*
X139760714Y-117452380D02*
X139760714Y-118309523D01*
X139808333Y-118404761D01*
X139903571Y-118452380D01*
X139998809Y-118452380D01*
X140713095Y-118404761D02*
X140617857Y-118452380D01*
X140427380Y-118452380D01*
X140332142Y-118404761D01*
X140284523Y-118309523D01*
X140284523Y-117928571D01*
X140332142Y-117833333D01*
X140427380Y-117785714D01*
X140617857Y-117785714D01*
X140713095Y-117833333D01*
X140760714Y-117928571D01*
X140760714Y-118023809D01*
X140284523Y-118119047D01*
X141189285Y-118452380D02*
X141189285Y-117785714D01*
X141189285Y-117976190D02*
X141236904Y-117880952D01*
X141284523Y-117833333D01*
X141379761Y-117785714D01*
X141475000Y-117785714D01*
X141760714Y-118404761D02*
X141903571Y-118452380D01*
X142141666Y-118452380D01*
X142236904Y-118404761D01*
X142284523Y-118357142D01*
X142332142Y-118261904D01*
X142332142Y-118166666D01*
X142284523Y-118071428D01*
X142236904Y-118023809D01*
X142141666Y-117976190D01*
X141951190Y-117928571D01*
X141855952Y-117880952D01*
X141808333Y-117833333D01*
X141760714Y-117738095D01*
X141760714Y-117642857D01*
X141808333Y-117547619D01*
X141855952Y-117500000D01*
X141951190Y-117452380D01*
X142189285Y-117452380D01*
X142332142Y-117500000D01*
X142713095Y-117547619D02*
X142760714Y-117500000D01*
X142855952Y-117452380D01*
X143094047Y-117452380D01*
X143189285Y-117500000D01*
X143236904Y-117547619D01*
X143284523Y-117642857D01*
X143284523Y-117738095D01*
X143236904Y-117880952D01*
X142665476Y-118452380D01*
X143284523Y-118452380D01*
%TO.C,ServoFood2*%
X152204761Y-108719047D02*
X152252380Y-108576190D01*
X152252380Y-108338095D01*
X152204761Y-108242857D01*
X152157142Y-108195238D01*
X152061904Y-108147619D01*
X151966666Y-108147619D01*
X151871428Y-108195238D01*
X151823809Y-108242857D01*
X151776190Y-108338095D01*
X151728571Y-108528571D01*
X151680952Y-108623809D01*
X151633333Y-108671428D01*
X151538095Y-108719047D01*
X151442857Y-108719047D01*
X151347619Y-108671428D01*
X151300000Y-108623809D01*
X151252380Y-108528571D01*
X151252380Y-108290476D01*
X151300000Y-108147619D01*
X152204761Y-107338095D02*
X152252380Y-107433333D01*
X152252380Y-107623809D01*
X152204761Y-107719047D01*
X152109523Y-107766666D01*
X151728571Y-107766666D01*
X151633333Y-107719047D01*
X151585714Y-107623809D01*
X151585714Y-107433333D01*
X151633333Y-107338095D01*
X151728571Y-107290476D01*
X151823809Y-107290476D01*
X151919047Y-107766666D01*
X152252380Y-106861904D02*
X151585714Y-106861904D01*
X151776190Y-106861904D02*
X151680952Y-106814285D01*
X151633333Y-106766666D01*
X151585714Y-106671428D01*
X151585714Y-106576190D01*
X151585714Y-106338095D02*
X152252380Y-106100000D01*
X151585714Y-105861904D01*
X152252380Y-105338095D02*
X152204761Y-105433333D01*
X152157142Y-105480952D01*
X152061904Y-105528571D01*
X151776190Y-105528571D01*
X151680952Y-105480952D01*
X151633333Y-105433333D01*
X151585714Y-105338095D01*
X151585714Y-105195238D01*
X151633333Y-105100000D01*
X151680952Y-105052380D01*
X151776190Y-105004761D01*
X152061904Y-105004761D01*
X152157142Y-105052380D01*
X152204761Y-105100000D01*
X152252380Y-105195238D01*
X152252380Y-105338095D01*
X151728571Y-104242857D02*
X151728571Y-104576190D01*
X152252380Y-104576190D02*
X151252380Y-104576190D01*
X151252380Y-104100000D01*
X152252380Y-103576190D02*
X152204761Y-103671428D01*
X152157142Y-103719047D01*
X152061904Y-103766666D01*
X151776190Y-103766666D01*
X151680952Y-103719047D01*
X151633333Y-103671428D01*
X151585714Y-103576190D01*
X151585714Y-103433333D01*
X151633333Y-103338095D01*
X151680952Y-103290476D01*
X151776190Y-103242857D01*
X152061904Y-103242857D01*
X152157142Y-103290476D01*
X152204761Y-103338095D01*
X152252380Y-103433333D01*
X152252380Y-103576190D01*
X152252380Y-102671428D02*
X152204761Y-102766666D01*
X152157142Y-102814285D01*
X152061904Y-102861904D01*
X151776190Y-102861904D01*
X151680952Y-102814285D01*
X151633333Y-102766666D01*
X151585714Y-102671428D01*
X151585714Y-102528571D01*
X151633333Y-102433333D01*
X151680952Y-102385714D01*
X151776190Y-102338095D01*
X152061904Y-102338095D01*
X152157142Y-102385714D01*
X152204761Y-102433333D01*
X152252380Y-102528571D01*
X152252380Y-102671428D01*
X152252380Y-101480952D02*
X151252380Y-101480952D01*
X152204761Y-101480952D02*
X152252380Y-101576190D01*
X152252380Y-101766666D01*
X152204761Y-101861904D01*
X152157142Y-101909523D01*
X152061904Y-101957142D01*
X151776190Y-101957142D01*
X151680952Y-101909523D01*
X151633333Y-101861904D01*
X151585714Y-101766666D01*
X151585714Y-101576190D01*
X151633333Y-101480952D01*
X151347619Y-101052380D02*
X151300000Y-101004761D01*
X151252380Y-100909523D01*
X151252380Y-100671428D01*
X151300000Y-100576190D01*
X151347619Y-100528571D01*
X151442857Y-100480952D01*
X151538095Y-100480952D01*
X151680952Y-100528571D01*
X152252380Y-101100000D01*
X152252380Y-100480952D01*
%TO.C,R5*%
X104433333Y-96802380D02*
X104100000Y-96326190D01*
X103861904Y-96802380D02*
X103861904Y-95802380D01*
X104242857Y-95802380D01*
X104338095Y-95850000D01*
X104385714Y-95897619D01*
X104433333Y-95992857D01*
X104433333Y-96135714D01*
X104385714Y-96230952D01*
X104338095Y-96278571D01*
X104242857Y-96326190D01*
X103861904Y-96326190D01*
X105338095Y-95802380D02*
X104861904Y-95802380D01*
X104814285Y-96278571D01*
X104861904Y-96230952D01*
X104957142Y-96183333D01*
X105195238Y-96183333D01*
X105290476Y-96230952D01*
X105338095Y-96278571D01*
X105385714Y-96373809D01*
X105385714Y-96611904D01*
X105338095Y-96707142D01*
X105290476Y-96754761D01*
X105195238Y-96802380D01*
X104957142Y-96802380D01*
X104861904Y-96754761D01*
X104814285Y-96707142D01*
%TO.C,R4*%
X110633333Y-97002380D02*
X110300000Y-96526190D01*
X110061904Y-97002380D02*
X110061904Y-96002380D01*
X110442857Y-96002380D01*
X110538095Y-96050000D01*
X110585714Y-96097619D01*
X110633333Y-96192857D01*
X110633333Y-96335714D01*
X110585714Y-96430952D01*
X110538095Y-96478571D01*
X110442857Y-96526190D01*
X110061904Y-96526190D01*
X111490476Y-96335714D02*
X111490476Y-97002380D01*
X111252380Y-95954761D02*
X111014285Y-96669047D01*
X111633333Y-96669047D01*
%TO.C,D2*%
X110261904Y-91972380D02*
X110261904Y-90972380D01*
X110500000Y-90972380D01*
X110642857Y-91020000D01*
X110738095Y-91115238D01*
X110785714Y-91210476D01*
X110833333Y-91400952D01*
X110833333Y-91543809D01*
X110785714Y-91734285D01*
X110738095Y-91829523D01*
X110642857Y-91924761D01*
X110500000Y-91972380D01*
X110261904Y-91972380D01*
X111214285Y-91067619D02*
X111261904Y-91020000D01*
X111357142Y-90972380D01*
X111595238Y-90972380D01*
X111690476Y-91020000D01*
X111738095Y-91067619D01*
X111785714Y-91162857D01*
X111785714Y-91258095D01*
X111738095Y-91400952D01*
X111166666Y-91972380D01*
X111785714Y-91972380D01*
%TO.C,Esp32Cam1*%
X125880952Y-56128571D02*
X126214285Y-56128571D01*
X126357142Y-56652380D02*
X125880952Y-56652380D01*
X125880952Y-55652380D01*
X126357142Y-55652380D01*
X126738095Y-56604761D02*
X126833333Y-56652380D01*
X127023809Y-56652380D01*
X127119047Y-56604761D01*
X127166666Y-56509523D01*
X127166666Y-56461904D01*
X127119047Y-56366666D01*
X127023809Y-56319047D01*
X126880952Y-56319047D01*
X126785714Y-56271428D01*
X126738095Y-56176190D01*
X126738095Y-56128571D01*
X126785714Y-56033333D01*
X126880952Y-55985714D01*
X127023809Y-55985714D01*
X127119047Y-56033333D01*
X127595238Y-55985714D02*
X127595238Y-56985714D01*
X127595238Y-56033333D02*
X127690476Y-55985714D01*
X127880952Y-55985714D01*
X127976190Y-56033333D01*
X128023809Y-56080952D01*
X128071428Y-56176190D01*
X128071428Y-56461904D01*
X128023809Y-56557142D01*
X127976190Y-56604761D01*
X127880952Y-56652380D01*
X127690476Y-56652380D01*
X127595238Y-56604761D01*
X128404761Y-55652380D02*
X129023809Y-55652380D01*
X128690476Y-56033333D01*
X128833333Y-56033333D01*
X128928571Y-56080952D01*
X128976190Y-56128571D01*
X129023809Y-56223809D01*
X129023809Y-56461904D01*
X128976190Y-56557142D01*
X128928571Y-56604761D01*
X128833333Y-56652380D01*
X128547619Y-56652380D01*
X128452380Y-56604761D01*
X128404761Y-56557142D01*
X129404761Y-55747619D02*
X129452380Y-55700000D01*
X129547619Y-55652380D01*
X129785714Y-55652380D01*
X129880952Y-55700000D01*
X129928571Y-55747619D01*
X129976190Y-55842857D01*
X129976190Y-55938095D01*
X129928571Y-56080952D01*
X129357142Y-56652380D01*
X129976190Y-56652380D01*
X130976190Y-56557142D02*
X130928571Y-56604761D01*
X130785714Y-56652380D01*
X130690476Y-56652380D01*
X130547619Y-56604761D01*
X130452380Y-56509523D01*
X130404761Y-56414285D01*
X130357142Y-56223809D01*
X130357142Y-56080952D01*
X130404761Y-55890476D01*
X130452380Y-55795238D01*
X130547619Y-55700000D01*
X130690476Y-55652380D01*
X130785714Y-55652380D01*
X130928571Y-55700000D01*
X130976190Y-55747619D01*
X131833333Y-56652380D02*
X131833333Y-56128571D01*
X131785714Y-56033333D01*
X131690476Y-55985714D01*
X131500000Y-55985714D01*
X131404761Y-56033333D01*
X131833333Y-56604761D02*
X131738095Y-56652380D01*
X131500000Y-56652380D01*
X131404761Y-56604761D01*
X131357142Y-56509523D01*
X131357142Y-56414285D01*
X131404761Y-56319047D01*
X131500000Y-56271428D01*
X131738095Y-56271428D01*
X131833333Y-56223809D01*
X132309523Y-56652380D02*
X132309523Y-55985714D01*
X132309523Y-56080952D02*
X132357142Y-56033333D01*
X132452380Y-55985714D01*
X132595238Y-55985714D01*
X132690476Y-56033333D01*
X132738095Y-56128571D01*
X132738095Y-56652380D01*
X132738095Y-56128571D02*
X132785714Y-56033333D01*
X132880952Y-55985714D01*
X133023809Y-55985714D01*
X133119047Y-56033333D01*
X133166666Y-56128571D01*
X133166666Y-56652380D01*
X134166666Y-56652380D02*
X133595238Y-56652380D01*
X133880952Y-56652380D02*
X133880952Y-55652380D01*
X133785714Y-55795238D01*
X133690476Y-55890476D01*
X133595238Y-55938095D01*
%TO.C,ServoFood1*%
X158004761Y-108119047D02*
X158052380Y-107976190D01*
X158052380Y-107738095D01*
X158004761Y-107642857D01*
X157957142Y-107595238D01*
X157861904Y-107547619D01*
X157766666Y-107547619D01*
X157671428Y-107595238D01*
X157623809Y-107642857D01*
X157576190Y-107738095D01*
X157528571Y-107928571D01*
X157480952Y-108023809D01*
X157433333Y-108071428D01*
X157338095Y-108119047D01*
X157242857Y-108119047D01*
X157147619Y-108071428D01*
X157100000Y-108023809D01*
X157052380Y-107928571D01*
X157052380Y-107690476D01*
X157100000Y-107547619D01*
X158004761Y-106738095D02*
X158052380Y-106833333D01*
X158052380Y-107023809D01*
X158004761Y-107119047D01*
X157909523Y-107166666D01*
X157528571Y-107166666D01*
X157433333Y-107119047D01*
X157385714Y-107023809D01*
X157385714Y-106833333D01*
X157433333Y-106738095D01*
X157528571Y-106690476D01*
X157623809Y-106690476D01*
X157719047Y-107166666D01*
X158052380Y-106261904D02*
X157385714Y-106261904D01*
X157576190Y-106261904D02*
X157480952Y-106214285D01*
X157433333Y-106166666D01*
X157385714Y-106071428D01*
X157385714Y-105976190D01*
X157385714Y-105738095D02*
X158052380Y-105500000D01*
X157385714Y-105261904D01*
X158052380Y-104738095D02*
X158004761Y-104833333D01*
X157957142Y-104880952D01*
X157861904Y-104928571D01*
X157576190Y-104928571D01*
X157480952Y-104880952D01*
X157433333Y-104833333D01*
X157385714Y-104738095D01*
X157385714Y-104595238D01*
X157433333Y-104500000D01*
X157480952Y-104452380D01*
X157576190Y-104404761D01*
X157861904Y-104404761D01*
X157957142Y-104452380D01*
X158004761Y-104500000D01*
X158052380Y-104595238D01*
X158052380Y-104738095D01*
X157528571Y-103642857D02*
X157528571Y-103976190D01*
X158052380Y-103976190D02*
X157052380Y-103976190D01*
X157052380Y-103500000D01*
X158052380Y-102976190D02*
X158004761Y-103071428D01*
X157957142Y-103119047D01*
X157861904Y-103166666D01*
X157576190Y-103166666D01*
X157480952Y-103119047D01*
X157433333Y-103071428D01*
X157385714Y-102976190D01*
X157385714Y-102833333D01*
X157433333Y-102738095D01*
X157480952Y-102690476D01*
X157576190Y-102642857D01*
X157861904Y-102642857D01*
X157957142Y-102690476D01*
X158004761Y-102738095D01*
X158052380Y-102833333D01*
X158052380Y-102976190D01*
X158052380Y-102071428D02*
X158004761Y-102166666D01*
X157957142Y-102214285D01*
X157861904Y-102261904D01*
X157576190Y-102261904D01*
X157480952Y-102214285D01*
X157433333Y-102166666D01*
X157385714Y-102071428D01*
X157385714Y-101928571D01*
X157433333Y-101833333D01*
X157480952Y-101785714D01*
X157576190Y-101738095D01*
X157861904Y-101738095D01*
X157957142Y-101785714D01*
X158004761Y-101833333D01*
X158052380Y-101928571D01*
X158052380Y-102071428D01*
X158052380Y-100880952D02*
X157052380Y-100880952D01*
X158004761Y-100880952D02*
X158052380Y-100976190D01*
X158052380Y-101166666D01*
X158004761Y-101261904D01*
X157957142Y-101309523D01*
X157861904Y-101357142D01*
X157576190Y-101357142D01*
X157480952Y-101309523D01*
X157433333Y-101261904D01*
X157385714Y-101166666D01*
X157385714Y-100976190D01*
X157433333Y-100880952D01*
X158052380Y-99880952D02*
X158052380Y-100452380D01*
X158052380Y-100166666D02*
X157052380Y-100166666D01*
X157195238Y-100261904D01*
X157290476Y-100357142D01*
X157338095Y-100452380D01*
%TO.C,R2*%
X114712380Y-75801666D02*
X114236190Y-76135000D01*
X114712380Y-76373095D02*
X113712380Y-76373095D01*
X113712380Y-75992142D01*
X113760000Y-75896904D01*
X113807619Y-75849285D01*
X113902857Y-75801666D01*
X114045714Y-75801666D01*
X114140952Y-75849285D01*
X114188571Y-75896904D01*
X114236190Y-75992142D01*
X114236190Y-76373095D01*
X113807619Y-75420714D02*
X113760000Y-75373095D01*
X113712380Y-75277857D01*
X113712380Y-75039761D01*
X113760000Y-74944523D01*
X113807619Y-74896904D01*
X113902857Y-74849285D01*
X113998095Y-74849285D01*
X114140952Y-74896904D01*
X114712380Y-75468333D01*
X114712380Y-74849285D01*
%TO.C,Infrarroj6*%
X158252380Y-68885714D02*
X157252380Y-68885714D01*
X157585714Y-68409523D02*
X158252380Y-68409523D01*
X157680952Y-68409523D02*
X157633333Y-68361904D01*
X157585714Y-68266666D01*
X157585714Y-68123809D01*
X157633333Y-68028571D01*
X157728571Y-67980952D01*
X158252380Y-67980952D01*
X157585714Y-67647619D02*
X157585714Y-67266666D01*
X158252380Y-67504761D02*
X157395238Y-67504761D01*
X157300000Y-67457142D01*
X157252380Y-67361904D01*
X157252380Y-67266666D01*
X158252380Y-66933333D02*
X157585714Y-66933333D01*
X157776190Y-66933333D02*
X157680952Y-66885714D01*
X157633333Y-66838095D01*
X157585714Y-66742857D01*
X157585714Y-66647619D01*
X158252380Y-65885714D02*
X157728571Y-65885714D01*
X157633333Y-65933333D01*
X157585714Y-66028571D01*
X157585714Y-66219047D01*
X157633333Y-66314285D01*
X158204761Y-65885714D02*
X158252380Y-65980952D01*
X158252380Y-66219047D01*
X158204761Y-66314285D01*
X158109523Y-66361904D01*
X158014285Y-66361904D01*
X157919047Y-66314285D01*
X157871428Y-66219047D01*
X157871428Y-65980952D01*
X157823809Y-65885714D01*
X158252380Y-65409523D02*
X157585714Y-65409523D01*
X157776190Y-65409523D02*
X157680952Y-65361904D01*
X157633333Y-65314285D01*
X157585714Y-65219047D01*
X157585714Y-65123809D01*
X158252380Y-64790476D02*
X157585714Y-64790476D01*
X157776190Y-64790476D02*
X157680952Y-64742857D01*
X157633333Y-64695238D01*
X157585714Y-64600000D01*
X157585714Y-64504761D01*
X158252380Y-64028571D02*
X158204761Y-64123809D01*
X158157142Y-64171428D01*
X158061904Y-64219047D01*
X157776190Y-64219047D01*
X157680952Y-64171428D01*
X157633333Y-64123809D01*
X157585714Y-64028571D01*
X157585714Y-63885714D01*
X157633333Y-63790476D01*
X157680952Y-63742857D01*
X157776190Y-63695238D01*
X158061904Y-63695238D01*
X158157142Y-63742857D01*
X158204761Y-63790476D01*
X158252380Y-63885714D01*
X158252380Y-64028571D01*
X157585714Y-63266666D02*
X158442857Y-63266666D01*
X158538095Y-63314285D01*
X158585714Y-63409523D01*
X158585714Y-63457142D01*
X157252380Y-63266666D02*
X157300000Y-63314285D01*
X157347619Y-63266666D01*
X157300000Y-63219047D01*
X157252380Y-63266666D01*
X157347619Y-63266666D01*
X157252380Y-62361904D02*
X157252380Y-62552380D01*
X157300000Y-62647619D01*
X157347619Y-62695238D01*
X157490476Y-62790476D01*
X157680952Y-62838095D01*
X158061904Y-62838095D01*
X158157142Y-62790476D01*
X158204761Y-62742857D01*
X158252380Y-62647619D01*
X158252380Y-62457142D01*
X158204761Y-62361904D01*
X158157142Y-62314285D01*
X158061904Y-62266666D01*
X157823809Y-62266666D01*
X157728571Y-62314285D01*
X157680952Y-62361904D01*
X157633333Y-62457142D01*
X157633333Y-62647619D01*
X157680952Y-62742857D01*
X157728571Y-62790476D01*
X157823809Y-62838095D01*
%TO.C,Esp32*%
X139776190Y-55928571D02*
X140109523Y-55928571D01*
X140252380Y-56452380D02*
X139776190Y-56452380D01*
X139776190Y-55452380D01*
X140252380Y-55452380D01*
X140633333Y-56404761D02*
X140728571Y-56452380D01*
X140919047Y-56452380D01*
X141014285Y-56404761D01*
X141061904Y-56309523D01*
X141061904Y-56261904D01*
X141014285Y-56166666D01*
X140919047Y-56119047D01*
X140776190Y-56119047D01*
X140680952Y-56071428D01*
X140633333Y-55976190D01*
X140633333Y-55928571D01*
X140680952Y-55833333D01*
X140776190Y-55785714D01*
X140919047Y-55785714D01*
X141014285Y-55833333D01*
X141490476Y-55785714D02*
X141490476Y-56785714D01*
X141490476Y-55833333D02*
X141585714Y-55785714D01*
X141776190Y-55785714D01*
X141871428Y-55833333D01*
X141919047Y-55880952D01*
X141966666Y-55976190D01*
X141966666Y-56261904D01*
X141919047Y-56357142D01*
X141871428Y-56404761D01*
X141776190Y-56452380D01*
X141585714Y-56452380D01*
X141490476Y-56404761D01*
X142300000Y-55452380D02*
X142919047Y-55452380D01*
X142585714Y-55833333D01*
X142728571Y-55833333D01*
X142823809Y-55880952D01*
X142871428Y-55928571D01*
X142919047Y-56023809D01*
X142919047Y-56261904D01*
X142871428Y-56357142D01*
X142823809Y-56404761D01*
X142728571Y-56452380D01*
X142442857Y-56452380D01*
X142347619Y-56404761D01*
X142300000Y-56357142D01*
X143300000Y-55547619D02*
X143347619Y-55500000D01*
X143442857Y-55452380D01*
X143680952Y-55452380D01*
X143776190Y-55500000D01*
X143823809Y-55547619D01*
X143871428Y-55642857D01*
X143871428Y-55738095D01*
X143823809Y-55880952D01*
X143252380Y-56452380D01*
X143871428Y-56452380D01*
%TO.C,DispOled1*%
X152252380Y-69420000D02*
X151252380Y-69420000D01*
X151252380Y-69181904D01*
X151300000Y-69039047D01*
X151395238Y-68943809D01*
X151490476Y-68896190D01*
X151680952Y-68848571D01*
X151823809Y-68848571D01*
X152014285Y-68896190D01*
X152109523Y-68943809D01*
X152204761Y-69039047D01*
X152252380Y-69181904D01*
X152252380Y-69420000D01*
X152252380Y-68420000D02*
X151585714Y-68420000D01*
X151252380Y-68420000D02*
X151300000Y-68467619D01*
X151347619Y-68420000D01*
X151300000Y-68372380D01*
X151252380Y-68420000D01*
X151347619Y-68420000D01*
X152204761Y-67991428D02*
X152252380Y-67896190D01*
X152252380Y-67705714D01*
X152204761Y-67610476D01*
X152109523Y-67562857D01*
X152061904Y-67562857D01*
X151966666Y-67610476D01*
X151919047Y-67705714D01*
X151919047Y-67848571D01*
X151871428Y-67943809D01*
X151776190Y-67991428D01*
X151728571Y-67991428D01*
X151633333Y-67943809D01*
X151585714Y-67848571D01*
X151585714Y-67705714D01*
X151633333Y-67610476D01*
X151585714Y-67134285D02*
X152585714Y-67134285D01*
X151633333Y-67134285D02*
X151585714Y-67039047D01*
X151585714Y-66848571D01*
X151633333Y-66753333D01*
X151680952Y-66705714D01*
X151776190Y-66658095D01*
X152061904Y-66658095D01*
X152157142Y-66705714D01*
X152204761Y-66753333D01*
X152252380Y-66848571D01*
X152252380Y-67039047D01*
X152204761Y-67134285D01*
X151252380Y-66039047D02*
X151252380Y-65848571D01*
X151300000Y-65753333D01*
X151395238Y-65658095D01*
X151585714Y-65610476D01*
X151919047Y-65610476D01*
X152109523Y-65658095D01*
X152204761Y-65753333D01*
X152252380Y-65848571D01*
X152252380Y-66039047D01*
X152204761Y-66134285D01*
X152109523Y-66229523D01*
X151919047Y-66277142D01*
X151585714Y-66277142D01*
X151395238Y-66229523D01*
X151300000Y-66134285D01*
X151252380Y-66039047D01*
X152252380Y-65039047D02*
X152204761Y-65134285D01*
X152109523Y-65181904D01*
X151252380Y-65181904D01*
X152204761Y-64277142D02*
X152252380Y-64372380D01*
X152252380Y-64562857D01*
X152204761Y-64658095D01*
X152109523Y-64705714D01*
X151728571Y-64705714D01*
X151633333Y-64658095D01*
X151585714Y-64562857D01*
X151585714Y-64372380D01*
X151633333Y-64277142D01*
X151728571Y-64229523D01*
X151823809Y-64229523D01*
X151919047Y-64705714D01*
X152252380Y-63372380D02*
X151252380Y-63372380D01*
X152204761Y-63372380D02*
X152252380Y-63467619D01*
X152252380Y-63658095D01*
X152204761Y-63753333D01*
X152157142Y-63800952D01*
X152061904Y-63848571D01*
X151776190Y-63848571D01*
X151680952Y-63800952D01*
X151633333Y-63753333D01*
X151585714Y-63658095D01*
X151585714Y-63467619D01*
X151633333Y-63372380D01*
X152252380Y-62372380D02*
X152252380Y-62943809D01*
X152252380Y-62658095D02*
X151252380Y-62658095D01*
X151395238Y-62753333D01*
X151490476Y-62848571D01*
X151538095Y-62943809D01*
%TO.C,MotionS1*%
X152252380Y-81966666D02*
X151252380Y-81966666D01*
X151966666Y-81633333D01*
X151252380Y-81300000D01*
X152252380Y-81300000D01*
X152252380Y-80680952D02*
X152204761Y-80776190D01*
X152157142Y-80823809D01*
X152061904Y-80871428D01*
X151776190Y-80871428D01*
X151680952Y-80823809D01*
X151633333Y-80776190D01*
X151585714Y-80680952D01*
X151585714Y-80538095D01*
X151633333Y-80442857D01*
X151680952Y-80395238D01*
X151776190Y-80347619D01*
X152061904Y-80347619D01*
X152157142Y-80395238D01*
X152204761Y-80442857D01*
X152252380Y-80538095D01*
X152252380Y-80680952D01*
X151585714Y-80061904D02*
X151585714Y-79680952D01*
X151252380Y-79919047D02*
X152109523Y-79919047D01*
X152204761Y-79871428D01*
X152252380Y-79776190D01*
X152252380Y-79680952D01*
X152252380Y-79347619D02*
X151585714Y-79347619D01*
X151252380Y-79347619D02*
X151300000Y-79395238D01*
X151347619Y-79347619D01*
X151300000Y-79300000D01*
X151252380Y-79347619D01*
X151347619Y-79347619D01*
X152252380Y-78728571D02*
X152204761Y-78823809D01*
X152157142Y-78871428D01*
X152061904Y-78919047D01*
X151776190Y-78919047D01*
X151680952Y-78871428D01*
X151633333Y-78823809D01*
X151585714Y-78728571D01*
X151585714Y-78585714D01*
X151633333Y-78490476D01*
X151680952Y-78442857D01*
X151776190Y-78395238D01*
X152061904Y-78395238D01*
X152157142Y-78442857D01*
X152204761Y-78490476D01*
X152252380Y-78585714D01*
X152252380Y-78728571D01*
X151585714Y-77966666D02*
X152252380Y-77966666D01*
X151680952Y-77966666D02*
X151633333Y-77919047D01*
X151585714Y-77823809D01*
X151585714Y-77680952D01*
X151633333Y-77585714D01*
X151728571Y-77538095D01*
X152252380Y-77538095D01*
X152204761Y-77109523D02*
X152252380Y-76966666D01*
X152252380Y-76728571D01*
X152204761Y-76633333D01*
X152157142Y-76585714D01*
X152061904Y-76538095D01*
X151966666Y-76538095D01*
X151871428Y-76585714D01*
X151823809Y-76633333D01*
X151776190Y-76728571D01*
X151728571Y-76919047D01*
X151680952Y-77014285D01*
X151633333Y-77061904D01*
X151538095Y-77109523D01*
X151442857Y-77109523D01*
X151347619Y-77061904D01*
X151300000Y-77014285D01*
X151252380Y-76919047D01*
X151252380Y-76680952D01*
X151300000Y-76538095D01*
X152252380Y-75585714D02*
X152252380Y-76157142D01*
X152252380Y-75871428D02*
X151252380Y-75871428D01*
X151395238Y-75966666D01*
X151490476Y-76061904D01*
X151538095Y-76157142D01*
%TO.C,USB1*%
X106661904Y-113179880D02*
X106661904Y-113989404D01*
X106709523Y-114084642D01*
X106757142Y-114132261D01*
X106852380Y-114179880D01*
X107042857Y-114179880D01*
X107138095Y-114132261D01*
X107185714Y-114084642D01*
X107233333Y-113989404D01*
X107233333Y-113179880D01*
X107661904Y-114132261D02*
X107804761Y-114179880D01*
X108042857Y-114179880D01*
X108138095Y-114132261D01*
X108185714Y-114084642D01*
X108233333Y-113989404D01*
X108233333Y-113894166D01*
X108185714Y-113798928D01*
X108138095Y-113751309D01*
X108042857Y-113703690D01*
X107852380Y-113656071D01*
X107757142Y-113608452D01*
X107709523Y-113560833D01*
X107661904Y-113465595D01*
X107661904Y-113370357D01*
X107709523Y-113275119D01*
X107757142Y-113227500D01*
X107852380Y-113179880D01*
X108090476Y-113179880D01*
X108233333Y-113227500D01*
X108995238Y-113656071D02*
X109138095Y-113703690D01*
X109185714Y-113751309D01*
X109233333Y-113846547D01*
X109233333Y-113989404D01*
X109185714Y-114084642D01*
X109138095Y-114132261D01*
X109042857Y-114179880D01*
X108661904Y-114179880D01*
X108661904Y-113179880D01*
X108995238Y-113179880D01*
X109090476Y-113227500D01*
X109138095Y-113275119D01*
X109185714Y-113370357D01*
X109185714Y-113465595D01*
X109138095Y-113560833D01*
X109090476Y-113608452D01*
X108995238Y-113656071D01*
X108661904Y-113656071D01*
X110185714Y-114179880D02*
X109614285Y-114179880D01*
X109900000Y-114179880D02*
X109900000Y-113179880D01*
X109804761Y-113322738D01*
X109709523Y-113417976D01*
X109614285Y-113465595D01*
%TO.C,SensorSharp2*%
X124447619Y-118604761D02*
X124590476Y-118652380D01*
X124828571Y-118652380D01*
X124923809Y-118604761D01*
X124971428Y-118557142D01*
X125019047Y-118461904D01*
X125019047Y-118366666D01*
X124971428Y-118271428D01*
X124923809Y-118223809D01*
X124828571Y-118176190D01*
X124638095Y-118128571D01*
X124542857Y-118080952D01*
X124495238Y-118033333D01*
X124447619Y-117938095D01*
X124447619Y-117842857D01*
X124495238Y-117747619D01*
X124542857Y-117700000D01*
X124638095Y-117652380D01*
X124876190Y-117652380D01*
X125019047Y-117700000D01*
X125828571Y-118604761D02*
X125733333Y-118652380D01*
X125542857Y-118652380D01*
X125447619Y-118604761D01*
X125400000Y-118509523D01*
X125400000Y-118128571D01*
X125447619Y-118033333D01*
X125542857Y-117985714D01*
X125733333Y-117985714D01*
X125828571Y-118033333D01*
X125876190Y-118128571D01*
X125876190Y-118223809D01*
X125400000Y-118319047D01*
X126304761Y-117985714D02*
X126304761Y-118652380D01*
X126304761Y-118080952D02*
X126352380Y-118033333D01*
X126447619Y-117985714D01*
X126590476Y-117985714D01*
X126685714Y-118033333D01*
X126733333Y-118128571D01*
X126733333Y-118652380D01*
X127161904Y-118604761D02*
X127257142Y-118652380D01*
X127447619Y-118652380D01*
X127542857Y-118604761D01*
X127590476Y-118509523D01*
X127590476Y-118461904D01*
X127542857Y-118366666D01*
X127447619Y-118319047D01*
X127304761Y-118319047D01*
X127209523Y-118271428D01*
X127161904Y-118176190D01*
X127161904Y-118128571D01*
X127209523Y-118033333D01*
X127304761Y-117985714D01*
X127447619Y-117985714D01*
X127542857Y-118033333D01*
X128161904Y-118652380D02*
X128066666Y-118604761D01*
X128019047Y-118557142D01*
X127971428Y-118461904D01*
X127971428Y-118176190D01*
X128019047Y-118080952D01*
X128066666Y-118033333D01*
X128161904Y-117985714D01*
X128304761Y-117985714D01*
X128400000Y-118033333D01*
X128447619Y-118080952D01*
X128495238Y-118176190D01*
X128495238Y-118461904D01*
X128447619Y-118557142D01*
X128400000Y-118604761D01*
X128304761Y-118652380D01*
X128161904Y-118652380D01*
X128923809Y-118652380D02*
X128923809Y-117985714D01*
X128923809Y-118176190D02*
X128971428Y-118080952D01*
X129019047Y-118033333D01*
X129114285Y-117985714D01*
X129209523Y-117985714D01*
X129495238Y-118604761D02*
X129638095Y-118652380D01*
X129876190Y-118652380D01*
X129971428Y-118604761D01*
X130019047Y-118557142D01*
X130066666Y-118461904D01*
X130066666Y-118366666D01*
X130019047Y-118271428D01*
X129971428Y-118223809D01*
X129876190Y-118176190D01*
X129685714Y-118128571D01*
X129590476Y-118080952D01*
X129542857Y-118033333D01*
X129495238Y-117938095D01*
X129495238Y-117842857D01*
X129542857Y-117747619D01*
X129590476Y-117700000D01*
X129685714Y-117652380D01*
X129923809Y-117652380D01*
X130066666Y-117700000D01*
X130495238Y-118652380D02*
X130495238Y-117652380D01*
X130923809Y-118652380D02*
X130923809Y-118128571D01*
X130876190Y-118033333D01*
X130780952Y-117985714D01*
X130638095Y-117985714D01*
X130542857Y-118033333D01*
X130495238Y-118080952D01*
X131828571Y-118652380D02*
X131828571Y-118128571D01*
X131780952Y-118033333D01*
X131685714Y-117985714D01*
X131495238Y-117985714D01*
X131400000Y-118033333D01*
X131828571Y-118604761D02*
X131733333Y-118652380D01*
X131495238Y-118652380D01*
X131400000Y-118604761D01*
X131352380Y-118509523D01*
X131352380Y-118414285D01*
X131400000Y-118319047D01*
X131495238Y-118271428D01*
X131733333Y-118271428D01*
X131828571Y-118223809D01*
X132304761Y-118652380D02*
X132304761Y-117985714D01*
X132304761Y-118176190D02*
X132352380Y-118080952D01*
X132400000Y-118033333D01*
X132495238Y-117985714D01*
X132590476Y-117985714D01*
X132923809Y-117985714D02*
X132923809Y-118985714D01*
X132923809Y-118033333D02*
X133019047Y-117985714D01*
X133209523Y-117985714D01*
X133304761Y-118033333D01*
X133352380Y-118080952D01*
X133400000Y-118176190D01*
X133400000Y-118461904D01*
X133352380Y-118557142D01*
X133304761Y-118604761D01*
X133209523Y-118652380D01*
X133019047Y-118652380D01*
X132923809Y-118604761D01*
X133780952Y-117747619D02*
X133828571Y-117700000D01*
X133923809Y-117652380D01*
X134161904Y-117652380D01*
X134257142Y-117700000D01*
X134304761Y-117747619D01*
X134352380Y-117842857D01*
X134352380Y-117938095D01*
X134304761Y-118080952D01*
X133733333Y-118652380D01*
X134352380Y-118652380D01*
%TO.C,SensorSharp1*%
X124447619Y-124604761D02*
X124590476Y-124652380D01*
X124828571Y-124652380D01*
X124923809Y-124604761D01*
X124971428Y-124557142D01*
X125019047Y-124461904D01*
X125019047Y-124366666D01*
X124971428Y-124271428D01*
X124923809Y-124223809D01*
X124828571Y-124176190D01*
X124638095Y-124128571D01*
X124542857Y-124080952D01*
X124495238Y-124033333D01*
X124447619Y-123938095D01*
X124447619Y-123842857D01*
X124495238Y-123747619D01*
X124542857Y-123700000D01*
X124638095Y-123652380D01*
X124876190Y-123652380D01*
X125019047Y-123700000D01*
X125828571Y-124604761D02*
X125733333Y-124652380D01*
X125542857Y-124652380D01*
X125447619Y-124604761D01*
X125400000Y-124509523D01*
X125400000Y-124128571D01*
X125447619Y-124033333D01*
X125542857Y-123985714D01*
X125733333Y-123985714D01*
X125828571Y-124033333D01*
X125876190Y-124128571D01*
X125876190Y-124223809D01*
X125400000Y-124319047D01*
X126304761Y-123985714D02*
X126304761Y-124652380D01*
X126304761Y-124080952D02*
X126352380Y-124033333D01*
X126447619Y-123985714D01*
X126590476Y-123985714D01*
X126685714Y-124033333D01*
X126733333Y-124128571D01*
X126733333Y-124652380D01*
X127161904Y-124604761D02*
X127257142Y-124652380D01*
X127447619Y-124652380D01*
X127542857Y-124604761D01*
X127590476Y-124509523D01*
X127590476Y-124461904D01*
X127542857Y-124366666D01*
X127447619Y-124319047D01*
X127304761Y-124319047D01*
X127209523Y-124271428D01*
X127161904Y-124176190D01*
X127161904Y-124128571D01*
X127209523Y-124033333D01*
X127304761Y-123985714D01*
X127447619Y-123985714D01*
X127542857Y-124033333D01*
X128161904Y-124652380D02*
X128066666Y-124604761D01*
X128019047Y-124557142D01*
X127971428Y-124461904D01*
X127971428Y-124176190D01*
X128019047Y-124080952D01*
X128066666Y-124033333D01*
X128161904Y-123985714D01*
X128304761Y-123985714D01*
X128400000Y-124033333D01*
X128447619Y-124080952D01*
X128495238Y-124176190D01*
X128495238Y-124461904D01*
X128447619Y-124557142D01*
X128400000Y-124604761D01*
X128304761Y-124652380D01*
X128161904Y-124652380D01*
X128923809Y-124652380D02*
X128923809Y-123985714D01*
X128923809Y-124176190D02*
X128971428Y-124080952D01*
X129019047Y-124033333D01*
X129114285Y-123985714D01*
X129209523Y-123985714D01*
X129495238Y-124604761D02*
X129638095Y-124652380D01*
X129876190Y-124652380D01*
X129971428Y-124604761D01*
X130019047Y-124557142D01*
X130066666Y-124461904D01*
X130066666Y-124366666D01*
X130019047Y-124271428D01*
X129971428Y-124223809D01*
X129876190Y-124176190D01*
X129685714Y-124128571D01*
X129590476Y-124080952D01*
X129542857Y-124033333D01*
X129495238Y-123938095D01*
X129495238Y-123842857D01*
X129542857Y-123747619D01*
X129590476Y-123700000D01*
X129685714Y-123652380D01*
X129923809Y-123652380D01*
X130066666Y-123700000D01*
X130495238Y-124652380D02*
X130495238Y-123652380D01*
X130923809Y-124652380D02*
X130923809Y-124128571D01*
X130876190Y-124033333D01*
X130780952Y-123985714D01*
X130638095Y-123985714D01*
X130542857Y-124033333D01*
X130495238Y-124080952D01*
X131828571Y-124652380D02*
X131828571Y-124128571D01*
X131780952Y-124033333D01*
X131685714Y-123985714D01*
X131495238Y-123985714D01*
X131400000Y-124033333D01*
X131828571Y-124604761D02*
X131733333Y-124652380D01*
X131495238Y-124652380D01*
X131400000Y-124604761D01*
X131352380Y-124509523D01*
X131352380Y-124414285D01*
X131400000Y-124319047D01*
X131495238Y-124271428D01*
X131733333Y-124271428D01*
X131828571Y-124223809D01*
X132304761Y-124652380D02*
X132304761Y-123985714D01*
X132304761Y-124176190D02*
X132352380Y-124080952D01*
X132400000Y-124033333D01*
X132495238Y-123985714D01*
X132590476Y-123985714D01*
X132923809Y-123985714D02*
X132923809Y-124985714D01*
X132923809Y-124033333D02*
X133019047Y-123985714D01*
X133209523Y-123985714D01*
X133304761Y-124033333D01*
X133352380Y-124080952D01*
X133400000Y-124176190D01*
X133400000Y-124461904D01*
X133352380Y-124557142D01*
X133304761Y-124604761D01*
X133209523Y-124652380D01*
X133019047Y-124652380D01*
X132923809Y-124604761D01*
X134352380Y-124652380D02*
X133780952Y-124652380D01*
X134066666Y-124652380D02*
X134066666Y-123652380D01*
X133971428Y-123795238D01*
X133876190Y-123890476D01*
X133780952Y-123938095D01*
%TO.C,U6*%
X159838095Y-70782380D02*
X159838095Y-71591904D01*
X159885714Y-71687142D01*
X159933333Y-71734761D01*
X160028571Y-71782380D01*
X160219047Y-71782380D01*
X160314285Y-71734761D01*
X160361904Y-71687142D01*
X160409523Y-71591904D01*
X160409523Y-70782380D01*
X161314285Y-70782380D02*
X161123809Y-70782380D01*
X161028571Y-70830000D01*
X160980952Y-70877619D01*
X160885714Y-71020476D01*
X160838095Y-71210952D01*
X160838095Y-71591904D01*
X160885714Y-71687142D01*
X160933333Y-71734761D01*
X161028571Y-71782380D01*
X161219047Y-71782380D01*
X161314285Y-71734761D01*
X161361904Y-71687142D01*
X161409523Y-71591904D01*
X161409523Y-71353809D01*
X161361904Y-71258571D01*
X161314285Y-71210952D01*
X161219047Y-71163333D01*
X161028571Y-71163333D01*
X160933333Y-71210952D01*
X160885714Y-71258571D01*
X160838095Y-71353809D01*
D12*
%TO.C,U1*%
X135025000Y-66057000D02*
X135025000Y-68089000D01*
X128675000Y-114825000D02*
X126135000Y-114825000D01*
X129945000Y-68089000D02*
X132485000Y-68089000D01*
X142525000Y-71025000D02*
X142525000Y-89025000D01*
X141375000Y-114825000D02*
X141375000Y-111015000D01*
X123025000Y-64025000D02*
X147025000Y-64025000D01*
X149025000Y-113525000D02*
X149025000Y-66025000D01*
X135025000Y-68089000D02*
X137565000Y-68089000D01*
X131025000Y-109525000D02*
X131025000Y-115525000D01*
X126135000Y-114825000D02*
X126135000Y-111015000D01*
X142525000Y-89025000D02*
X127525000Y-89025000D01*
X126135000Y-65295000D02*
X143915000Y-65295000D01*
X140105000Y-66057000D02*
X140105000Y-69613000D01*
X137565000Y-68089000D02*
X137565000Y-66057000D01*
X132485000Y-68089000D02*
X132485000Y-66057000D01*
X143915000Y-111015000D02*
X143915000Y-114825000D01*
X142645000Y-66057000D02*
X142645000Y-69613000D01*
X127525000Y-89025000D02*
X127525000Y-71025000D01*
X126135000Y-70375000D02*
X126135000Y-65295000D01*
X123025000Y-115525000D02*
X147025000Y-115525000D01*
X132485000Y-66057000D02*
X135025000Y-66057000D01*
X128675000Y-111015000D02*
X128675000Y-114825000D01*
X139025000Y-109525000D02*
X139025000Y-115525000D01*
X143915000Y-114825000D02*
X141375000Y-114825000D01*
X127405000Y-69613000D02*
X127405000Y-66057000D01*
X143915000Y-70375000D02*
X126135000Y-70375000D01*
X141375000Y-111015000D02*
X143915000Y-111015000D01*
X129945000Y-66057000D02*
X129945000Y-68089000D01*
X121025000Y-66025000D02*
X121025000Y-113525000D01*
X127525000Y-71025000D02*
X142525000Y-71025000D01*
X127405000Y-66057000D02*
X129945000Y-66057000D01*
X126135000Y-111015000D02*
X128675000Y-111015000D01*
X137565000Y-66057000D02*
X142645000Y-66057000D01*
X143915000Y-65295000D02*
X143915000Y-70375000D01*
X131025000Y-109525000D02*
X139025000Y-109525000D01*
X123025000Y-64025000D02*
G75*
G03*
X121025000Y-66025000I-1J-1999999D01*
G01*
X121025000Y-113525000D02*
G75*
G03*
X123025000Y-115525000I1999999J-1D01*
G01*
X147025000Y-115525000D02*
G75*
G03*
X149025000Y-113525000I1J1999999D01*
G01*
X149025000Y-66025000D02*
G75*
G03*
X147025000Y-64025000I-1999999J1D01*
G01*
D13*
X130345000Y-86885000D02*
G75*
G03*
X130345000Y-86885000I-400000J0D01*
G01*
D14*
X142945000Y-112920000D02*
G75*
G03*
X142945000Y-112920000I-300000J0D01*
G01*
X127705000Y-112920000D02*
G75*
G03*
X127705000Y-112920000I-300000J0D01*
G01*
D12*
X124825000Y-66025000D02*
G75*
G03*
X124825000Y-66025000I-1500000J0D01*
G01*
X124825000Y-113525000D02*
G75*
G03*
X124825000Y-113525000I-1500000J0D01*
G01*
X148225000Y-113525000D02*
G75*
G03*
X148225000Y-113525000I-1500000J0D01*
G01*
X148225000Y-66025000D02*
G75*
G03*
X148225000Y-66025000I-1500000J0D01*
G01*
%TO.C,REMOTE PET*%
G36*
X154626080Y-128027760D02*
G01*
X154773793Y-127938319D01*
X154971497Y-127860654D01*
X155191838Y-127802067D01*
X155403040Y-127770227D01*
X155485004Y-127766666D01*
X155699411Y-127786231D01*
X155941149Y-127840335D01*
X156192388Y-127922096D01*
X156435296Y-128024628D01*
X156652041Y-128141048D01*
X156824794Y-128264471D01*
X156861621Y-128298142D01*
X156960787Y-128413826D01*
X157053041Y-128552049D01*
X157091523Y-128625190D01*
X157161944Y-128847869D01*
X157178067Y-129076518D01*
X157143442Y-129299173D01*
X157061621Y-129503873D01*
X156936153Y-129678654D01*
X156770591Y-129811556D01*
X156733333Y-129831879D01*
X156544605Y-129901930D01*
X156360268Y-129923519D01*
X156194122Y-129896992D01*
X156059965Y-129822696D01*
X156051084Y-129814751D01*
X155985277Y-129712563D01*
X155967604Y-129586352D01*
X155992530Y-129451646D01*
X156054518Y-129323971D01*
X156148036Y-129218855D01*
X156267547Y-129151826D01*
X156289667Y-129145431D01*
X156389070Y-129140192D01*
X156457294Y-129171855D01*
X156484143Y-129227468D01*
X156459424Y-129294079D01*
X156429748Y-129323403D01*
X156297728Y-129438542D01*
X156224171Y-129527525D01*
X156208091Y-129594369D01*
X156248506Y-129643092D01*
X156343018Y-129677380D01*
X156496668Y-129686702D01*
X156620460Y-129638837D01*
X156709389Y-129538458D01*
X156758448Y-129390240D01*
X156766666Y-129281798D01*
X156741610Y-129108278D01*
X156669878Y-128980615D01*
X156556625Y-128902738D01*
X156407007Y-128878575D01*
X156265922Y-128900200D01*
X156091892Y-128977587D01*
X155947823Y-129109413D01*
X155831326Y-129298507D01*
X155751449Y-129508814D01*
X155704623Y-129652869D01*
X155667160Y-129742416D01*
X155633621Y-129787950D01*
X155600567Y-129800000D01*
X155563339Y-129789022D01*
X155531177Y-129749575D01*
X155499966Y-129671892D01*
X155465589Y-129546202D01*
X155432050Y-129400000D01*
X155377040Y-129213779D01*
X155304482Y-129064669D01*
X155220883Y-128964518D01*
X155177556Y-128936766D01*
X155035214Y-128899118D01*
X154878513Y-128900504D01*
X154725988Y-128936109D01*
X154596173Y-129001118D01*
X154507603Y-129090717D01*
X154495132Y-129114039D01*
X154474837Y-129232409D01*
X154503165Y-129366501D01*
X154570478Y-129499624D01*
X154667143Y-129615086D01*
X154783522Y-129696197D01*
X154843841Y-129718099D01*
X154953608Y-129728542D01*
X155016122Y-129698508D01*
X155029879Y-129636014D01*
X154993376Y-129549074D01*
X154905108Y-129445706D01*
X154896472Y-129437619D01*
X154805182Y-129336788D01*
X154774418Y-129255117D01*
X154803150Y-129186166D01*
X154850000Y-129147239D01*
X154938124Y-129121990D01*
X155027575Y-129150813D01*
X155111633Y-129221599D01*
X155183574Y-129322242D01*
X155236678Y-129440633D01*
X155264223Y-129564665D01*
X155259488Y-129682231D01*
X155215751Y-129781223D01*
X155207545Y-129791299D01*
X155090463Y-129881101D01*
X154934512Y-129939472D01*
X154761614Y-129962352D01*
X154593688Y-129945686D01*
X154514543Y-129919582D01*
X154401075Y-129843972D01*
X154286029Y-129723815D01*
X154185407Y-129578871D01*
X154115210Y-129428899D01*
X154113812Y-129424740D01*
X154072041Y-129216183D01*
X154069419Y-128981612D01*
X154103899Y-128747427D01*
X154173434Y-128540027D01*
X154184117Y-128518035D01*
X154297011Y-128344664D01*
X154334864Y-128302896D01*
X154833333Y-128302896D01*
X154865681Y-128397664D01*
X154959622Y-128482089D01*
X155110503Y-128553291D01*
X155313668Y-128608390D01*
X155333333Y-128612264D01*
X155449244Y-128621191D01*
X155605006Y-128615823D01*
X155775890Y-128598412D01*
X155937169Y-128571211D01*
X156025536Y-128549227D01*
X156185805Y-128484867D01*
X156285860Y-128409030D01*
X156330096Y-128326670D01*
X156322908Y-128242743D01*
X156268691Y-128162201D01*
X156171843Y-128089998D01*
X156036757Y-128031089D01*
X155867830Y-127990428D01*
X155669457Y-127972969D01*
X155517842Y-127977030D01*
X155266135Y-128008003D01*
X155069495Y-128060091D01*
X154930452Y-128132090D01*
X154851538Y-128222794D01*
X154833333Y-128302896D01*
X154334864Y-128302896D01*
X154451558Y-128174135D01*
X154626080Y-128027760D01*
G37*
G36*
X150126238Y-127552916D02*
G01*
X150171711Y-127428153D01*
X150311048Y-127200738D01*
X150489226Y-127026993D01*
X150703274Y-126908667D01*
X150950220Y-126847505D01*
X151170559Y-126840968D01*
X151331397Y-126856242D01*
X151452666Y-126885445D01*
X151561079Y-126935355D01*
X151575742Y-126943789D01*
X151762081Y-127089633D01*
X151907241Y-127277484D01*
X152009507Y-127495615D01*
X152067162Y-127732301D01*
X152078492Y-127975816D01*
X152041781Y-128214435D01*
X151955314Y-128436433D01*
X151821763Y-128625357D01*
X151627083Y-128794463D01*
X151408870Y-128902174D01*
X151160499Y-128951580D01*
X151116666Y-128954320D01*
X150985764Y-128955851D01*
X150870919Y-128949542D01*
X150800000Y-128937476D01*
X150553894Y-128824153D01*
X150351963Y-128661592D01*
X150196671Y-128451964D01*
X150154015Y-128368360D01*
X150100533Y-128192240D01*
X150078377Y-127981583D01*
X150087005Y-127762785D01*
X150276521Y-127762785D01*
X150294502Y-127966691D01*
X150362990Y-128158439D01*
X150435746Y-128270841D01*
X150528621Y-128375950D01*
X150622036Y-128453260D01*
X150666666Y-128476543D01*
X150752162Y-128492945D01*
X150858226Y-128495567D01*
X150952975Y-128485030D01*
X150995546Y-128470124D01*
X151023998Y-128424857D01*
X151025645Y-128334312D01*
X151021089Y-128295635D01*
X151007611Y-128185312D01*
X150992224Y-128041484D01*
X150979556Y-127909320D01*
X150958026Y-127668640D01*
X151072638Y-127559320D01*
X151172496Y-127469283D01*
X151277686Y-127381888D01*
X151301353Y-127363550D01*
X151371475Y-127305423D01*
X151395860Y-127261577D01*
X151384132Y-127209153D01*
X151375073Y-127188473D01*
X151296190Y-127086943D01*
X151174348Y-127009683D01*
X151032285Y-126969635D01*
X150985524Y-126966791D01*
X150796896Y-126997292D01*
X150629308Y-127082333D01*
X150488120Y-127211659D01*
X150378687Y-127375013D01*
X150306368Y-127562140D01*
X150276521Y-127762785D01*
X150087005Y-127762785D01*
X150087097Y-127760452D01*
X150126238Y-127552916D01*
G37*
G36*
X153458613Y-122591280D02*
G01*
X154246904Y-122430010D01*
X155026834Y-122334617D01*
X155799495Y-122304985D01*
X156103240Y-122311385D01*
X156442493Y-122328106D01*
X156734408Y-122352101D01*
X156998168Y-122386233D01*
X157252957Y-122433363D01*
X157517956Y-122496356D01*
X157728728Y-122553959D01*
X157857326Y-122589778D01*
X157961109Y-122617194D01*
X158023698Y-122631938D01*
X158033442Y-122633333D01*
X158060057Y-122605220D01*
X158097503Y-122534085D01*
X158115486Y-122491666D01*
X158177357Y-122354427D01*
X158272386Y-122169012D01*
X158396267Y-121942389D01*
X158544693Y-121681527D01*
X158713359Y-121393393D01*
X158897956Y-121084956D01*
X159094179Y-120763183D01*
X159297721Y-120435043D01*
X159504275Y-120107503D01*
X159709536Y-119787532D01*
X159909196Y-119482097D01*
X160098948Y-119198167D01*
X160274487Y-118942710D01*
X160431506Y-118722693D01*
X160510420Y-118616666D01*
X160803213Y-118240910D01*
X161070506Y-117919915D01*
X161317060Y-117649038D01*
X161547636Y-117423638D01*
X161766997Y-117239073D01*
X161979905Y-117090701D01*
X162191120Y-116973880D01*
X162200000Y-116969607D01*
X162324386Y-116912554D01*
X162422736Y-116877224D01*
X162519463Y-116858462D01*
X162638979Y-116851118D01*
X162766666Y-116850000D01*
X162921206Y-116851872D01*
X163032645Y-116860800D01*
X163124519Y-116881752D01*
X163220359Y-116919697D01*
X163316666Y-116966105D01*
X163496236Y-117076525D01*
X163688335Y-117230024D01*
X163875667Y-117410060D01*
X164040935Y-117600089D01*
X164161093Y-117773694D01*
X164359561Y-118172986D01*
X164508897Y-118607775D01*
X164607299Y-119066609D01*
X164652966Y-119538036D01*
X164644097Y-120010603D01*
X164582734Y-120454054D01*
X164537148Y-120643765D01*
X164467031Y-120886135D01*
X164375166Y-121173011D01*
X164264334Y-121496236D01*
X164137319Y-121847657D01*
X163996902Y-122219117D01*
X163871369Y-122538822D01*
X163783190Y-122761759D01*
X163699533Y-122977220D01*
X163624946Y-123173182D01*
X163563977Y-123337625D01*
X163521176Y-123458528D01*
X163507670Y-123500000D01*
X163467092Y-123653748D01*
X163419372Y-123873424D01*
X163364495Y-124159102D01*
X163302448Y-124510857D01*
X163233217Y-124928763D01*
X163182149Y-125250000D01*
X163116651Y-125637789D01*
X163049663Y-125967483D01*
X162978155Y-126247634D01*
X162899093Y-126486795D01*
X162809447Y-126693518D01*
X162706186Y-126876356D01*
X162586276Y-127043863D01*
X162516723Y-127127305D01*
X162333333Y-127337583D01*
X162332538Y-127727125D01*
X162329567Y-127896377D01*
X162322135Y-128054438D01*
X162311428Y-128181635D01*
X162301046Y-128249064D01*
X162283753Y-128333594D01*
X162277715Y-128384483D01*
X162278843Y-128389954D01*
X162307902Y-128375898D01*
X162379117Y-128331178D01*
X162480242Y-128263666D01*
X162549359Y-128216065D01*
X162876572Y-128009919D01*
X163203945Y-127844903D01*
X163521851Y-127724747D01*
X163820667Y-127653178D01*
X164053459Y-127633333D01*
X164337644Y-127661338D01*
X164619092Y-127740702D01*
X164885714Y-127864451D01*
X165125421Y-128025611D01*
X165326123Y-128217205D01*
X165475731Y-128432259D01*
X165491506Y-128463017D01*
X165557684Y-128652957D01*
X165587324Y-128864435D01*
X165580016Y-129074961D01*
X165535345Y-129262043D01*
X165507307Y-129324551D01*
X165468236Y-129388477D01*
X165420108Y-129445431D01*
X165359112Y-129495808D01*
X165281442Y-129540004D01*
X165183288Y-129578416D01*
X165060843Y-129611440D01*
X164910297Y-129639473D01*
X164727842Y-129662911D01*
X164509669Y-129682151D01*
X164251971Y-129697588D01*
X163950938Y-129709618D01*
X163602763Y-129718639D01*
X163203636Y-129725047D01*
X162749749Y-129729237D01*
X162237294Y-129731607D01*
X161662462Y-129732553D01*
X161586345Y-129732590D01*
X159404527Y-129733443D01*
X159381200Y-129658388D01*
X159322889Y-129533029D01*
X159221114Y-129379105D01*
X159085640Y-129208186D01*
X158926231Y-129031845D01*
X158752653Y-128861653D01*
X158591482Y-128722572D01*
X158295440Y-128503053D01*
X157993608Y-128318762D01*
X157667951Y-128160255D01*
X157300432Y-128018087D01*
X157150000Y-127967659D01*
X156880446Y-127879062D01*
X156666799Y-127804486D01*
X156500960Y-127739293D01*
X156374834Y-127678843D01*
X156301233Y-127631849D01*
X158632969Y-127631849D01*
X158648109Y-127904619D01*
X158708582Y-128171884D01*
X158812468Y-128424988D01*
X158957846Y-128655273D01*
X159142798Y-128854084D01*
X159365403Y-129012765D01*
X159609534Y-129118308D01*
X159791273Y-129153769D01*
X160006257Y-129163086D01*
X160226619Y-129146762D01*
X160424494Y-129105299D01*
X160430301Y-129103514D01*
X160472276Y-129085621D01*
X162333100Y-129085621D01*
X162339720Y-129237202D01*
X162394450Y-129360480D01*
X162418989Y-129388686D01*
X162476331Y-129437781D01*
X162536420Y-129460990D01*
X162623854Y-129464704D01*
X162695504Y-129460537D01*
X162849142Y-129435797D01*
X162962326Y-129389753D01*
X162974063Y-129381699D01*
X163038405Y-129316276D01*
X163104013Y-129211022D01*
X163175516Y-129057300D01*
X163250107Y-128866666D01*
X163312676Y-128724319D01*
X163373357Y-128644651D01*
X163435744Y-128623902D01*
X163470862Y-128635578D01*
X163503667Y-128663390D01*
X163522738Y-128713456D01*
X163531480Y-128801242D01*
X163533333Y-128919354D01*
X163535855Y-129052874D01*
X163546615Y-129139254D01*
X163570400Y-129197931D01*
X163611997Y-129248341D01*
X163615151Y-129251515D01*
X163724437Y-129317675D01*
X163852144Y-129331127D01*
X163974486Y-129290767D01*
X164004640Y-129269593D01*
X164041782Y-129234223D01*
X164064984Y-129191038D01*
X164077481Y-129124618D01*
X164082511Y-129019541D01*
X164083333Y-128894593D01*
X164083333Y-128583333D01*
X164175795Y-128572709D01*
X164211726Y-128569378D01*
X164240704Y-128574550D01*
X164268121Y-128596769D01*
X164299372Y-128644577D01*
X164339851Y-128726519D01*
X164394953Y-128851137D01*
X164470071Y-129026975D01*
X164485492Y-129063217D01*
X164546539Y-129188358D01*
X164606783Y-129261091D01*
X164680451Y-129293961D01*
X164754036Y-129300000D01*
X164907228Y-129273905D01*
X165042509Y-129203514D01*
X165146150Y-129100663D01*
X165204426Y-128977190D01*
X165212171Y-128904932D01*
X165189131Y-128766364D01*
X165123260Y-128627393D01*
X165008259Y-128477133D01*
X164898221Y-128362405D01*
X164702554Y-128192653D01*
X164510439Y-128077103D01*
X164302484Y-128007365D01*
X164059291Y-127975046D01*
X163995828Y-127972006D01*
X163639691Y-127986442D01*
X163317362Y-128057108D01*
X163024751Y-128185386D01*
X162757767Y-128372660D01*
X162724105Y-128401966D01*
X162570092Y-128563909D01*
X162451466Y-128738689D01*
X162371409Y-128916021D01*
X162333100Y-129085621D01*
X160472276Y-129085621D01*
X160719230Y-128980350D01*
X160968753Y-128803726D01*
X161176789Y-128575421D01*
X161317989Y-128344938D01*
X161360199Y-128257399D01*
X161388288Y-128181729D01*
X161405115Y-128100695D01*
X161413538Y-127997068D01*
X161416413Y-127853618D01*
X161416666Y-127750000D01*
X161415660Y-127576958D01*
X161410593Y-127452501D01*
X161398388Y-127358552D01*
X161375973Y-127277035D01*
X161340271Y-127189876D01*
X161310500Y-127125889D01*
X161156516Y-126868519D01*
X160960408Y-126648752D01*
X160731451Y-126472910D01*
X160478921Y-126347317D01*
X160212094Y-126278295D01*
X160050000Y-126266666D01*
X159798045Y-126294980D01*
X159536867Y-126374347D01*
X159287480Y-126496407D01*
X159070902Y-126652802D01*
X159064121Y-126658843D01*
X158878736Y-126867070D01*
X158746362Y-127104418D01*
X158665080Y-127362229D01*
X158632969Y-127631849D01*
X156301233Y-127631849D01*
X156280325Y-127618499D01*
X156209336Y-127553619D01*
X156153771Y-127479567D01*
X156105534Y-127391701D01*
X156090685Y-127360683D01*
X156048625Y-127266160D01*
X156014168Y-127174385D01*
X155986494Y-127077476D01*
X155964783Y-126967552D01*
X155948214Y-126836731D01*
X155935966Y-126677130D01*
X155927220Y-126480869D01*
X155921154Y-126240065D01*
X155916949Y-125946836D01*
X155914353Y-125666666D01*
X155910354Y-125258162D01*
X155905177Y-124908961D01*
X155898511Y-124611703D01*
X155890042Y-124359030D01*
X155879459Y-124143584D01*
X155866450Y-123958006D01*
X155850704Y-123794938D01*
X155831908Y-123647020D01*
X155827465Y-123616666D01*
X155788108Y-123416239D01*
X155735059Y-123235432D01*
X155673681Y-123089185D01*
X155609340Y-122992440D01*
X155600155Y-122983474D01*
X155549963Y-122945441D01*
X155506355Y-122947300D01*
X155447736Y-122981751D01*
X155357025Y-123076755D01*
X155280408Y-123230090D01*
X155221052Y-123434321D01*
X155195813Y-123572961D01*
X155188210Y-123654537D01*
X155180261Y-123795228D01*
X155172195Y-123987483D01*
X155164240Y-124223751D01*
X155156624Y-124496484D01*
X155149576Y-124798130D01*
X155143323Y-125121141D01*
X155138095Y-125457965D01*
X155137534Y-125500000D01*
X155132387Y-125890666D01*
X155127616Y-126220573D01*
X155122581Y-126495621D01*
X155116645Y-126721710D01*
X155109167Y-126904740D01*
X155099510Y-127050610D01*
X155087034Y-127165220D01*
X155071101Y-127254471D01*
X155051072Y-127324262D01*
X155026307Y-127380493D01*
X154996169Y-127429064D01*
X154960018Y-127475875D01*
X154918204Y-127525653D01*
X154844398Y-127601726D01*
X154752610Y-127671963D01*
X154632982Y-127741689D01*
X154475656Y-127816225D01*
X154270775Y-127900896D01*
X154104901Y-127964845D01*
X153831481Y-128070755D01*
X153607331Y-128163964D01*
X153418000Y-128251374D01*
X153249038Y-128339889D01*
X153085996Y-128436410D01*
X152992124Y-128496380D01*
X152790724Y-128641360D01*
X152587582Y-128811786D01*
X152392576Y-128997161D01*
X152215581Y-129186986D01*
X152066477Y-129370763D01*
X151955141Y-129537994D01*
X151897333Y-129659988D01*
X151862524Y-129759841D01*
X151356262Y-129778975D01*
X151199144Y-129784661D01*
X150987641Y-129791940D01*
X150734001Y-129800411D01*
X150450475Y-129809671D01*
X150149314Y-129819318D01*
X149842768Y-129828953D01*
X149650000Y-129834908D01*
X149326452Y-129844965D01*
X148982896Y-129855881D01*
X148635304Y-129867134D01*
X148299652Y-129878200D01*
X147991915Y-129888554D01*
X147728066Y-129897672D01*
X147633333Y-129901038D01*
X147281430Y-129913134D01*
X146989522Y-129921781D01*
X146751024Y-129926903D01*
X146559350Y-129928425D01*
X146407913Y-129926271D01*
X146290128Y-129920366D01*
X146199409Y-129910633D01*
X146129171Y-129896998D01*
X146083333Y-129883241D01*
X145915869Y-129790189D01*
X145778882Y-129646363D01*
X145678238Y-129462950D01*
X145619803Y-129251133D01*
X145617944Y-129210017D01*
X145998886Y-129210017D01*
X146011081Y-129385023D01*
X146076195Y-129541712D01*
X146187162Y-129663723D01*
X146293472Y-129722837D01*
X146400352Y-129723600D01*
X146493680Y-129686601D01*
X146589350Y-129604384D01*
X146674983Y-129467518D01*
X146743880Y-129287933D01*
X146766818Y-129200000D01*
X146814679Y-129042932D01*
X146875236Y-128946023D01*
X146952889Y-128903284D01*
X146987326Y-128900000D01*
X147058760Y-128921065D01*
X147104885Y-128988626D01*
X147128567Y-129109230D01*
X147133333Y-129233333D01*
X147141050Y-129388312D01*
X147168889Y-129494141D01*
X147223877Y-129567038D01*
X147299332Y-129616321D01*
X147430828Y-129660083D01*
X147551707Y-129656727D01*
X147643520Y-129606983D01*
X147647686Y-129602556D01*
X147673997Y-129565089D01*
X147688894Y-129514713D01*
X147693613Y-129436964D01*
X147689393Y-129317374D01*
X147681892Y-129202556D01*
X147672038Y-129039336D01*
X147673260Y-128933980D01*
X147690262Y-128877989D01*
X147727750Y-128862865D01*
X147790426Y-128880111D01*
X147846825Y-128904618D01*
X147906983Y-128946647D01*
X147961391Y-129020715D01*
X148016264Y-129137788D01*
X148077820Y-129308831D01*
X148080415Y-129316666D01*
X148148733Y-129481976D01*
X148230124Y-129589519D01*
X148334661Y-129648127D01*
X148472419Y-129666635D01*
X148479573Y-129666666D01*
X148637929Y-129645629D01*
X148744429Y-129583382D01*
X148798579Y-129481219D01*
X148799881Y-129340435D01*
X148747841Y-129162323D01*
X148707516Y-129071637D01*
X148603622Y-128901949D01*
X148459329Y-128725980D01*
X148292073Y-128561160D01*
X148119289Y-128424921D01*
X147979599Y-128343918D01*
X147782838Y-128279044D01*
X147550296Y-128241999D01*
X147307775Y-128235069D01*
X147081074Y-128260542D01*
X147068486Y-128263162D01*
X146881286Y-128320454D01*
X146676748Y-128410686D01*
X146479779Y-128520918D01*
X146315285Y-128638209D01*
X146271100Y-128677474D01*
X146129766Y-128846003D01*
X146038738Y-129026930D01*
X145998886Y-129210017D01*
X145617944Y-129210017D01*
X145609445Y-129022098D01*
X145612534Y-128985636D01*
X145671700Y-128721430D01*
X145789389Y-128482531D01*
X145960660Y-128273822D01*
X146180574Y-128100190D01*
X146444191Y-127966518D01*
X146729266Y-127881278D01*
X147079940Y-127834336D01*
X147413897Y-127847398D01*
X147736307Y-127921892D01*
X148052337Y-128059248D01*
X148367156Y-128260895D01*
X148510898Y-128373897D01*
X148783333Y-128600067D01*
X148805035Y-128143827D01*
X148826699Y-127688412D01*
X149747202Y-127688412D01*
X149747343Y-127963511D01*
X149799881Y-128238341D01*
X149905864Y-128504830D01*
X150066342Y-128754909D01*
X150195544Y-128900048D01*
X150414249Y-129081995D01*
X150650549Y-129214108D01*
X150812755Y-129270476D01*
X150894774Y-129281829D01*
X151019676Y-129287931D01*
X151163816Y-129287797D01*
X151200621Y-129286653D01*
X151370110Y-129275062D01*
X151501646Y-129251154D01*
X151623659Y-129208771D01*
X151682546Y-129182261D01*
X151937423Y-129027419D01*
X152145262Y-128830575D01*
X152303584Y-128599313D01*
X152409907Y-128341221D01*
X152461751Y-128063886D01*
X152456635Y-127774893D01*
X152392079Y-127481830D01*
X152307151Y-127272054D01*
X152168247Y-127047799D01*
X151985105Y-126841604D01*
X151775863Y-126671928D01*
X151639142Y-126592256D01*
X151534068Y-126542831D01*
X151447444Y-126511137D01*
X151358717Y-126493264D01*
X151247335Y-126485305D01*
X151092744Y-126483350D01*
X151066396Y-126483333D01*
X150903996Y-126484768D01*
X150787747Y-126491662D01*
X150697152Y-126507895D01*
X150611715Y-126537347D01*
X150510939Y-126583899D01*
X150495710Y-126591375D01*
X150249611Y-126746751D01*
X150050662Y-126942213D01*
X149899911Y-127169692D01*
X149798408Y-127421115D01*
X149747202Y-127688412D01*
X148826699Y-127688412D01*
X148826738Y-127687587D01*
X148666897Y-127543877D01*
X148498047Y-127367270D01*
X148357884Y-127163831D01*
X148244226Y-126927049D01*
X148154888Y-126650410D01*
X148087687Y-126327403D01*
X148040439Y-125951515D01*
X148015093Y-125600000D01*
X148002469Y-125414716D01*
X147985117Y-125230047D01*
X147965462Y-125069039D01*
X147948480Y-124966666D01*
X147894932Y-124754011D01*
X147813295Y-124495061D01*
X147707836Y-124201810D01*
X147582823Y-123886251D01*
X147470248Y-123622734D01*
X147396114Y-123454747D01*
X147302713Y-123243150D01*
X147197716Y-123005317D01*
X147088793Y-122758622D01*
X146983614Y-122520436D01*
X146967228Y-122483333D01*
X146755665Y-121987092D01*
X146580933Y-121538127D01*
X146441101Y-121129471D01*
X146334239Y-120754159D01*
X146258416Y-120405224D01*
X146211703Y-120075703D01*
X146201762Y-119914342D01*
X146956320Y-119914342D01*
X146983160Y-120281760D01*
X147070052Y-120660299D01*
X147087969Y-120716666D01*
X147162649Y-120932461D01*
X147254859Y-121178512D01*
X147366917Y-121460499D01*
X147501144Y-121784104D01*
X147659859Y-122155008D01*
X147845382Y-122578891D01*
X147884199Y-122666666D01*
X148019466Y-122970568D01*
X148131515Y-123221551D01*
X148222510Y-123428339D01*
X148294618Y-123599660D01*
X148350002Y-123744237D01*
X148390830Y-123870796D01*
X148419265Y-123988063D01*
X148437474Y-124104764D01*
X148447623Y-124229623D01*
X148451876Y-124371366D01*
X148452398Y-124538719D01*
X148451356Y-124740406D01*
X148450862Y-124950000D01*
X148451550Y-125236717D01*
X148453337Y-125465010D01*
X148456662Y-125643117D01*
X148461965Y-125779277D01*
X148469683Y-125881729D01*
X148480255Y-125958711D01*
X148494121Y-126018464D01*
X148510271Y-126065574D01*
X148612471Y-126286563D01*
X148724504Y-126460123D01*
X148841856Y-126582953D01*
X148960013Y-126651748D01*
X149074463Y-126663208D01*
X149180692Y-126614029D01*
X149215421Y-126581527D01*
X149261991Y-126515001D01*
X149323926Y-126404332D01*
X149391737Y-126267238D01*
X149434104Y-126173193D01*
X149653015Y-125706853D01*
X149894949Y-125271727D01*
X150168170Y-124855928D01*
X150480939Y-124447570D01*
X150841519Y-124034767D01*
X151129577Y-123733983D01*
X151268026Y-123590622D01*
X151392152Y-123455656D01*
X151493117Y-123339200D01*
X151562084Y-123251369D01*
X151587910Y-123209403D01*
X151621306Y-123074541D01*
X151632932Y-122889226D01*
X151624108Y-122665546D01*
X151596154Y-122415590D01*
X151550392Y-122151444D01*
X151488141Y-121885197D01*
X151417411Y-121648691D01*
X151248155Y-121217087D01*
X151031098Y-120779965D01*
X150778727Y-120360270D01*
X150523271Y-120005699D01*
X150291586Y-119733373D01*
X150036892Y-119469992D01*
X149766487Y-119220716D01*
X149487671Y-118990700D01*
X149207743Y-118785103D01*
X148934003Y-118609083D01*
X148673749Y-118467795D01*
X148434282Y-118366399D01*
X148222900Y-118310050D01*
X148109192Y-118300000D01*
X147908681Y-118332287D01*
X147706462Y-118426364D01*
X147510452Y-118578049D01*
X147432514Y-118657242D01*
X147227628Y-118929494D01*
X147079401Y-119233141D01*
X146988683Y-119563113D01*
X146956320Y-119914342D01*
X146201762Y-119914342D01*
X146192169Y-119758628D01*
X146191310Y-119683333D01*
X146213175Y-119265621D01*
X146283034Y-118888116D01*
X146404898Y-118540925D01*
X146582780Y-118214156D01*
X146820690Y-117897917D01*
X146990405Y-117712712D01*
X147239973Y-117478954D01*
X147483400Y-117298569D01*
X147723670Y-117172301D01*
X147963770Y-117100893D01*
X148206685Y-117085085D01*
X148455401Y-117125621D01*
X148712904Y-117223243D01*
X148982180Y-117378694D01*
X149266214Y-117592715D01*
X149567993Y-117866049D01*
X149890501Y-118199438D01*
X150156951Y-118500000D01*
X150339231Y-118722958D01*
X150550198Y-119000305D01*
X150786930Y-119327736D01*
X151046498Y-119700945D01*
X151325979Y-120115626D01*
X151622446Y-120567476D01*
X151932975Y-121052187D01*
X152254638Y-121565456D01*
X152399416Y-121800000D01*
X152533693Y-122018336D01*
X152656680Y-122217945D01*
X152764064Y-122391859D01*
X152851535Y-122533108D01*
X152914781Y-122634724D01*
X152949489Y-122689737D01*
X152954708Y-122697502D01*
X152989684Y-122694909D01*
X153077817Y-122678393D01*
X153207633Y-122650374D01*
X153271452Y-122635576D01*
X159305413Y-122635576D01*
X159320902Y-122882866D01*
X159330860Y-122938539D01*
X159379670Y-123107132D01*
X159455917Y-123253538D01*
X159568943Y-123389489D01*
X159728093Y-123526716D01*
X159892371Y-123643603D01*
X160215316Y-123888505D01*
X160528179Y-124179465D01*
X160776702Y-124456210D01*
X160908990Y-124629602D01*
X161061742Y-124850053D01*
X161226831Y-125104398D01*
X161396129Y-125379472D01*
X161561507Y-125662110D01*
X161714838Y-125939147D01*
X161832757Y-126166666D01*
X161926310Y-126346515D01*
X161999963Y-126469465D01*
X162057440Y-126540960D01*
X162102469Y-126566439D01*
X162106681Y-126566666D01*
X162148548Y-126545155D01*
X162210083Y-126492892D01*
X162214914Y-126488116D01*
X162296203Y-126381638D01*
X162383396Y-126225492D01*
X162470479Y-126035600D01*
X162551442Y-125827887D01*
X162620274Y-125618278D01*
X162670962Y-125422696D01*
X162697496Y-125257065D01*
X162700000Y-125203133D01*
X162694928Y-125126866D01*
X162681021Y-125000645D01*
X162660236Y-124840299D01*
X162634532Y-124661663D01*
X162626533Y-124609313D01*
X162597190Y-124412239D01*
X162578965Y-124263283D01*
X162571086Y-124144963D01*
X162572787Y-124039798D01*
X162583299Y-123930308D01*
X162593415Y-123855960D01*
X162621477Y-123694904D01*
X162661400Y-123525558D01*
X162716027Y-123339808D01*
X162788198Y-123129543D01*
X162880754Y-122886648D01*
X162996537Y-122603011D01*
X163138387Y-122270518D01*
X163190831Y-122150000D01*
X163373116Y-121723564D01*
X163524480Y-121348048D01*
X163646996Y-121016440D01*
X163742736Y-120721732D01*
X163813774Y-120456913D01*
X163862184Y-120214972D01*
X163890038Y-119988900D01*
X163899409Y-119771687D01*
X163899421Y-119753966D01*
X163875259Y-119444346D01*
X163807833Y-119138434D01*
X163702477Y-118846887D01*
X163564528Y-118580358D01*
X163399320Y-118349502D01*
X163212190Y-118164973D01*
X163050000Y-118057716D01*
X162867838Y-117997517D01*
X162657888Y-117986899D01*
X162436181Y-118025198D01*
X162261958Y-118090220D01*
X162007255Y-118233340D01*
X161724757Y-118435444D01*
X161415745Y-118695525D01*
X161081499Y-119012573D01*
X161048191Y-119045909D01*
X160668700Y-119450780D01*
X160348137Y-119844320D01*
X160081306Y-120233436D01*
X159868027Y-120614943D01*
X159707769Y-120965658D01*
X159571027Y-121324122D01*
X159460109Y-121680340D01*
X159377327Y-122024318D01*
X159324992Y-122346062D01*
X159305413Y-122635576D01*
X153271452Y-122635576D01*
X153367655Y-122613269D01*
X153458613Y-122591280D01*
G37*
G36*
X159430920Y-126775375D02*
G01*
X159515201Y-126717381D01*
X159615606Y-126662027D01*
X159711447Y-126629140D01*
X159829182Y-126611662D01*
X159936797Y-126604906D01*
X160220371Y-126619554D01*
X160468818Y-126690491D01*
X160681182Y-126817178D01*
X160856508Y-126999075D01*
X160971937Y-127188986D01*
X161031962Y-127320012D01*
X161064971Y-127425928D01*
X161078161Y-127538730D01*
X161079148Y-127665420D01*
X161048510Y-127943628D01*
X160968319Y-128195120D01*
X160843566Y-128412411D01*
X160679239Y-128588015D01*
X160480328Y-128714448D01*
X160347255Y-128763370D01*
X160206890Y-128787962D01*
X160043636Y-128795835D01*
X159889352Y-128786671D01*
X159800000Y-128768829D01*
X159553596Y-128660533D01*
X159341933Y-128500240D01*
X159174534Y-128296165D01*
X159105386Y-128169549D01*
X159054236Y-128039418D01*
X159027570Y-127911502D01*
X159018994Y-127753562D01*
X159018881Y-127733333D01*
X159044641Y-127434440D01*
X159122632Y-127173651D01*
X159177602Y-127079809D01*
X159681727Y-127079809D01*
X159699759Y-127174046D01*
X159783987Y-127272229D01*
X159886202Y-127346373D01*
X160052252Y-127475813D01*
X160155746Y-127618640D01*
X160199791Y-127783101D01*
X160187493Y-127977441D01*
X160163160Y-128081352D01*
X160143536Y-128169906D01*
X160151051Y-128220705D01*
X160186726Y-128256603D01*
X160272672Y-128283306D01*
X160392099Y-128274279D01*
X160524092Y-128232335D01*
X160582153Y-128203394D01*
X160703447Y-128101864D01*
X160778919Y-127957869D01*
X160810527Y-127767126D01*
X160811750Y-127700389D01*
X160788394Y-127446070D01*
X160721599Y-127239419D01*
X160608584Y-127075273D01*
X160446570Y-126948466D01*
X160390741Y-126918296D01*
X160197923Y-126849426D01*
X160018733Y-126839371D01*
X159861000Y-126888414D01*
X159843794Y-126898340D01*
X159729777Y-126988311D01*
X159681727Y-127079809D01*
X159177602Y-127079809D01*
X159251758Y-126953213D01*
X159430920Y-126775375D01*
G37*
%TO.C,G\u002A\u002A\u002A*%
G36*
X135737956Y-99893963D02*
G01*
X135728576Y-99903343D01*
X135719197Y-99893963D01*
X135728576Y-99884584D01*
X135737956Y-99893963D01*
G37*
G36*
X131910638Y-102957531D02*
G01*
X131911932Y-102800589D01*
X131913816Y-102656827D01*
X131916297Y-102530469D01*
X131919382Y-102425739D01*
X131923076Y-102346863D01*
X131927387Y-102298065D01*
X131930492Y-102284532D01*
X131935752Y-102276709D01*
X131944451Y-102270103D01*
X131959558Y-102264612D01*
X131984039Y-102260138D01*
X132020864Y-102256581D01*
X132073001Y-102253841D01*
X132143417Y-102251818D01*
X132235080Y-102250412D01*
X132350960Y-102249524D01*
X132494023Y-102249053D01*
X132667238Y-102248900D01*
X132873574Y-102248965D01*
X132985699Y-102249045D01*
X134021486Y-102249842D01*
X134195521Y-102415572D01*
X134369557Y-102581302D01*
X134370939Y-102860306D01*
X134371305Y-102961224D01*
X134371379Y-103050626D01*
X134371174Y-103120910D01*
X134370702Y-103164475D01*
X134370427Y-103172981D01*
X134356608Y-103199519D01*
X134320895Y-103243996D01*
X134269332Y-103299311D01*
X134229909Y-103337974D01*
X134091286Y-103469296D01*
X134267152Y-103838941D01*
X134332926Y-103979618D01*
X134382073Y-104091140D01*
X134415771Y-104177380D01*
X134435196Y-104242210D01*
X134441523Y-104289502D01*
X134435930Y-104323127D01*
X134421058Y-104345529D01*
X134391688Y-104356274D01*
X134334155Y-104363847D01*
X134257257Y-104368318D01*
X134169795Y-104369758D01*
X134080569Y-104368237D01*
X133998378Y-104363826D01*
X133932023Y-104356596D01*
X133890303Y-104346617D01*
X133881875Y-104341206D01*
X133867957Y-104316207D01*
X133842266Y-104262319D01*
X133807406Y-104185306D01*
X133765980Y-104090934D01*
X133720591Y-103984967D01*
X133714565Y-103970711D01*
X133569526Y-103627050D01*
X133040447Y-103622069D01*
X132511368Y-103617087D01*
X132511368Y-103970052D01*
X132510456Y-104110154D01*
X132507616Y-104215358D01*
X132502695Y-104288241D01*
X132495537Y-104331382D01*
X132488857Y-104345529D01*
X132460668Y-104355183D01*
X132403752Y-104362296D01*
X132326815Y-104366869D01*
X132238565Y-104368900D01*
X132147706Y-104368391D01*
X132062944Y-104365341D01*
X131992986Y-104359751D01*
X131946538Y-104351619D01*
X131933584Y-104345529D01*
X131928798Y-104322431D01*
X131924533Y-104266043D01*
X131920795Y-104180589D01*
X131917591Y-104070293D01*
X131914927Y-103939381D01*
X131912809Y-103792077D01*
X131911244Y-103632605D01*
X131910238Y-103465190D01*
X131909798Y-103294056D01*
X131909809Y-103280005D01*
X132511368Y-103280005D01*
X133582890Y-103280005D01*
X133684943Y-103183487D01*
X133786996Y-103086970D01*
X133786996Y-102772667D01*
X133709570Y-102688670D01*
X133632144Y-102604672D01*
X132511368Y-102604672D01*
X132511368Y-103280005D01*
X131909809Y-103280005D01*
X131909929Y-103123429D01*
X131910638Y-102957531D01*
G37*
G36*
X133555356Y-98877562D02*
G01*
X133557088Y-98900002D01*
X133551114Y-98946266D01*
X133540002Y-99004091D01*
X133526320Y-99061219D01*
X133512637Y-99105387D01*
X133504052Y-99122484D01*
X133481168Y-99123541D01*
X133433277Y-99111653D01*
X133369593Y-99089260D01*
X133352257Y-99082295D01*
X133214839Y-99025697D01*
X133003820Y-99065886D01*
X132920463Y-99083008D01*
X132852639Y-99099310D01*
X132807670Y-99112870D01*
X132792779Y-99121310D01*
X132805234Y-99140270D01*
X132838782Y-99178997D01*
X132887666Y-99231054D01*
X132923580Y-99267627D01*
X133018224Y-99366960D01*
X133103717Y-99465284D01*
X133176374Y-99557638D01*
X133232510Y-99639064D01*
X133268438Y-99704601D01*
X133280497Y-99747917D01*
X133264653Y-99765333D01*
X133223699Y-99790108D01*
X133182011Y-99809965D01*
X133091448Y-99849006D01*
X133029582Y-99874980D01*
X132990650Y-99889656D01*
X132968886Y-99894802D01*
X132958528Y-99892187D01*
X132953812Y-99883580D01*
X132952712Y-99880323D01*
X132943394Y-99848509D01*
X132929331Y-99796347D01*
X132923096Y-99772342D01*
X132866754Y-99624260D01*
X132778126Y-99483192D01*
X132662398Y-99354251D01*
X132524756Y-99242548D01*
X132370383Y-99153194D01*
X132244185Y-99103096D01*
X132187290Y-99083145D01*
X132148196Y-99066167D01*
X132136319Y-99057243D01*
X132153816Y-99047807D01*
X132202356Y-99034756D01*
X132275754Y-99019128D01*
X132367827Y-99001961D01*
X132472387Y-98984293D01*
X132583251Y-98967160D01*
X132694233Y-98951601D01*
X132799148Y-98938652D01*
X132891811Y-98929352D01*
X132905312Y-98928254D01*
X133022156Y-98918693D01*
X133147539Y-98907711D01*
X133265586Y-98896736D01*
X133352023Y-98888087D01*
X133433160Y-98880522D01*
X133499570Y-98876191D01*
X133542978Y-98875523D01*
X133555356Y-98877562D01*
G37*
G36*
X139142757Y-104414938D02*
G01*
X139142757Y-104546253D01*
X138863364Y-104555632D01*
X138753009Y-104559882D01*
X138674338Y-104564573D01*
X138621521Y-104570526D01*
X138588725Y-104578561D01*
X138570119Y-104589499D01*
X138563313Y-104597841D01*
X138552696Y-104638271D01*
X138563322Y-104663498D01*
X138577284Y-104677638D01*
X138602599Y-104687534D01*
X138645743Y-104694161D01*
X138713192Y-104698498D01*
X138811423Y-104701521D01*
X138816088Y-104701628D01*
X138913602Y-104704259D01*
X138981231Y-104707882D01*
X139026609Y-104713979D01*
X139057367Y-104724030D01*
X139081137Y-104739516D01*
X139100161Y-104756726D01*
X139128787Y-104788308D01*
X139144472Y-104821764D01*
X139150988Y-104869648D01*
X139152136Y-104929698D01*
X139150480Y-104998791D01*
X139142878Y-105043060D01*
X139125381Y-105075147D01*
X139097543Y-105104401D01*
X139042950Y-105155928D01*
X138305706Y-105155928D01*
X138317350Y-105015234D01*
X138617498Y-105005854D01*
X138729640Y-105002181D01*
X138809802Y-104998654D01*
X138863508Y-104994323D01*
X138896281Y-104988240D01*
X138913644Y-104979455D01*
X138921120Y-104967020D01*
X138923776Y-104953234D01*
X138925201Y-104915698D01*
X138913756Y-104889104D01*
X138884404Y-104871633D01*
X138832110Y-104861469D01*
X138751836Y-104856795D01*
X138653674Y-104855780D01*
X138422436Y-104855780D01*
X138374583Y-104793042D01*
X138343497Y-104741917D01*
X138329327Y-104684948D01*
X138326730Y-104627889D01*
X138329464Y-104564254D01*
X138341796Y-104521789D01*
X138369926Y-104484302D01*
X138389041Y-104465080D01*
X138451351Y-104404686D01*
X139142757Y-104414938D01*
G37*
G36*
X134872438Y-96148240D02*
G01*
X134875050Y-96165566D01*
X134872294Y-96197588D01*
X134864569Y-96259393D01*
X134852717Y-96345552D01*
X134837578Y-96450634D01*
X134819992Y-96569208D01*
X134800800Y-96695845D01*
X134780844Y-96825113D01*
X134760964Y-96951583D01*
X134742000Y-97069825D01*
X134724793Y-97174407D01*
X134710185Y-97259899D01*
X134699016Y-97320872D01*
X134692126Y-97351894D01*
X134690957Y-97354614D01*
X134668761Y-97356604D01*
X134616169Y-97354180D01*
X134539979Y-97347858D01*
X134446988Y-97338156D01*
X134396671Y-97332242D01*
X134294907Y-97320101D01*
X134203763Y-97309700D01*
X134130967Y-97301887D01*
X134084248Y-97297508D01*
X134073897Y-97296887D01*
X134040153Y-97309975D01*
X133985237Y-97350883D01*
X133908356Y-97420250D01*
X133853136Y-97474022D01*
X133786661Y-97539396D01*
X133729858Y-97593993D01*
X133687888Y-97632949D01*
X133665910Y-97651397D01*
X133664132Y-97652235D01*
X133650223Y-97637614D01*
X133646497Y-97628786D01*
X133634421Y-97580395D01*
X133621368Y-97508366D01*
X133609336Y-97426458D01*
X133600322Y-97348435D01*
X133596325Y-97288056D01*
X133596277Y-97282845D01*
X133598803Y-97239216D01*
X133610412Y-97204526D01*
X133637148Y-97168579D01*
X133685057Y-97121181D01*
X133700808Y-97106573D01*
X133749208Y-97058194D01*
X133782251Y-97017826D01*
X133793948Y-96992974D01*
X133793269Y-96990635D01*
X133793260Y-96980075D01*
X133802389Y-96984202D01*
X133828750Y-96978684D01*
X133878972Y-96944406D01*
X133952938Y-96881461D01*
X134050530Y-96789946D01*
X134079685Y-96761556D01*
X134124431Y-96719343D01*
X134159475Y-96689231D01*
X134173481Y-96679683D01*
X134193051Y-96665559D01*
X134235091Y-96631274D01*
X134293977Y-96581533D01*
X134364083Y-96521042D01*
X134386498Y-96501471D01*
X134486804Y-96415062D01*
X134583661Y-96334221D01*
X134672616Y-96262432D01*
X134749215Y-96203178D01*
X134809004Y-96159945D01*
X134847529Y-96136215D01*
X134857872Y-96132737D01*
X134872438Y-96148240D01*
G37*
G36*
X134855263Y-103455768D02*
G01*
X134870696Y-103409090D01*
X134875031Y-103391669D01*
X134857146Y-103384764D01*
X134806956Y-103379260D01*
X134729661Y-103375505D01*
X134630459Y-103373850D01*
X134608722Y-103373801D01*
X134342413Y-103373801D01*
X134404620Y-103309620D01*
X134441390Y-103264234D01*
X134467552Y-103211358D01*
X134484668Y-103144075D01*
X134494302Y-103055463D01*
X134498018Y-102938603D01*
X134498213Y-102895440D01*
X134497125Y-102776268D01*
X134491780Y-102686076D01*
X134479055Y-102616343D01*
X134455827Y-102558548D01*
X134418975Y-102504172D01*
X134365375Y-102444691D01*
X134314304Y-102393571D01*
X134162181Y-102243877D01*
X134164453Y-101563535D01*
X134509081Y-101319665D01*
X134609469Y-101249274D01*
X134700255Y-101186843D01*
X134776783Y-101135475D01*
X134834400Y-101098269D01*
X134868453Y-101078326D01*
X134875105Y-101075795D01*
X134879889Y-101086377D01*
X134883941Y-101119355D01*
X134887296Y-101176573D01*
X134889986Y-101259880D01*
X134892042Y-101371121D01*
X134893497Y-101512142D01*
X134894384Y-101684789D01*
X134894734Y-101890909D01*
X134894581Y-102132348D01*
X134894497Y-102182301D01*
X134894372Y-102404258D01*
X134894814Y-102606211D01*
X134895792Y-102785829D01*
X134897272Y-102940784D01*
X134899223Y-103068744D01*
X134901615Y-103167381D01*
X134904414Y-103234366D01*
X134907588Y-103267368D01*
X134909367Y-103270336D01*
X134919975Y-103248395D01*
X134941331Y-103195890D01*
X134971611Y-103117607D01*
X135008993Y-103018331D01*
X135051653Y-102902848D01*
X135097768Y-102775943D01*
X135098647Y-102773505D01*
X135145395Y-102646004D01*
X135189605Y-102529567D01*
X135229307Y-102429059D01*
X135262533Y-102349342D01*
X135287315Y-102295280D01*
X135301685Y-102271737D01*
X135301738Y-102271696D01*
X135321450Y-102264472D01*
X135361651Y-102258745D01*
X135425397Y-102254395D01*
X135515744Y-102251299D01*
X135635748Y-102249336D01*
X135788466Y-102248384D01*
X135891183Y-102248247D01*
X136449942Y-102248247D01*
X136476423Y-102290455D01*
X136499335Y-102336315D01*
X136522107Y-102395660D01*
X136525968Y-102407700D01*
X136547365Y-102471832D01*
X136569859Y-102531566D01*
X136572960Y-102539015D01*
X136585451Y-102571248D01*
X136608549Y-102633626D01*
X136640359Y-102720918D01*
X136678986Y-102827896D01*
X136722533Y-102949331D01*
X136769104Y-103079993D01*
X136770184Y-103083033D01*
X136823863Y-103233745D01*
X136880994Y-103393514D01*
X136938129Y-103552739D01*
X136991819Y-103701822D01*
X137038616Y-103831163D01*
X137062950Y-103898035D01*
X137101085Y-104005069D01*
X137134186Y-104102877D01*
X137160163Y-104184881D01*
X137176926Y-104244504D01*
X137182417Y-104274158D01*
X137179459Y-104309718D01*
X137167004Y-104335024D01*
X137139678Y-104351791D01*
X137092108Y-104361734D01*
X137018921Y-104366568D01*
X136914745Y-104368008D01*
X136888329Y-104368040D01*
X136783399Y-104368256D01*
X136708508Y-104365470D01*
X136656414Y-104354536D01*
X136619876Y-104330305D01*
X136591652Y-104287630D01*
X136564501Y-104221362D01*
X136531181Y-104126353D01*
X136525483Y-104110101D01*
X136464432Y-103936578D01*
X135202256Y-103936578D01*
X135140331Y-104112741D01*
X135105245Y-104211990D01*
X135077030Y-104281512D01*
X135049062Y-104326590D01*
X135014714Y-104352502D01*
X134967361Y-104364529D01*
X134900377Y-104367952D01*
X134819987Y-104368040D01*
X134723617Y-104366821D01*
X134658351Y-104362634D01*
X134617842Y-104354687D01*
X134595737Y-104342186D01*
X134593511Y-104339743D01*
X134582713Y-104317860D01*
X134579688Y-104284761D01*
X134585334Y-104237263D01*
X134600547Y-104172187D01*
X134626227Y-104086353D01*
X134663270Y-103976579D01*
X134712573Y-103839685D01*
X134775036Y-103672492D01*
X134801510Y-103602710D01*
X134811482Y-103575993D01*
X135344125Y-103575993D01*
X135351543Y-103583454D01*
X135376212Y-103589222D01*
X135421633Y-103593454D01*
X135491308Y-103596306D01*
X135588739Y-103597935D01*
X135717427Y-103598497D01*
X135842698Y-103598293D01*
X135992530Y-103597636D01*
X136108875Y-103596611D01*
X136195765Y-103594942D01*
X136257230Y-103592351D01*
X136297303Y-103588562D01*
X136320015Y-103583299D01*
X136329398Y-103576283D01*
X136329482Y-103567240D01*
X136328646Y-103564934D01*
X136321482Y-103546353D01*
X136308261Y-103511029D01*
X136288000Y-103456287D01*
X136259716Y-103379451D01*
X136222425Y-103277848D01*
X136175145Y-103148800D01*
X136116892Y-102989634D01*
X136053012Y-102814981D01*
X135975571Y-102603207D01*
X135833422Y-102608629D01*
X135691273Y-102614052D01*
X135517755Y-103083033D01*
X135471531Y-103208826D01*
X135429935Y-103323669D01*
X135394682Y-103422695D01*
X135367487Y-103501035D01*
X135350065Y-103553820D01*
X135344125Y-103575993D01*
X134811482Y-103575993D01*
X134831279Y-103522954D01*
X134855263Y-103455768D01*
G37*
G36*
X135831752Y-102173210D02*
G01*
X135586951Y-102173210D01*
X135467257Y-102174244D01*
X135378657Y-102179458D01*
X135314738Y-102192021D01*
X135269088Y-102215098D01*
X135235296Y-102251860D01*
X135206950Y-102305472D01*
X135179342Y-102374593D01*
X135152271Y-102446500D01*
X135129411Y-102507739D01*
X135114782Y-102547526D01*
X135112802Y-102553084D01*
X135094112Y-102580789D01*
X135081972Y-102585913D01*
X135076643Y-102567978D01*
X135072180Y-102514001D01*
X135068578Y-102423729D01*
X135065829Y-102296907D01*
X135063928Y-102133281D01*
X135062869Y-101932595D01*
X135062624Y-101753354D01*
X135062624Y-100920795D01*
X135125818Y-100872594D01*
X135203407Y-100815877D01*
X135299076Y-100749551D01*
X135401304Y-100681285D01*
X135498571Y-100618747D01*
X135579356Y-100569606D01*
X135591207Y-100562804D01*
X135646745Y-100529895D01*
X135687426Y-100503094D01*
X135703763Y-100488973D01*
X135722755Y-100471790D01*
X135761810Y-100446707D01*
X135770785Y-100441610D01*
X135831752Y-100407721D01*
X135831752Y-102173210D01*
G37*
G36*
X133582818Y-104412086D02*
G01*
X133614075Y-104426907D01*
X133652445Y-104456581D01*
X133705792Y-104505553D01*
X133742499Y-104540539D01*
X133815491Y-104610318D01*
X133890870Y-104682347D01*
X133956767Y-104745285D01*
X133981782Y-104769164D01*
X134077764Y-104860760D01*
X134087144Y-104637849D01*
X134096523Y-104414938D01*
X134265356Y-104414938D01*
X134270443Y-104785433D01*
X134271745Y-104917941D01*
X134271382Y-105016945D01*
X134269153Y-105086430D01*
X134264859Y-105130381D01*
X134258297Y-105152785D01*
X134251683Y-105157851D01*
X134176448Y-105161691D01*
X134120302Y-105155887D01*
X134071975Y-105135884D01*
X134020199Y-105097125D01*
X133957811Y-105039031D01*
X133884033Y-104967995D01*
X133803008Y-104890517D01*
X133730594Y-104821755D01*
X133721339Y-104813020D01*
X133608783Y-104706905D01*
X133599404Y-104934175D01*
X133590024Y-105161446D01*
X133518064Y-105163377D01*
X133466977Y-105159499D01*
X133432248Y-105147465D01*
X133428535Y-105144117D01*
X133423043Y-105118965D01*
X133418879Y-105062006D01*
X133416235Y-104978934D01*
X133415297Y-104875444D01*
X133416079Y-104768933D01*
X133421191Y-104414938D01*
X133510195Y-104409225D01*
X133550812Y-104407673D01*
X133582818Y-104412086D01*
G37*
G36*
X134475550Y-95925876D02*
G01*
X134567964Y-95949621D01*
X134621278Y-95965501D01*
X134700732Y-95990924D01*
X134764910Y-96013414D01*
X134806537Y-96030292D01*
X134818754Y-96038216D01*
X134804990Y-96054006D01*
X134767528Y-96088028D01*
X134712107Y-96135259D01*
X134645302Y-96190003D01*
X134500825Y-96307413D01*
X134340553Y-96439432D01*
X134176814Y-96575835D01*
X134021936Y-96706399D01*
X133993347Y-96730707D01*
X133928331Y-96788033D01*
X133848366Y-96861412D01*
X133764896Y-96940227D01*
X133707269Y-96996135D01*
X133638424Y-97064560D01*
X133592125Y-97113635D01*
X133563910Y-97150053D01*
X133549316Y-97180504D01*
X133543880Y-97211682D01*
X133543126Y-97242262D01*
X133546041Y-97328238D01*
X133553929Y-97435485D01*
X133565499Y-97552367D01*
X133579464Y-97667245D01*
X133594535Y-97768483D01*
X133609423Y-97844442D01*
X133610126Y-97847315D01*
X133623805Y-97906102D01*
X133631786Y-97947758D01*
X133632561Y-97962000D01*
X133617030Y-97952628D01*
X133579909Y-97924160D01*
X133528068Y-97881945D01*
X133505607Y-97863133D01*
X133439093Y-97806562D01*
X133374566Y-97750935D01*
X133324356Y-97706892D01*
X133318015Y-97701218D01*
X133271517Y-97660916D01*
X133207830Y-97607631D01*
X133139229Y-97551608D01*
X133125733Y-97540762D01*
X133068779Y-97494291D01*
X133025109Y-97457042D01*
X133001456Y-97434829D01*
X132999108Y-97431435D01*
X133010245Y-97410162D01*
X133040734Y-97365600D01*
X133086198Y-97303516D01*
X133142256Y-97229679D01*
X133204531Y-97149859D01*
X133268642Y-97069824D01*
X133329671Y-96995981D01*
X133355137Y-96965542D01*
X133399412Y-96912395D01*
X133457361Y-96842712D01*
X133523846Y-96762668D01*
X133564010Y-96714274D01*
X133659162Y-96602546D01*
X133761016Y-96488152D01*
X133865871Y-96374779D01*
X133970026Y-96266115D01*
X134069780Y-96165848D01*
X134161432Y-96077666D01*
X134241282Y-96005256D01*
X134305628Y-95952308D01*
X134350771Y-95922508D01*
X134363339Y-95917734D01*
X134409231Y-95915597D01*
X134475550Y-95925876D01*
G37*
G36*
X133959336Y-100385026D02*
G01*
X133996310Y-100414532D01*
X134118729Y-100509383D01*
X134268853Y-100596809D01*
X134436912Y-100671273D01*
X134471708Y-100684085D01*
X134532685Y-100704878D01*
X134585189Y-100719465D01*
X134638157Y-100728949D01*
X134700522Y-100734428D01*
X134781221Y-100737004D01*
X134889190Y-100737777D01*
X134907849Y-100737805D01*
X135006638Y-100738583D01*
X135090660Y-100740516D01*
X135153483Y-100743354D01*
X135188676Y-100746847D01*
X135193927Y-100748907D01*
X135179318Y-100761702D01*
X135138381Y-100792995D01*
X135075459Y-100839675D01*
X134994895Y-100898631D01*
X134901032Y-100966755D01*
X134798213Y-101040934D01*
X134690781Y-101118058D01*
X134583079Y-101195018D01*
X134479450Y-101268701D01*
X134384238Y-101335999D01*
X134301784Y-101393800D01*
X134236433Y-101438994D01*
X134192527Y-101468470D01*
X134174409Y-101479118D01*
X134174377Y-101479118D01*
X134156485Y-101466247D01*
X134155604Y-101464894D01*
X134147925Y-101440944D01*
X134135350Y-101389992D01*
X134120255Y-101321844D01*
X134116085Y-101301905D01*
X134097973Y-101215558D01*
X134073926Y-101102799D01*
X134046155Y-100973839D01*
X134016876Y-100838889D01*
X133988302Y-100708159D01*
X133962648Y-100591861D01*
X133945025Y-100513018D01*
X133931515Y-100451448D01*
X133922051Y-100405107D01*
X133918970Y-100386393D01*
X133929270Y-100372601D01*
X133959336Y-100385026D01*
G37*
G36*
X135080482Y-98422255D02*
G01*
X135248302Y-98462723D01*
X135402636Y-98532264D01*
X135458147Y-98567632D01*
X135597940Y-98686366D01*
X135708349Y-98823395D01*
X135789442Y-98974360D01*
X135841284Y-99134902D01*
X135863941Y-99300661D01*
X135857480Y-99467279D01*
X135821967Y-99630396D01*
X135757468Y-99785654D01*
X135664049Y-99928693D01*
X135541776Y-100055154D01*
X135434370Y-100134475D01*
X135291375Y-100211062D01*
X135146909Y-100257004D01*
X134988939Y-100275664D01*
X134926545Y-100276351D01*
X134845439Y-100274414D01*
X134775384Y-100271074D01*
X134727194Y-100266916D01*
X134715578Y-100264947D01*
X134626683Y-100234965D01*
X134524338Y-100188003D01*
X134423499Y-100131590D01*
X134347230Y-100079599D01*
X134238592Y-99977397D01*
X134142546Y-99851602D01*
X134066972Y-99714170D01*
X134021818Y-99585789D01*
X134001817Y-99461648D01*
X133996647Y-99323977D01*
X134005837Y-99187337D01*
X134028913Y-99066291D01*
X134039819Y-99031330D01*
X134114615Y-98873409D01*
X134220868Y-98728034D01*
X134352908Y-98602321D01*
X134420579Y-98553166D01*
X134569223Y-98476318D01*
X134733630Y-98428951D01*
X134906487Y-98410964D01*
X135080482Y-98422255D01*
G37*
G36*
X134349773Y-96498542D02*
G01*
X134340393Y-96507922D01*
X134331014Y-96498542D01*
X134340393Y-96489163D01*
X134349773Y-96498542D01*
G37*
G36*
X136547530Y-104898086D02*
G01*
X136548901Y-104783982D01*
X136553983Y-104414938D01*
X136909263Y-104409821D01*
X137264543Y-104404705D01*
X137345415Y-104484074D01*
X137426287Y-104563444D01*
X137426287Y-104972673D01*
X137330217Y-105064301D01*
X137281236Y-105109563D01*
X137242833Y-105142366D01*
X137222849Y-105156037D01*
X137222351Y-105156105D01*
X137048657Y-105158648D01*
X136908803Y-105160535D01*
X136799115Y-105161782D01*
X136715921Y-105162406D01*
X136655547Y-105162426D01*
X136614320Y-105161858D01*
X136588568Y-105160720D01*
X136575293Y-105159167D01*
X136564496Y-105153965D01*
X136556624Y-105139939D01*
X136551334Y-105112214D01*
X136548284Y-105065913D01*
X136547290Y-105005854D01*
X136769714Y-105005854D01*
X136946565Y-105005854D01*
X137029737Y-105005242D01*
X137084100Y-105002086D01*
X137118360Y-104994409D01*
X137141221Y-104980232D01*
X137161390Y-104957578D01*
X137161909Y-104956918D01*
X137181669Y-104925976D01*
X137192624Y-104889047D01*
X137196544Y-104835573D01*
X137195299Y-104757849D01*
X137190615Y-104675348D01*
X137179069Y-104618984D01*
X137154499Y-104583794D01*
X137110746Y-104564814D01*
X137041650Y-104557082D01*
X136944341Y-104555632D01*
X136769714Y-104555632D01*
X136769714Y-105005854D01*
X136547290Y-105005854D01*
X136547130Y-104996162D01*
X136547530Y-104898086D01*
G37*
G36*
X133238288Y-104409312D02*
G01*
X133346154Y-104414938D01*
X133357532Y-105002272D01*
X133297683Y-105070437D01*
X133255878Y-105113838D01*
X133219217Y-105144941D01*
X133207577Y-105151955D01*
X133178863Y-105156313D01*
X133120068Y-105159372D01*
X133038610Y-105160939D01*
X132941910Y-105160818D01*
X132894590Y-105160147D01*
X132611860Y-105154987D01*
X132542361Y-105083814D01*
X132472863Y-105012641D01*
X132478046Y-104713790D01*
X132483229Y-104414938D01*
X132591095Y-104409312D01*
X132698960Y-104403686D01*
X132698960Y-104673724D01*
X132699529Y-104792293D01*
X132703414Y-104878550D01*
X132713888Y-104937704D01*
X132734221Y-104974959D01*
X132767686Y-104995525D01*
X132817554Y-105004606D01*
X132887096Y-105007412D01*
X132908824Y-105007756D01*
X132988783Y-105008466D01*
X133046750Y-105004399D01*
X133086261Y-104990411D01*
X133110849Y-104961359D01*
X133124049Y-104912100D01*
X133129398Y-104837493D01*
X133130428Y-104732393D01*
X133130423Y-104685351D01*
X133130423Y-104403686D01*
X133238288Y-104409312D01*
G37*
G36*
X134969244Y-96602308D02*
G01*
X135043861Y-96619370D01*
X135134466Y-96643425D01*
X135159654Y-96650603D01*
X135265580Y-96680421D01*
X135347155Y-96700590D01*
X135415777Y-96712847D01*
X135482845Y-96718930D01*
X135559756Y-96720574D01*
X135616021Y-96720144D01*
X135807798Y-96708657D01*
X135971822Y-96679961D01*
X135972365Y-96679824D01*
X136042165Y-96663357D01*
X136096617Y-96652470D01*
X136126716Y-96648894D01*
X136129745Y-96649588D01*
X136123949Y-96667391D01*
X136100768Y-96703884D01*
X136085980Y-96724039D01*
X136013284Y-96797807D01*
X135913090Y-96868899D01*
X135795233Y-96930946D01*
X135719197Y-96961516D01*
X135673187Y-96976805D01*
X135629291Y-96988030D01*
X135580622Y-96995812D01*
X135520291Y-97000772D01*
X135441412Y-97003531D01*
X135337096Y-97004708D01*
X135237477Y-97004927D01*
X135112664Y-97005250D01*
X135020958Y-97006373D01*
X134957952Y-97008668D01*
X134919237Y-97012505D01*
X134900407Y-97018254D01*
X134897051Y-97026287D01*
X134901309Y-97033180D01*
X134921549Y-97057115D01*
X134961037Y-97103664D01*
X135014711Y-97166866D01*
X135077509Y-97240759D01*
X135101640Y-97269141D01*
X135284550Y-97486426D01*
X135445824Y-97682815D01*
X135590163Y-97864129D01*
X135722273Y-98036191D01*
X135735067Y-98053212D01*
X135792911Y-98128303D01*
X135843822Y-98190640D01*
X135883246Y-98234924D01*
X135906630Y-98255856D01*
X135909985Y-98256756D01*
X135919723Y-98263346D01*
X135916476Y-98270792D01*
X135917314Y-98298712D01*
X135933841Y-98331709D01*
X135955602Y-98367651D01*
X135963067Y-98388019D01*
X135952053Y-98402534D01*
X135929853Y-98395735D01*
X135913817Y-98375102D01*
X135891489Y-98346944D01*
X135844298Y-98304878D01*
X135779578Y-98254259D01*
X135704663Y-98200440D01*
X135626886Y-98148776D01*
X135553581Y-98104622D01*
X135515538Y-98084330D01*
X135327473Y-98008040D01*
X135129233Y-97963023D01*
X134913373Y-97947591D01*
X134912550Y-97947587D01*
X134690295Y-97961591D01*
X134485119Y-98006963D01*
X134291191Y-98085358D01*
X134156838Y-98162163D01*
X134107089Y-98192201D01*
X134071481Y-98210173D01*
X134059773Y-98212654D01*
X134060629Y-98192428D01*
X134069199Y-98144891D01*
X134083783Y-98079052D01*
X134089469Y-98055477D01*
X134115241Y-97919935D01*
X134117952Y-97809934D01*
X134096330Y-97720471D01*
X134049098Y-97646541D01*
X133974983Y-97583140D01*
X133967976Y-97578452D01*
X133898647Y-97532808D01*
X133965138Y-97464715D01*
X134000729Y-97423987D01*
X134019413Y-97393898D01*
X134019721Y-97384714D01*
X134028806Y-97378950D01*
X134065477Y-97378027D01*
X134089686Y-97379488D01*
X134170694Y-97386416D01*
X134267336Y-97395161D01*
X134370875Y-97404878D01*
X134472570Y-97414720D01*
X134563682Y-97423840D01*
X134635473Y-97431391D01*
X134679202Y-97436528D01*
X134680874Y-97436759D01*
X134739966Y-97445083D01*
X134769739Y-97281340D01*
X134784555Y-97197129D01*
X134802722Y-97089790D01*
X134821910Y-96973282D01*
X134839351Y-96864347D01*
X134855004Y-96770463D01*
X134870109Y-96689834D01*
X134883172Y-96629781D01*
X134892698Y-96597625D01*
X134894415Y-96594732D01*
X134917226Y-96593631D01*
X134969244Y-96602308D01*
G37*
G36*
X132932921Y-100378953D02*
G01*
X132974451Y-100391859D01*
X132992077Y-100398302D01*
X133077951Y-100431095D01*
X133171832Y-100467351D01*
X133266952Y-100504409D01*
X133356545Y-100539606D01*
X133433843Y-100570278D01*
X133492078Y-100593763D01*
X133524484Y-100607399D01*
X133528513Y-100609377D01*
X133532351Y-100621035D01*
X133522539Y-100646406D01*
X133496723Y-100689394D01*
X133452544Y-100753906D01*
X133387648Y-100843847D01*
X133384329Y-100848382D01*
X133341961Y-100908981D01*
X133310742Y-100958898D01*
X133295591Y-100990047D01*
X133295031Y-100995161D01*
X133289100Y-101005294D01*
X133284238Y-101003070D01*
X133265211Y-101011379D01*
X133226808Y-101041698D01*
X133175365Y-101088715D01*
X133138389Y-101125256D01*
X133038508Y-101218233D01*
X132915825Y-101319218D01*
X132781335Y-101419931D01*
X132646035Y-101512093D01*
X132535291Y-101579400D01*
X132444483Y-101627468D01*
X132340416Y-101677325D01*
X132230275Y-101726081D01*
X132121247Y-101770842D01*
X132020517Y-101808717D01*
X131935271Y-101836815D01*
X131872694Y-101852243D01*
X131852176Y-101854303D01*
X131825144Y-101840138D01*
X131803742Y-101794525D01*
X131798092Y-101774576D01*
X131782614Y-101717470D01*
X131760670Y-101639820D01*
X131736617Y-101557008D01*
X131733002Y-101544776D01*
X131710342Y-101465132D01*
X131690756Y-101390675D01*
X131677892Y-101335392D01*
X131676496Y-101328139D01*
X131664447Y-101261577D01*
X131797140Y-101197072D01*
X131859443Y-101165467D01*
X131906050Y-101139311D01*
X131928819Y-101123252D01*
X131929832Y-101121377D01*
X131944843Y-101109720D01*
X131953281Y-101108281D01*
X132013807Y-101098873D01*
X132096189Y-101080383D01*
X132186976Y-101056408D01*
X132272714Y-101030548D01*
X132339949Y-101006400D01*
X132349525Y-101002301D01*
X132413637Y-100968255D01*
X132488451Y-100920443D01*
X132563339Y-100866560D01*
X132627673Y-100814300D01*
X132670824Y-100771357D01*
X132673848Y-100767496D01*
X132687242Y-100735615D01*
X132685019Y-100721368D01*
X132686736Y-100712986D01*
X132694895Y-100716857D01*
X132716497Y-100709965D01*
X132749222Y-100676169D01*
X132788097Y-100622455D01*
X132828144Y-100555808D01*
X132864389Y-100483213D01*
X132869251Y-100472098D01*
X132892013Y-100420377D01*
X132908589Y-100385237D01*
X132913529Y-100376613D01*
X132932921Y-100378953D01*
G37*
G36*
X134570585Y-104781301D02*
G01*
X134565504Y-105158939D01*
X134465471Y-105164316D01*
X134399819Y-105163771D01*
X134362743Y-105154329D01*
X134357176Y-105148163D01*
X134354845Y-105123381D01*
X134353308Y-105067326D01*
X134352619Y-104986238D01*
X134352828Y-104886356D01*
X134353989Y-104773918D01*
X134354034Y-104770786D01*
X134359153Y-104414938D01*
X134467410Y-104409301D01*
X134575667Y-104403663D01*
X134570585Y-104781301D01*
G37*
G36*
X135811544Y-102686859D02*
G01*
X135822349Y-102725697D01*
X135828482Y-102800192D01*
X135831176Y-102910365D01*
X135831682Y-103030069D01*
X135831612Y-103383180D01*
X135689497Y-103383366D01*
X135619382Y-103382270D01*
X135564294Y-103379202D01*
X135534634Y-103374786D01*
X135532929Y-103373987D01*
X135534679Y-103354298D01*
X135548120Y-103305134D01*
X135571474Y-103232034D01*
X135602964Y-103140541D01*
X135640813Y-103036195D01*
X135644324Y-103026755D01*
X135696968Y-102887637D01*
X135738780Y-102784066D01*
X135770992Y-102716065D01*
X135794836Y-102683655D01*
X135811544Y-102686859D01*
G37*
G36*
X136465268Y-104784389D02*
G01*
X136460186Y-105165308D01*
X136369237Y-105159276D01*
X136324752Y-105154349D01*
X136287914Y-105142898D01*
X136250011Y-105119730D01*
X136202333Y-105079652D01*
X136144126Y-105025082D01*
X136071071Y-104955778D01*
X135993644Y-104883105D01*
X135925290Y-104819659D01*
X135906789Y-104802688D01*
X135803613Y-104708456D01*
X135798346Y-104932192D01*
X135794806Y-105021696D01*
X135789173Y-105093756D01*
X135782157Y-105141553D01*
X135774897Y-105158273D01*
X135715704Y-105162722D01*
X135664716Y-105161237D01*
X135634914Y-105154385D01*
X135632383Y-105152050D01*
X135630408Y-105131197D01*
X135628540Y-105079727D01*
X135626851Y-105004541D01*
X135625414Y-104912542D01*
X135624301Y-104810630D01*
X135623584Y-104705707D01*
X135623335Y-104604674D01*
X135623626Y-104514433D01*
X135624530Y-104441886D01*
X135624818Y-104429008D01*
X135643212Y-104412764D01*
X135695878Y-104405789D01*
X135711483Y-104405559D01*
X135743412Y-104406425D01*
X135771156Y-104411418D01*
X135799853Y-104424129D01*
X135834640Y-104448150D01*
X135880656Y-104487071D01*
X135943038Y-104544485D01*
X136026925Y-104623982D01*
X136035080Y-104631747D01*
X136111881Y-104703359D01*
X136178809Y-104762855D01*
X136231499Y-104806594D01*
X136265590Y-104830936D01*
X136276741Y-104833409D01*
X136278941Y-104805270D01*
X136281602Y-104748708D01*
X136284337Y-104672812D01*
X136286120Y-104611910D01*
X136291353Y-104414938D01*
X136380851Y-104409205D01*
X136470350Y-104403471D01*
X136465268Y-104784389D01*
G37*
G36*
X130688959Y-98971660D02*
G01*
X130740266Y-98987885D01*
X130785784Y-99004269D01*
X130864123Y-99033542D01*
X130946768Y-99063937D01*
X130982491Y-99076883D01*
X131044985Y-99100320D01*
X131117407Y-99128920D01*
X131190838Y-99158969D01*
X131256361Y-99186753D01*
X131305061Y-99208560D01*
X131328019Y-99220674D01*
X131328259Y-99220888D01*
X131319888Y-99236639D01*
X131290320Y-99271139D01*
X131245637Y-99317377D01*
X131238378Y-99324528D01*
X131178935Y-99386689D01*
X131121771Y-99452963D01*
X131083991Y-99502455D01*
X131041434Y-99558298D01*
X131011340Y-99582340D01*
X130990442Y-99576844D01*
X130985821Y-99570367D01*
X130893346Y-99411632D01*
X130814634Y-99273853D01*
X130750738Y-99158984D01*
X130702713Y-99068983D01*
X130671611Y-99005803D01*
X130658487Y-98971401D01*
X130659822Y-98965381D01*
X130688959Y-98971660D01*
G37*
G36*
X130756189Y-101518944D02*
G01*
X130755048Y-101538510D01*
X130748675Y-101590669D01*
X130737704Y-101670959D01*
X130722771Y-101774917D01*
X130704512Y-101898081D01*
X130683562Y-102035987D01*
X130671055Y-102116932D01*
X130645496Y-102281666D01*
X130619069Y-102452463D01*
X130593070Y-102620925D01*
X130568792Y-102778653D01*
X130547531Y-102917249D01*
X130530579Y-103028315D01*
X130528679Y-103040824D01*
X130478137Y-103373801D01*
X130162847Y-103373801D01*
X130047520Y-103373676D01*
X129964427Y-103372831D01*
X129908286Y-103370558D01*
X129873813Y-103366150D01*
X129855725Y-103358900D01*
X129848738Y-103348099D01*
X129847569Y-103333042D01*
X129847569Y-103331593D01*
X129849588Y-103299632D01*
X129855177Y-103237404D01*
X129863647Y-103151916D01*
X129874307Y-103050177D01*
X129884027Y-102961098D01*
X129896965Y-102843050D01*
X129912531Y-102698595D01*
X129929567Y-102538653D01*
X129946909Y-102374144D01*
X129963398Y-102215988D01*
X129968787Y-102163830D01*
X129985586Y-102000472D01*
X129999133Y-101870522D01*
X130010198Y-101770084D01*
X130019553Y-101695266D01*
X130027970Y-101642172D01*
X130036220Y-101606909D01*
X130045074Y-101585581D01*
X130055305Y-101574295D01*
X130067683Y-101569156D01*
X130082980Y-101566269D01*
X130087332Y-101565447D01*
X130124818Y-101560268D01*
X130188332Y-101553874D01*
X130270552Y-101546773D01*
X130364157Y-101539475D01*
X130461824Y-101532488D01*
X130556234Y-101526322D01*
X130640063Y-101521486D01*
X130705991Y-101518488D01*
X130746696Y-101517838D01*
X130756189Y-101518944D01*
G37*
G36*
X134776042Y-104725343D02*
G01*
X134827937Y-104585706D01*
X134837871Y-104559725D01*
X134897531Y-104404365D01*
X135105868Y-104409652D01*
X135314206Y-104414938D01*
X135394231Y-104630669D01*
X135449590Y-104780756D01*
X135492525Y-104899454D01*
X135524151Y-104990364D01*
X135545585Y-105057089D01*
X135557942Y-105103228D01*
X135562337Y-105132384D01*
X135559886Y-105148159D01*
X135555866Y-105152535D01*
X135526286Y-105158734D01*
X135473935Y-105160292D01*
X135440489Y-105158866D01*
X135383483Y-105153026D01*
X135352049Y-105140766D01*
X135334247Y-105114931D01*
X135325059Y-105089684D01*
X135312588Y-105058214D01*
X135295335Y-105036996D01*
X135266806Y-105024520D01*
X135220510Y-105019276D01*
X135149954Y-105019752D01*
X135048645Y-105024439D01*
X135045352Y-105024613D01*
X134868626Y-105033993D01*
X134850501Y-105090271D01*
X134836675Y-105131673D01*
X134822236Y-105152101D01*
X134794866Y-105160092D01*
X134744016Y-105164057D01*
X134687916Y-105163343D01*
X134659500Y-105149401D01*
X134654263Y-105140185D01*
X134655703Y-105109397D01*
X134669968Y-105048198D01*
X134695691Y-104960909D01*
X134725937Y-104868803D01*
X134931309Y-104868803D01*
X134948628Y-104871402D01*
X134994823Y-104873388D01*
X135061255Y-104874446D01*
X135089787Y-104874539D01*
X135248264Y-104874539D01*
X135227759Y-104813572D01*
X135210163Y-104766461D01*
X135195319Y-104734963D01*
X135194596Y-104733845D01*
X135181525Y-104705468D01*
X135163626Y-104656294D01*
X135156490Y-104634432D01*
X135137539Y-104584153D01*
X135117586Y-104561940D01*
X135088348Y-104559055D01*
X135085378Y-104559395D01*
X135060594Y-104567467D01*
X135039365Y-104589486D01*
X135017125Y-104632519D01*
X134989311Y-104703634D01*
X134985510Y-104714039D01*
X134960870Y-104782420D01*
X134942087Y-104835747D01*
X134932147Y-104865493D01*
X134931309Y-104868803D01*
X134725937Y-104868803D01*
X134731504Y-104851851D01*
X134776042Y-104725343D01*
G37*
G36*
X136102226Y-95249361D02*
G01*
X136384834Y-95298598D01*
X136657158Y-95374338D01*
X136884998Y-95458516D01*
X137085806Y-95556385D01*
X137269254Y-95673854D01*
X137445015Y-95816831D01*
X137558352Y-95924871D01*
X137638112Y-96009208D01*
X137716138Y-96099363D01*
X137788190Y-96189607D01*
X137850026Y-96274214D01*
X137897406Y-96347457D01*
X137926089Y-96403608D01*
X137932786Y-96430566D01*
X137917070Y-96429034D01*
X137873373Y-96412257D01*
X137806870Y-96382545D01*
X137722739Y-96342210D01*
X137627949Y-96294484D01*
X137329291Y-96152563D01*
X137046119Y-96041870D01*
X136779220Y-95962606D01*
X136529380Y-95914972D01*
X136297385Y-95899170D01*
X136124170Y-95909707D01*
X136026063Y-95929749D01*
X135903780Y-95966733D01*
X135764741Y-96017368D01*
X135616366Y-96078366D01*
X135466077Y-96146437D01*
X135321294Y-96218292D01*
X135189438Y-96290641D01*
X135077929Y-96360197D01*
X135029415Y-96394958D01*
X134971077Y-96438832D01*
X134936305Y-96461839D01*
X134919078Y-96466185D01*
X134913376Y-96454074D01*
X134913008Y-96437575D01*
X134917223Y-96398513D01*
X134927080Y-96343151D01*
X134929928Y-96329709D01*
X134940770Y-96269641D01*
X134951829Y-96191675D01*
X134958746Y-96131367D01*
X134971103Y-96008061D01*
X134754270Y-95937352D01*
X134669732Y-95908772D01*
X134598878Y-95882910D01*
X134549030Y-95862571D01*
X134527505Y-95850560D01*
X134527403Y-95850407D01*
X134534366Y-95828798D01*
X134564715Y-95789456D01*
X134612542Y-95738091D01*
X134671944Y-95680416D01*
X134737012Y-95622140D01*
X134801842Y-95568975D01*
X134860527Y-95526632D01*
X134865652Y-95523326D01*
X135092701Y-95398908D01*
X135328904Y-95309384D01*
X135575240Y-95254673D01*
X135832688Y-95234692D01*
X136102226Y-95249361D01*
G37*
G36*
X135850511Y-98149355D02*
G01*
X135841132Y-98158734D01*
X135831752Y-98149355D01*
X135841132Y-98139975D01*
X135850511Y-98149355D01*
G37*
G36*
X130989446Y-99969205D02*
G01*
X131005939Y-99881805D01*
X131028445Y-99791660D01*
X131048968Y-99727246D01*
X131069420Y-99669483D01*
X131082469Y-99626577D01*
X131085247Y-99610425D01*
X131094950Y-99589400D01*
X131098436Y-99586533D01*
X131128677Y-99557977D01*
X131162231Y-99517043D01*
X131191033Y-99475012D01*
X131207019Y-99443167D01*
X131207421Y-99434070D01*
X131211293Y-99411762D01*
X131219574Y-99404621D01*
X131232626Y-99402060D01*
X131226035Y-99417394D01*
X131226426Y-99425790D01*
X131248341Y-99410566D01*
X131250833Y-99408406D01*
X131276185Y-99377113D01*
X131279298Y-99353920D01*
X131279006Y-99343072D01*
X131285726Y-99346057D01*
X131309347Y-99341996D01*
X131353614Y-99320468D01*
X131408227Y-99286600D01*
X131514512Y-99223341D01*
X131621096Y-99180507D01*
X131738484Y-99155280D01*
X131877184Y-99144842D01*
X131939212Y-99144171D01*
X132046325Y-99146308D01*
X132127239Y-99152984D01*
X132193144Y-99165634D01*
X132251229Y-99184186D01*
X132420458Y-99265940D01*
X132565466Y-99373538D01*
X132684636Y-99502932D01*
X132776351Y-99650074D01*
X132838993Y-99810914D01*
X132870946Y-99981406D01*
X132870591Y-100157499D01*
X132836313Y-100335146D01*
X132774512Y-100494259D01*
X132676200Y-100654998D01*
X132553405Y-100789376D01*
X132410033Y-100895561D01*
X132249990Y-100971722D01*
X132077181Y-101016027D01*
X131895513Y-101026644D01*
X131708891Y-101001743D01*
X131697857Y-100999136D01*
X131567228Y-100955364D01*
X131439898Y-100890940D01*
X131330467Y-100813687D01*
X131300043Y-100785998D01*
X131256373Y-100747913D01*
X131221576Y-100726150D01*
X131207602Y-100724184D01*
X131198496Y-100724993D01*
X131202410Y-100719753D01*
X131200094Y-100697459D01*
X131178662Y-100658241D01*
X131163366Y-100637018D01*
X131078379Y-100499368D01*
X131018396Y-100342094D01*
X130986174Y-100175782D01*
X130985102Y-100072176D01*
X131226391Y-100072176D01*
X131229411Y-100181107D01*
X131240886Y-100265870D01*
X131264504Y-100339510D01*
X131303953Y-100415072D01*
X131338826Y-100469884D01*
X131419025Y-100565930D01*
X131522060Y-100652997D01*
X131636363Y-100722972D01*
X131750367Y-100767742D01*
X131770379Y-100772587D01*
X131820581Y-100779178D01*
X131886323Y-100782351D01*
X131956859Y-100782328D01*
X132021444Y-100779332D01*
X132069333Y-100773587D01*
X132089475Y-100765962D01*
X132110701Y-100754340D01*
X132116728Y-100756457D01*
X132147122Y-100756040D01*
X132198000Y-100736798D01*
X132261078Y-100703993D01*
X132328075Y-100662889D01*
X132390708Y-100618749D01*
X132440695Y-100576835D01*
X132469755Y-100542410D01*
X132473850Y-100529523D01*
X132485297Y-100506050D01*
X132493595Y-100503638D01*
X132515752Y-100486821D01*
X132543098Y-100442134D01*
X132572211Y-100378222D01*
X132599668Y-100303733D01*
X132622045Y-100227314D01*
X132635921Y-100157609D01*
X132637938Y-100139000D01*
X132633806Y-99974276D01*
X132595079Y-99822291D01*
X132523259Y-99685556D01*
X132419848Y-99566581D01*
X132286349Y-99467877D01*
X132213129Y-99428961D01*
X132145657Y-99399449D01*
X132087238Y-99382051D01*
X132022613Y-99373626D01*
X131936526Y-99371030D01*
X131931740Y-99370999D01*
X131845837Y-99372188D01*
X131782052Y-99379019D01*
X131725071Y-99394595D01*
X131659580Y-99422014D01*
X131643927Y-99429279D01*
X131513258Y-99507744D01*
X131398309Y-99610412D01*
X131307879Y-99728726D01*
X131276789Y-99786364D01*
X131251977Y-99844508D01*
X131236830Y-99897759D01*
X131229090Y-99958915D01*
X131226501Y-100040780D01*
X131226391Y-100072176D01*
X130985102Y-100072176D01*
X130984470Y-100011020D01*
X130989446Y-99969205D01*
G37*
G36*
X137938628Y-104409810D02*
G01*
X138261073Y-104414938D01*
X138272717Y-104555632D01*
X138026481Y-104555632D01*
X137931198Y-104557066D01*
X137847177Y-104560983D01*
X137782777Y-104566810D01*
X137746356Y-104573972D01*
X137743961Y-104575052D01*
X137713869Y-104611411D01*
X137707675Y-104650089D01*
X137707675Y-104705706D01*
X138247435Y-104705706D01*
X138255630Y-104761545D01*
X138255635Y-104807577D01*
X138244628Y-104836582D01*
X138218617Y-104844183D01*
X138161101Y-104850191D01*
X138078072Y-104854191D01*
X137975526Y-104855771D01*
X137966553Y-104855780D01*
X137707675Y-104855780D01*
X137707675Y-104899771D01*
X137712587Y-104938652D01*
X137730641Y-104966990D01*
X137766820Y-104986554D01*
X137826105Y-104999111D01*
X137913477Y-105006431D01*
X138018029Y-105009955D01*
X138261073Y-105015234D01*
X138261073Y-105088707D01*
X138256807Y-105135648D01*
X138246183Y-105162083D01*
X138242314Y-105164052D01*
X138217898Y-105164357D01*
X138162912Y-105163968D01*
X138084295Y-105162966D01*
X137988987Y-105161433D01*
X137932974Y-105160412D01*
X137642393Y-105154902D01*
X137482565Y-104998042D01*
X137482565Y-104522001D01*
X137616183Y-104404683D01*
X137938628Y-104409810D01*
G37*
G36*
X132547225Y-101664808D02*
G01*
X132577732Y-101702018D01*
X132620232Y-101758051D01*
X132670342Y-101826693D01*
X132723682Y-101901728D01*
X132775869Y-101976942D01*
X132822522Y-102046120D01*
X132859259Y-102103045D01*
X132881697Y-102141504D01*
X132886553Y-102153982D01*
X132867936Y-102160907D01*
X132812588Y-102166250D01*
X132721265Y-102169977D01*
X132594724Y-102172058D01*
X132450401Y-102172495D01*
X132014249Y-102171780D01*
X131942898Y-102066703D01*
X131907978Y-102010658D01*
X131885293Y-101965148D01*
X131879756Y-101940238D01*
X131900432Y-101924651D01*
X131947718Y-101902792D01*
X132012209Y-101878896D01*
X132026143Y-101874311D01*
X132097932Y-101848299D01*
X132191674Y-101810349D01*
X132295863Y-101765493D01*
X132398991Y-101718762D01*
X132489551Y-101675187D01*
X132533093Y-101652638D01*
X132547225Y-101664808D01*
G37*
G36*
X138935602Y-102248339D02*
G01*
X139118794Y-102248674D01*
X139270412Y-102249341D01*
X139393428Y-102250431D01*
X139490813Y-102252033D01*
X139565539Y-102254235D01*
X139620579Y-102257129D01*
X139658905Y-102260802D01*
X139683487Y-102265344D01*
X139697299Y-102270846D01*
X139703312Y-102277396D01*
X139703527Y-102277920D01*
X139711736Y-102319939D01*
X139715091Y-102381718D01*
X139714037Y-102451138D01*
X139709016Y-102516084D01*
X139700471Y-102564439D01*
X139692402Y-102582161D01*
X139676042Y-102588157D01*
X139638406Y-102593131D01*
X139577069Y-102597153D01*
X139489605Y-102600296D01*
X139373590Y-102602631D01*
X139226596Y-102604228D01*
X139046200Y-102605160D01*
X138899825Y-102605453D01*
X138129758Y-102606234D01*
X138056691Y-102670760D01*
X138010173Y-102717570D01*
X137986131Y-102762370D01*
X137975204Y-102822997D01*
X137974840Y-102826697D01*
X137974835Y-102908628D01*
X137997197Y-102970743D01*
X138047753Y-103026247D01*
X138071140Y-103045001D01*
X138133953Y-103092911D01*
X138783099Y-103097351D01*
X139432245Y-103101792D01*
X139538210Y-103204968D01*
X139598301Y-103266219D01*
X139655328Y-103328948D01*
X139697263Y-103379906D01*
X139698304Y-103381305D01*
X139719412Y-103410903D01*
X139734166Y-103437848D01*
X139743703Y-103469389D01*
X139749161Y-103512769D01*
X139751679Y-103575236D01*
X139752394Y-103664036D01*
X139752432Y-103725953D01*
X139752432Y-103997440D01*
X139597668Y-104156964D01*
X139530765Y-104222871D01*
X139466947Y-104280364D01*
X139413968Y-104322766D01*
X139382539Y-104342264D01*
X139350089Y-104348357D01*
X139285790Y-104353722D01*
X139193854Y-104358356D01*
X139078494Y-104362260D01*
X138943925Y-104365431D01*
X138794359Y-104367869D01*
X138634009Y-104369570D01*
X138467088Y-104370536D01*
X138297810Y-104370762D01*
X138130387Y-104370250D01*
X137969034Y-104368996D01*
X137817962Y-104367001D01*
X137681385Y-104364261D01*
X137563516Y-104360777D01*
X137468569Y-104356546D01*
X137400757Y-104351567D01*
X137364292Y-104345838D01*
X137359197Y-104342933D01*
X137355292Y-104313128D01*
X137353661Y-104256891D01*
X137354565Y-104185257D01*
X137355096Y-104169410D01*
X137360630Y-104020994D01*
X138189700Y-104011615D01*
X139018770Y-104002235D01*
X139085453Y-103937588D01*
X139121365Y-103900225D01*
X139141351Y-103867397D01*
X139150053Y-103825885D01*
X139152113Y-103762472D01*
X139152136Y-103747695D01*
X139151097Y-103680023D01*
X139144205Y-103636209D01*
X139125800Y-103602593D01*
X139090219Y-103565516D01*
X139068139Y-103545023D01*
X138984141Y-103467597D01*
X137672721Y-103467597D01*
X137589499Y-103378491D01*
X137534243Y-103318477D01*
X137479488Y-103257658D01*
X137448852Y-103222764D01*
X137391427Y-103156144D01*
X137388592Y-102894478D01*
X137387666Y-102797872D01*
X137387087Y-102713986D01*
X137386891Y-102650338D01*
X137387112Y-102614447D01*
X137387263Y-102610236D01*
X137398027Y-102588700D01*
X137429773Y-102550610D01*
X137484472Y-102493905D01*
X137564097Y-102416521D01*
X137648124Y-102337353D01*
X137743587Y-102248247D01*
X138717863Y-102248247D01*
X138935602Y-102248339D01*
G37*
G36*
X133225354Y-99108512D02*
G01*
X133272272Y-99122689D01*
X133330048Y-99147127D01*
X133361998Y-99161618D01*
X133505607Y-99227063D01*
X133505607Y-99355406D01*
X133523094Y-99568843D01*
X133573856Y-99778307D01*
X133655342Y-99976299D01*
X133765004Y-100155319D01*
X133787662Y-100185105D01*
X133813596Y-100224003D01*
X133833235Y-100270481D01*
X133849438Y-100333795D01*
X133865064Y-100423197D01*
X133868757Y-100447611D01*
X133882202Y-100554666D01*
X133885697Y-100627198D01*
X133879266Y-100664683D01*
X133862934Y-100666598D01*
X133858503Y-100662688D01*
X133838705Y-100653810D01*
X133788338Y-100634192D01*
X133712200Y-100605617D01*
X133615088Y-100569868D01*
X133501800Y-100528729D01*
X133390772Y-100488853D01*
X133246646Y-100436871D01*
X133134652Y-100395247D01*
X133051325Y-100362489D01*
X132993198Y-100337105D01*
X132956808Y-100317603D01*
X132938687Y-100302490D01*
X132935014Y-100292597D01*
X132936134Y-100258888D01*
X132937685Y-100199325D01*
X132939368Y-100125569D01*
X132939704Y-100109695D01*
X132942276Y-100034324D01*
X132947327Y-99989118D01*
X132956664Y-99966725D01*
X132972092Y-99959799D01*
X132976597Y-99959621D01*
X133015268Y-99951472D01*
X133028185Y-99943790D01*
X133053345Y-99929428D01*
X133103308Y-99906128D01*
X133167925Y-99878590D01*
X133177321Y-99874762D01*
X133242570Y-99847532D01*
X133294051Y-99824572D01*
X133321918Y-99810301D01*
X133323429Y-99809203D01*
X133322520Y-99788009D01*
X133308557Y-99740272D01*
X133284035Y-99673592D01*
X133259009Y-99612917D01*
X133224225Y-99534087D01*
X133194587Y-99475790D01*
X133163024Y-99428678D01*
X133122467Y-99383403D01*
X133065845Y-99330619D01*
X133005611Y-99277901D01*
X132939449Y-99219985D01*
X132885525Y-99171776D01*
X132849115Y-99138065D01*
X132835495Y-99123644D01*
X132835541Y-99123473D01*
X132854756Y-99120969D01*
X132903310Y-99116874D01*
X132973088Y-99111830D01*
X133029021Y-99108154D01*
X133115803Y-99103183D01*
X133177222Y-99102656D01*
X133225354Y-99108512D01*
G37*
G36*
X130935960Y-100382245D02*
G01*
X130953294Y-100408090D01*
X130977063Y-100456740D01*
X131054650Y-100600717D01*
X131143548Y-100722643D01*
X131232964Y-100817384D01*
X131318155Y-100887442D01*
X131422089Y-100954855D01*
X131533114Y-101013391D01*
X131639580Y-101056819D01*
X131719206Y-101077427D01*
X131780145Y-101090384D01*
X131803966Y-101105110D01*
X131791069Y-101123176D01*
X131741854Y-101146152D01*
X131737171Y-101147943D01*
X131661834Y-101173873D01*
X131558313Y-101205861D01*
X131435004Y-101241619D01*
X131300303Y-101278862D01*
X131162606Y-101315303D01*
X131030309Y-101348656D01*
X130911807Y-101376636D01*
X130841797Y-101391752D01*
X130725931Y-101413476D01*
X130603721Y-101433048D01*
X130480705Y-101449946D01*
X130362417Y-101463645D01*
X130254396Y-101473622D01*
X130162178Y-101479354D01*
X130091299Y-101480316D01*
X130047295Y-101475986D01*
X130035150Y-101468027D01*
X130046581Y-101450842D01*
X130078447Y-101409442D01*
X130127108Y-101348390D01*
X130188922Y-101272245D01*
X130260248Y-101185569D01*
X130271022Y-101172569D01*
X130345079Y-101083220D01*
X130411919Y-101002455D01*
X130467455Y-100935219D01*
X130507604Y-100886460D01*
X130528280Y-100861123D01*
X130529123Y-100860064D01*
X130549571Y-100834912D01*
X130588286Y-100787895D01*
X130639521Y-100725973D01*
X130691723Y-100663092D01*
X130749428Y-100593673D01*
X130799935Y-100532886D01*
X130837457Y-100487700D01*
X130855348Y-100466120D01*
X130885397Y-100427799D01*
X130905698Y-100400463D01*
X130922165Y-100381334D01*
X130935960Y-100382245D01*
G37*
G36*
X133627798Y-99118629D02*
G01*
X133677144Y-98913487D01*
X133760625Y-98722698D01*
X133879211Y-98543820D01*
X133968444Y-98440312D01*
X134134905Y-98287968D01*
X134315064Y-98170463D01*
X134509330Y-98087643D01*
X134718113Y-98039355D01*
X134941821Y-98025445D01*
X135060587Y-98031435D01*
X135204230Y-98050396D01*
X135332717Y-98083689D01*
X135462716Y-98136237D01*
X135532808Y-98170915D01*
X135720055Y-98288577D01*
X135882947Y-98433507D01*
X136018957Y-98602473D01*
X136125559Y-98792245D01*
X136200225Y-98999594D01*
X136209441Y-99035861D01*
X136241254Y-99245801D01*
X136239064Y-99460082D01*
X136203914Y-99671558D01*
X136136844Y-99873081D01*
X136067307Y-100011543D01*
X135958529Y-100165996D01*
X135821560Y-100311075D01*
X135665721Y-100438117D01*
X135500694Y-100538274D01*
X135351119Y-100597570D01*
X135179696Y-100638678D01*
X134998180Y-100660091D01*
X134818329Y-100660305D01*
X134679384Y-100643425D01*
X134547254Y-100608007D01*
X134403052Y-100551831D01*
X134260566Y-100481321D01*
X134133586Y-100402901D01*
X134084689Y-100366352D01*
X133956074Y-100243309D01*
X133840032Y-100093654D01*
X133744750Y-99928038D01*
X133739952Y-99917995D01*
X133675936Y-99764067D01*
X133635623Y-99618029D01*
X133615528Y-99464195D01*
X133612368Y-99364231D01*
X133921944Y-99364231D01*
X133924783Y-99415603D01*
X133957528Y-99603745D01*
X134024957Y-99781793D01*
X134124668Y-99945349D01*
X134254261Y-100090013D01*
X134326304Y-100151395D01*
X134424284Y-100213361D01*
X134546121Y-100268606D01*
X134678174Y-100311719D01*
X134788778Y-100334862D01*
X134859748Y-100344834D01*
X134910303Y-100349419D01*
X134955911Y-100348595D01*
X135012042Y-100342340D01*
X135067597Y-100334470D01*
X135184844Y-100309564D01*
X135303814Y-100270632D01*
X135410550Y-100222877D01*
X135478526Y-100181247D01*
X135616360Y-100061511D01*
X135734780Y-99922139D01*
X135828470Y-99770802D01*
X135892116Y-99615166D01*
X135905275Y-99565677D01*
X135919440Y-99468641D01*
X135924385Y-99352520D01*
X135919998Y-99234622D01*
X135908009Y-99141465D01*
X135889461Y-99071529D01*
X135860218Y-98991059D01*
X135824396Y-98908580D01*
X135786108Y-98832616D01*
X135749469Y-98771693D01*
X135718595Y-98734338D01*
X135708325Y-98727723D01*
X135690022Y-98710799D01*
X135691301Y-98702359D01*
X135685599Y-98678311D01*
X135652232Y-98641509D01*
X135597118Y-98595926D01*
X135526178Y-98545534D01*
X135445330Y-98494304D01*
X135360493Y-98446208D01*
X135277587Y-98405219D01*
X135205294Y-98376237D01*
X135078634Y-98348170D01*
X134932204Y-98340334D01*
X134777600Y-98352376D01*
X134626421Y-98383943D01*
X134590138Y-98394969D01*
X134445334Y-98460025D01*
X134306778Y-98556128D01*
X134181644Y-98676813D01*
X134077106Y-98815620D01*
X134029804Y-98899724D01*
X133964546Y-99056350D01*
X133929439Y-99207029D01*
X133921944Y-99364231D01*
X133612368Y-99364231D01*
X133611620Y-99340566D01*
X133627798Y-99118629D01*
G37*
G36*
X133993347Y-97605337D02*
G01*
X133983968Y-97614717D01*
X133974588Y-97605337D01*
X133983968Y-97595957D01*
X133993347Y-97605337D01*
G37*
G36*
X133345320Y-102782885D02*
G01*
X133383809Y-102835218D01*
X133415784Y-102872346D01*
X133433962Y-102886061D01*
X133444656Y-102896535D01*
X133443078Y-102900130D01*
X133449663Y-102920569D01*
X133474657Y-102962403D01*
X133513146Y-103017638D01*
X133525664Y-103034407D01*
X133566914Y-103092182D01*
X133595784Y-103139112D01*
X133607430Y-103167089D01*
X133606953Y-103170411D01*
X133586188Y-103174931D01*
X133533323Y-103178947D01*
X133453776Y-103182263D01*
X133352964Y-103184683D01*
X133236305Y-103186013D01*
X133168992Y-103186209D01*
X133031638Y-103186112D01*
X132926967Y-103185524D01*
X132850141Y-103183997D01*
X132796324Y-103181084D01*
X132760680Y-103176338D01*
X132738372Y-103169310D01*
X132724565Y-103159555D01*
X132714421Y-103146624D01*
X132712661Y-103144000D01*
X132677179Y-103095712D01*
X132649536Y-103062217D01*
X132632654Y-103037584D01*
X132622860Y-103004873D01*
X132618932Y-102955185D01*
X132619648Y-102879620D01*
X132620565Y-102851176D01*
X132626586Y-102679709D01*
X133274260Y-102679709D01*
X133345320Y-102782885D01*
G37*
G36*
X132022550Y-99425960D02*
G01*
X132088936Y-99430172D01*
X132140152Y-99439542D01*
X132187362Y-99455991D01*
X132233146Y-99477205D01*
X132356391Y-99554951D01*
X132457446Y-99658043D01*
X132536184Y-99781408D01*
X132564514Y-99838320D01*
X132582084Y-99886304D01*
X132591434Y-99937790D01*
X132595109Y-100005206D01*
X132595669Y-100072176D01*
X132594247Y-100163100D01*
X132588355Y-100229319D01*
X132575762Y-100283581D01*
X132554241Y-100338632D01*
X132545878Y-100356850D01*
X132464189Y-100491034D01*
X132357759Y-100601930D01*
X132235429Y-100682051D01*
X132174604Y-100709347D01*
X132117209Y-100726634D01*
X132050068Y-100736703D01*
X131960004Y-100742343D01*
X131948591Y-100742795D01*
X131864041Y-100745320D01*
X131804399Y-100743529D01*
X131757104Y-100734980D01*
X131709591Y-100717232D01*
X131649298Y-100687842D01*
X131639064Y-100682629D01*
X131502060Y-100593908D01*
X131393794Y-100483955D01*
X131316090Y-100356387D01*
X131270772Y-100214819D01*
X131259664Y-100062868D01*
X131272487Y-99955939D01*
X131319289Y-99800860D01*
X131394312Y-99670264D01*
X131498479Y-99562896D01*
X131619179Y-99484421D01*
X131673308Y-99457458D01*
X131718774Y-99440166D01*
X131766714Y-99430411D01*
X131828269Y-99426064D01*
X131914576Y-99424992D01*
X131929832Y-99424983D01*
X132022550Y-99425960D01*
G37*
%TO.C,conn_alimentacion1*%
X104330000Y-108400000D02*
X104330000Y-107070000D01*
X106930000Y-109730000D02*
X106930000Y-107070000D01*
X106930000Y-107070000D02*
X109530000Y-107070000D01*
X104330000Y-107070000D02*
X105660000Y-107070000D01*
X106930000Y-109730000D02*
X109530000Y-109730000D01*
X109530000Y-109730000D02*
X109530000Y-107070000D01*
%TO.C,ServoWater1*%
X161730000Y-91670000D02*
X161730000Y-96810000D01*
X159070000Y-91670000D02*
X161730000Y-91670000D01*
X159070000Y-91670000D02*
X159070000Y-96810000D01*
X161730000Y-89070000D02*
X161730000Y-90400000D01*
X159070000Y-96810000D02*
X161730000Y-96810000D01*
X160400000Y-89070000D02*
X161730000Y-89070000D01*
%TO.C,Screw1*%
X103780000Y-56390000D02*
X103780000Y-64010000D01*
X119020000Y-64010000D02*
X103780000Y-64010000D01*
X119020000Y-56390000D02*
X119020000Y-64010000D01*
X119020000Y-56390000D02*
X103780000Y-56390000D01*
X119020000Y-57660000D02*
X103780000Y-57660000D01*
%TO.C,R1*%
X106065000Y-75627064D02*
X106065000Y-75172936D01*
X107535000Y-75627064D02*
X107535000Y-75172936D01*
%TO.C,ServoWater2*%
X155425000Y-88945000D02*
X156755000Y-88945000D01*
X154095000Y-91545000D02*
X154095000Y-96685000D01*
X156755000Y-88945000D02*
X156755000Y-90275000D01*
X154095000Y-91545000D02*
X156755000Y-91545000D01*
X154095000Y-96685000D02*
X156755000Y-96685000D01*
X156755000Y-91545000D02*
X156755000Y-96685000D01*
%TO.C,D3*%
X106000000Y-92215000D02*
X102115000Y-92215000D01*
X102115000Y-92215000D02*
X102115000Y-95385000D01*
X102115000Y-95385000D02*
X106000000Y-95385000D01*
D15*
%TO.C,S1*%
X113900000Y-100500000D02*
X113400000Y-100500000D01*
X113900000Y-100500000D02*
X113900000Y-101000000D01*
X102000000Y-104700000D02*
X102000000Y-104200000D01*
X102000000Y-100500000D02*
X102500000Y-100500000D01*
X102000000Y-104700000D02*
X102500000Y-104700000D01*
X102000000Y-100500000D02*
X102000000Y-101000000D01*
X113900000Y-104700000D02*
X113400000Y-104700000D01*
X113900000Y-104700000D02*
X113900000Y-104200000D01*
D12*
%TO.C,WaterS1*%
X139545000Y-125445000D02*
X144685000Y-125445000D01*
X139545000Y-128105000D02*
X144685000Y-128105000D01*
X136945000Y-126775000D02*
X136945000Y-125445000D01*
X139545000Y-128105000D02*
X139545000Y-125445000D01*
X136945000Y-125445000D02*
X138275000Y-125445000D01*
X144685000Y-128105000D02*
X144685000Y-125445000D01*
%TO.C,U2*%
X105320000Y-69345000D02*
X105320000Y-66685000D01*
X115510000Y-90135000D02*
X115510000Y-87475000D01*
X107830000Y-90135000D02*
X115510000Y-90135000D01*
X102720000Y-66685000D02*
X104050000Y-66685000D01*
X107830000Y-90135000D02*
X107830000Y-87475000D01*
X115480000Y-66625000D02*
X115490000Y-90175000D01*
X118080000Y-69345000D02*
X118080000Y-66685000D01*
X105320000Y-69345000D02*
X118080000Y-69345000D01*
X107830000Y-87475000D02*
X115510000Y-87475000D01*
X105320000Y-66685000D02*
X118080000Y-66685000D01*
X102720000Y-68015000D02*
X102720000Y-66685000D01*
%TO.C,WaterS2*%
X144685000Y-122730000D02*
X144685000Y-120070000D01*
X136945000Y-120070000D02*
X138275000Y-120070000D01*
X139545000Y-122730000D02*
X139545000Y-120070000D01*
X136945000Y-121400000D02*
X136945000Y-120070000D01*
X139545000Y-120070000D02*
X144685000Y-120070000D01*
X139545000Y-122730000D02*
X144685000Y-122730000D01*
%TO.C,ServoFood2*%
X156155000Y-102745000D02*
X156155000Y-107885000D01*
X156155000Y-100145000D02*
X156155000Y-101475000D01*
X153495000Y-102745000D02*
X153495000Y-107885000D01*
X153495000Y-102745000D02*
X156155000Y-102745000D01*
X153495000Y-107885000D02*
X156155000Y-107885000D01*
X154825000Y-100145000D02*
X156155000Y-100145000D01*
%TO.C,R5*%
X104372936Y-98735000D02*
X104827064Y-98735000D01*
X104372936Y-97265000D02*
X104827064Y-97265000D01*
%TO.C,R4*%
X110572936Y-98935000D02*
X111027064Y-98935000D01*
X110572936Y-97465000D02*
X111027064Y-97465000D01*
%TO.C,D2*%
X108715000Y-95385000D02*
X112600000Y-95385000D01*
X108715000Y-92215000D02*
X108715000Y-95385000D01*
X112600000Y-92215000D02*
X108715000Y-92215000D01*
%TO.C,Esp32Cam1*%
X128220000Y-57445000D02*
X129550000Y-57445000D01*
X128220000Y-58775000D02*
X128220000Y-57445000D01*
X130820000Y-57445000D02*
X133420000Y-57445000D01*
X133420000Y-60105000D02*
X133420000Y-57445000D01*
X130820000Y-60105000D02*
X133420000Y-60105000D01*
X130820000Y-60105000D02*
X130820000Y-57445000D01*
%TO.C,ServoFood1*%
X159070000Y-108035000D02*
X161730000Y-108035000D01*
X161730000Y-102895000D02*
X161730000Y-108035000D01*
X161730000Y-100295000D02*
X161730000Y-101625000D01*
X160400000Y-100295000D02*
X161730000Y-100295000D01*
X159070000Y-102895000D02*
X161730000Y-102895000D01*
X159070000Y-102895000D02*
X159070000Y-108035000D01*
%TO.C,R2*%
X113345000Y-75407936D02*
X113345000Y-75862064D01*
X111875000Y-75407936D02*
X111875000Y-75862064D01*
%TO.C,Infrarroj6*%
X161000000Y-59790000D02*
X162330000Y-59790000D01*
X162330000Y-62390000D02*
X162330000Y-70070000D01*
X159670000Y-70070000D02*
X162330000Y-70070000D01*
X159670000Y-62390000D02*
X159670000Y-70070000D01*
X159670000Y-62390000D02*
X162330000Y-62390000D01*
X162330000Y-59790000D02*
X162330000Y-61120000D01*
%TO.C,Esp32*%
X141930000Y-60305000D02*
X141930000Y-57645000D01*
X139330000Y-58975000D02*
X139330000Y-57645000D01*
X139330000Y-57645000D02*
X140660000Y-57645000D01*
X141930000Y-60305000D02*
X144530000Y-60305000D01*
X141930000Y-57645000D02*
X144530000Y-57645000D01*
X144530000Y-60305000D02*
X144530000Y-57645000D01*
%TO.C,DispOled1*%
X156155000Y-59790000D02*
X156155000Y-61120000D01*
X156155000Y-62390000D02*
X156155000Y-70070000D01*
X153495000Y-62390000D02*
X153495000Y-70070000D01*
X154825000Y-59790000D02*
X156155000Y-59790000D01*
X153495000Y-70070000D02*
X156155000Y-70070000D01*
X153495000Y-62390000D02*
X156155000Y-62390000D01*
%TO.C,MotionS1*%
X155530000Y-80930000D02*
X155530000Y-75790000D01*
X152870000Y-83530000D02*
X152870000Y-82200000D01*
X155530000Y-75790000D02*
X152870000Y-75790000D01*
X152870000Y-80930000D02*
X152870000Y-75790000D01*
X155530000Y-80930000D02*
X152870000Y-80930000D01*
X154200000Y-83530000D02*
X152870000Y-83530000D01*
%TO.C,USB1*%
X120160000Y-121360000D02*
X120160000Y-129900000D01*
X105440000Y-121360000D02*
X105440000Y-129900000D01*
X105440000Y-115680000D02*
X105440000Y-117660000D01*
X105440000Y-115680000D02*
X120160000Y-115680000D01*
X109300000Y-115300000D02*
X109800000Y-114800000D01*
X105440000Y-129900000D02*
X120160000Y-129900000D01*
X108800000Y-114800000D02*
X109300000Y-115300000D01*
X120160000Y-117660000D02*
X120160000Y-115680000D01*
X109800000Y-114800000D02*
X108800000Y-114800000D01*
%TO.C,SensorSharp2*%
X127990000Y-120070000D02*
X133130000Y-120070000D01*
X127990000Y-122730000D02*
X127990000Y-120070000D01*
X125390000Y-121400000D02*
X125390000Y-120070000D01*
X127990000Y-122730000D02*
X133130000Y-122730000D01*
X125390000Y-120070000D02*
X126720000Y-120070000D01*
X133130000Y-122730000D02*
X133130000Y-120070000D01*
%TO.C,SensorSharp1*%
X125545000Y-125445000D02*
X126875000Y-125445000D01*
X125545000Y-126775000D02*
X125545000Y-125445000D01*
X128145000Y-128105000D02*
X133285000Y-128105000D01*
X128145000Y-128105000D02*
X128145000Y-125445000D01*
X128145000Y-125445000D02*
X133285000Y-125445000D01*
X133285000Y-128105000D02*
X133285000Y-125445000D01*
%TO.C,U6*%
X159270000Y-75370000D02*
X161930000Y-75370000D01*
X159270000Y-85590000D02*
X161930000Y-85590000D01*
X160600000Y-72770000D02*
X161930000Y-72770000D01*
X161930000Y-75370000D02*
X161930000Y-85590000D01*
X159270000Y-75370000D02*
X159270000Y-85590000D01*
X161930000Y-72770000D02*
X161930000Y-74100000D01*
%TD*%
M02*
