M48
; DRILL file {KiCad (6.0.1)} date Wed Apr 27 12:02:00 2022
; FORMAT={-:-/ absolute / inch / decimal}
; #@! TF.CreationDate,2022-04-27T12:02:00-05:00
; #@! TF.GenerationSoftware,Kicad,Pcbnew,(6.0.1)
; #@! TF.FileFunction,Plated,1,2,PTH
FMAT,2
INCH
; #@! TA.AperFunction,Plated,PTH,ViaDrill
T1C0.0157
; #@! TA.AperFunction,Plated,PTH,ComponentDrill
T2C0.0300
; #@! TA.AperFunction,Plated,PTH,ComponentDrill
T3C0.0354
; #@! TA.AperFunction,Plated,PTH,ComponentDrill
T4C0.0362
; #@! TA.AperFunction,Plated,PTH,ComponentDrill
T5C0.0394
; #@! TA.AperFunction,Plated,PTH,ComponentDrill
T6C0.0598
; #@! TA.AperFunction,Plated,PTH,ComponentDrill
T7C0.0906
%
G90
G05
T1
X4.2756Y-3.874
X4.622Y-3.7008
X5.5433Y-3.685
X5.6614Y-3.8031
T2
X4.8159Y-2.7585
X4.8159Y-2.8585
X4.8159Y-2.9585
X4.8159Y-3.0585
X4.8159Y-3.1585
X4.8159Y-3.2585
X4.8159Y-3.3585
X4.8159Y-3.4585
X4.8159Y-3.5585
X4.8159Y-3.6585
X4.8159Y-3.7585
X4.8159Y-3.8585
X4.8159Y-3.9585
X4.8159Y-4.0585
X4.8159Y-4.1585
X5.8159Y-2.7585
X5.8159Y-2.8585
X5.8159Y-2.9585
X5.8159Y-3.0585
X5.8159Y-3.1585
X5.8159Y-3.2585
X5.8159Y-3.3585
X5.8159Y-3.4585
X5.8159Y-3.5585
X5.8159Y-3.6585
X5.8159Y-3.7585
X5.8159Y-3.8585
X5.8159Y-3.9585
X5.8159Y-4.0585
X5.8159Y-4.1585
T3
X4.1575Y-4.0394
X4.2559Y-4.0394
X4.3543Y-4.0394
T4
X4.3031Y-4.5984
X4.4016Y-4.5984
X4.4803Y-4.5984
X4.5787Y-4.5984
T5
X4.0965Y-2.6778
X4.1598Y-4.2677
X4.1953Y-3.4963
X4.1965Y-2.6778
X4.2598Y-4.2677
X4.2953Y-3.4963
X4.2965Y-2.6778
X4.3953Y-3.4963
X4.3965Y-2.6778
X4.4953Y-3.4963
X4.4965Y-2.6778
X4.5965Y-2.6778
X4.989Y-4.7795
X4.9951Y-4.9911
X5.089Y-4.7795
X5.0951Y-4.9911
X5.1004Y-2.314
X5.189Y-4.7795
X5.1951Y-4.9911
X5.2004Y-2.314
X5.4439Y-4.7795
X5.4439Y-4.9911
X5.5378Y-2.3219
X5.5439Y-4.7795
X5.5439Y-4.9911
X5.6378Y-2.3219
X5.6439Y-4.7795
X5.6439Y-4.9911
X6.0709Y-3.0362
X6.0709Y-3.1362
X6.0709Y-3.2362
X6.0955Y-2.4063
X6.0955Y-2.5063
X6.0955Y-2.6063
X6.0955Y-2.7063
X6.0955Y-3.9951
X6.0955Y-4.0951
X6.0955Y-4.1951
X6.1191Y-3.5541
X6.1191Y-3.6541
X6.1191Y-3.7541
X6.315Y-3.5591
X6.315Y-3.6591
X6.315Y-3.7591
X6.315Y-4.001
X6.315Y-4.101
X6.315Y-4.201
X6.3228Y-2.9173
X6.3228Y-3.0173
X6.3228Y-3.1173
X6.3228Y-3.2173
X6.3228Y-3.3173
X6.3386Y-2.4063
X6.3386Y-2.5063
X6.3386Y-2.6063
X6.3386Y-2.7063
T6
X4.1858Y-2.3701
X4.3858Y-2.3701
X4.5858Y-2.3701
T7
X4.1823Y-4.7051
X4.6996Y-4.7051
T0
M30
